<svg width="652" height="362" viewBox="0 0 652 362" fill="none" xmlns="http://www.w3.org/2000/svg">
<path d="M476.127 0C478.816 0 481.504 0.450242 484.193 1.35073L484.865 1.80097C499.652 7.20397 506.709 23.8632 502.676 43.6741L442.857 336.336C439.496 352.995 430.759 362 419.669 362C416.98 362 414.292 361.55 411.603 360.649C396.144 354.796 389.087 338.137 393.12 318.326L452.939 25.6642C456.3 9.00497 465.037 0 476.127 0ZM0 131.022C0 165.241 17.1392 188.204 42.68 188.204C65.8683 188.204 80.655 168.393 80.655 138.226V104.007H84.0157V198.56H48.393C19.1556 198.56 0 224.224 0 263.396C0 303.468 19.1556 329.132 48.393 329.132H125.015C148.876 329.132 165.007 307.52 165.007 275.552C165.007 242.684 148.876 221.072 125.015 221.072H94.0976V212.067H103.171C140.138 212.067 164.671 179.199 164.671 129.672C164.671 57.1816 132.409 13.9577 84.0157 13.9577C32.262 13.9577 0 57.1816 0 121.567V131.022ZM269.942 249.438V275.552C269.942 307.52 286.073 329.132 310.942 329.132C334.802 329.132 350.933 307.52 350.933 275.552V249.438C371.769 246.286 385.212 225.575 385.212 195.408C385.212 165.241 371.433 144.53 349.925 142.279L350.261 82.3955C350.261 41.4229 329.762 13.9577 298.172 13.9577C281.368 13.9577 262.885 26.1144 252.467 44.1244L195.336 142.729C158.37 206.664 173.828 249.438 234.32 249.438H269.942ZM275.319 136.876V217.92H269.942V136.876H275.319ZM532.087 257.993C525.702 289.06 537.128 315.174 560.316 323.729C564.685 325.53 569.054 325.98 573.087 325.98C590.898 325.98 605.013 311.122 610.054 286.358L650.381 85.097C653.742 67.9875 651.725 52.6791 645.676 40.5224C636.939 20.2612 623.16 17.1094 607.029 17.1094H548.89C525.702 17.1094 510.579 37.8209 510.579 68.4378C510.579 103.107 527.046 125.169 551.915 125.169H559.98L542.169 208.015L532.087 257.993Z" fill="#FF7596"/>
<path d="M476.127 0C478.816 0 481.504 0.450242 484.193 1.35073L484.865 1.80097C499.652 7.20397 506.709 23.8632 502.676 43.6741L442.857 336.336C439.496 352.995 430.759 362 419.669 362C416.98 362 414.292 361.55 411.603 360.649C396.144 354.796 389.087 338.137 393.12 318.326L452.939 25.6642C456.3 9.00497 465.037 0 476.127 0ZM0 131.022C0 165.241 17.1392 188.204 42.68 188.204C65.8683 188.204 80.655 168.393 80.655 138.226V104.007H84.0157V198.56H48.393C19.1556 198.56 0 224.224 0 263.396C0 303.468 19.1556 329.132 48.393 329.132H125.015C148.876 329.132 165.007 307.52 165.007 275.552C165.007 242.684 148.876 221.072 125.015 221.072H94.0976V212.067H103.171C140.138 212.067 164.671 179.199 164.671 129.672C164.671 57.1816 132.409 13.9577 84.0157 13.9577C32.262 13.9577 0 57.1816 0 121.567V131.022ZM269.942 249.438V275.552C269.942 307.52 286.073 329.132 310.942 329.132C334.802 329.132 350.933 307.52 350.933 275.552V249.438C371.769 246.286 385.212 225.575 385.212 195.408C385.212 165.241 371.433 144.53 349.925 142.279L350.261 82.3955C350.261 41.4229 329.762 13.9577 298.172 13.9577C281.368 13.9577 262.885 26.1144 252.467 44.1244L195.336 142.729C158.37 206.664 173.828 249.438 234.32 249.438H269.942ZM275.319 136.876V217.92H269.942V136.876H275.319ZM532.087 257.993C525.702 289.06 537.128 315.174 560.316 323.729C564.685 325.53 569.054 325.98 573.087 325.98C590.898 325.98 605.013 311.122 610.054 286.358L650.381 85.097C653.742 67.9875 651.725 52.6791 645.676 40.5224C636.939 20.2612 623.16 17.1094 607.029 17.1094H548.89C525.702 17.1094 510.579 37.8209 510.579 68.4378C510.579 103.107 527.046 125.169 551.915 125.169H559.98L542.169 208.015L532.087 257.993Z" stroke="#FF7596"/>
</svg>
