<svg width="156" height="157" viewBox="0 0 156 157" fill="none" xmlns="http://www.w3.org/2000/svg">
<path d="M52.5424 14.8341C53.464 14.4537 54.4536 14.266 55.4505 14.2827C56.4473 14.2994 57.4302 14.52 58.3385 14.931C59.2614 15.3125 60.0961 15.8794 60.7911 16.5966C61.486 17.3137 62.0263 18.1659 62.3785 19.1003C62.759 20.0223 62.9467 21.0125 62.93 22.0098C62.9133 23.007 62.6927 23.9904 62.2816 24.8991C61.8997 25.8218 61.3326 26.6563 60.6155 27.3512C59.8984 28.046 59.0465 28.5865 58.1123 28.9392L52.2408 31.2554C52.0868 31.3184 51.9216 31.3491 51.7553 31.3459C51.5891 31.3426 51.4252 31.3054 51.2738 31.2366C51.1204 31.1736 50.9816 31.0796 50.8662 30.9605C50.7508 30.8414 50.6613 30.6997 50.6032 30.5444L42.2538 9.40426C42.1908 9.2508 42.16 9.08605 42.1632 8.9202C42.1664 8.75434 42.2037 8.59092 42.2726 8.44005C42.3359 8.28645 42.4299 8.14742 42.549 8.03161C42.668 7.91579 42.8096 7.82566 42.9649 7.76671L52.3592 4.06065C52.5132 3.99792 52.6782 3.967 52.8444 3.96978C53.0105 3.97255 53.1745 4.00896 53.3262 4.07679C53.4795 4.14061 53.6182 4.23522 53.7335 4.35474C53.8489 4.47426 53.9385 4.61614 53.9968 4.77167C54.0609 4.92478 54.0925 5.08954 54.0897 5.2555C54.087 5.42145 54.0498 5.58503 53.9806 5.73591C53.9169 5.8896 53.8223 6.02862 53.7028 6.14442C53.5833 6.26021 53.4414 6.35033 53.2858 6.40925L45.0657 9.64127L47.8452 16.6871L52.5424 14.8341ZM57.175 26.5798C57.7984 26.3453 58.3671 25.9852 58.8457 25.5219C59.3242 25.0586 59.7026 24.5019 59.9572 23.8864C60.2315 23.2803 60.3785 22.6243 60.3892 21.959C60.3998 21.2938 60.2739 20.6334 60.0192 20.0188C59.7842 19.3956 59.424 18.8271 58.9608 18.3486C58.4975 17.87 57.9411 17.4916 57.3258 17.2365C56.7199 16.9629 56.0644 16.8163 55.3997 16.8056C54.735 16.795 54.0752 16.9205 53.4609 17.1746L48.7609 19.0303L52.4697 28.4247L57.175 26.5798Z" fill="#FF7596"/>
<path d="M85.0273 22.8493C85.1927 22.8506 85.3562 22.8856 85.5077 22.9523C85.6591 23.019 85.7953 23.1159 85.908 23.2372C86.0252 23.3552 86.1171 23.4958 86.1782 23.6504C86.2394 23.8051 86.2684 23.9705 86.2635 24.1367C86.2621 24.3028 86.2268 24.4669 86.1596 24.6189C86.0924 24.7708 85.9949 24.9074 85.873 25.0202C85.7557 25.1375 85.6156 25.2293 85.4613 25.29C85.307 25.3507 85.1418 25.379 84.9761 25.373L72.3524 25.1225C72.1863 25.1223 72.0221 25.0877 71.8701 25.021C71.718 24.9542 71.5815 24.8568 71.4689 24.7347C71.3516 24.6175 71.2598 24.4773 71.1991 24.323C71.1384 24.1687 71.1101 24.0035 71.1161 23.8378C71.1165 23.6709 71.1503 23.5059 71.2155 23.3523C71.2808 23.1987 71.3761 23.0598 71.4959 22.9436L82.509 11.2302C82.9968 10.7755 83.3863 10.2257 83.6535 9.61469C83.9208 9.00372 84.0602 8.34452 84.0631 7.67766C84.0872 7.01281 83.9748 6.35008 83.733 5.7303C83.4912 5.11052 83.1251 4.54682 82.6571 4.07395C82.2033 3.58775 81.6546 3.19974 81.045 2.93384C80.4354 2.66794 79.7778 2.5298 79.1127 2.52796C78.4482 2.50392 77.7859 2.61625 77.1666 2.85806C76.5473 3.09986 75.984 3.466 75.5117 3.93389C75.0246 4.387 74.6359 4.93555 74.37 5.54533C74.104 6.15511 73.9664 6.81309 73.9657 7.47835C73.9641 7.64443 73.9287 7.80844 73.8615 7.96034C73.7944 8.11225 73.6969 8.24886 73.5751 8.36178C73.4576 8.47867 73.3174 8.57027 73.1632 8.63095C73.0089 8.69163 72.8439 8.72008 72.6782 8.71459C72.512 8.71314 72.3478 8.67805 72.1955 8.61139C72.0432 8.54473 71.906 8.4479 71.7921 8.32676C71.6753 8.20865 71.5837 8.06796 71.5231 7.91329C71.4624 7.75863 71.4339 7.59324 71.4393 7.42719C71.4435 6.42969 71.6519 5.44361 72.0517 4.5297C72.4514 3.61579 73.034 2.79337 73.7637 2.11318C74.4704 1.41313 75.3128 0.864982 76.2392 0.502327C77.1655 0.139671 78.1562 -0.0298203 79.1504 0.00429277C80.1474 0.00772203 81.133 0.215516 82.0466 0.614835C82.9601 1.01415 83.782 1.59652 84.4617 2.32596C85.1641 3.03389 85.714 3.87836 86.0771 4.80719C86.4403 5.73602 86.6092 6.72949 86.5732 7.72615C86.569 8.72534 86.3601 9.71305 85.9594 10.6284C85.5587 11.5437 84.9747 12.3673 84.2435 13.0482L75.245 22.6554L85.0273 22.8493Z" fill="#FF7596"/>
<path d="M105.839 29.9867C105.991 30.0519 106.129 30.1476 106.244 30.268C106.358 30.3885 106.447 30.531 106.504 30.687C106.566 30.8411 106.597 31.0064 106.593 31.1726C106.589 31.3389 106.552 31.5027 106.482 31.6539C106.417 31.8067 106.321 31.9445 106.201 32.0589C106.081 32.1733 105.938 32.2619 105.782 32.3191C105.628 32.3817 105.464 32.4121 105.298 32.4084C105.132 32.4047 104.969 32.367 104.818 32.2976L93.2688 27.1964C93.1162 27.1309 92.9785 27.0351 92.8641 26.9147C92.7497 26.7943 92.6611 26.6519 92.6035 26.4961C92.541 26.342 92.5107 26.1767 92.5144 26.0104C92.5181 25.8441 92.5558 25.6804 92.6251 25.5292C92.6904 25.3761 92.7855 25.2376 92.9048 25.1215C93.024 25.0055 93.1652 24.9143 93.32 24.8532L108.001 18.2975C108.627 18.0661 109.198 17.7091 109.68 17.2487C110.162 16.7883 110.545 16.2342 110.805 15.6203C111.084 15.0163 111.237 14.3615 111.253 13.6963C111.269 13.0311 111.149 12.3696 110.9 11.7527C110.669 11.1293 110.312 10.5599 109.853 10.0796C109.393 9.59919 108.84 9.21807 108.228 8.95967C107.624 8.68039 106.969 8.52792 106.304 8.51171C105.638 8.49549 104.977 8.61588 104.36 8.86541C103.737 9.0964 103.167 9.45262 102.687 9.91214C102.207 10.3717 101.825 10.9247 101.567 11.5372C101.502 11.6904 101.406 11.8287 101.286 11.9436C101.166 12.0585 101.023 12.1475 100.867 12.2052C100.713 12.2671 100.548 12.2972 100.382 12.2935C100.217 12.2898 100.053 12.2524 99.9025 12.1836C99.7495 12.1189 99.6114 12.0233 99.4969 11.9028C99.3825 11.7823 99.2941 11.6395 99.2373 11.4833C99.174 11.3294 99.1432 11.164 99.1469 10.9976C99.1506 10.8312 99.1887 10.6674 99.2588 10.5164C99.6474 9.5987 100.22 8.7702 100.94 8.0819C101.661 7.39359 102.515 6.86005 103.45 6.51411C104.374 6.13871 105.366 5.95717 106.363 5.9808C107.361 6.00443 108.343 6.23272 109.248 6.65148C110.167 7.03987 110.996 7.61203 111.684 8.33275C112.373 9.05348 112.907 9.90751 113.253 10.8423C113.628 11.7671 113.808 12.7586 113.785 13.7559C113.761 14.7532 113.534 15.7351 113.116 16.6411C112.726 17.5609 112.152 18.391 111.429 19.0803C110.706 19.7696 109.849 20.3034 108.912 20.6488L96.9021 26.0355L105.839 29.9867Z" fill="#FF7596"/>
<path d="M126.804 50.4615C126.912 50.5873 126.994 50.7339 127.043 50.8923C127.093 51.0507 127.109 51.2176 127.092 51.3827C127.08 51.5484 127.034 51.7099 126.957 51.8572C126.88 52.0045 126.774 52.1345 126.645 52.2392L122.769 55.4712C122.643 55.5795 122.497 55.6609 122.338 55.7104C122.18 55.76 122.013 55.7767 121.848 55.7594C121.682 55.7476 121.521 55.7018 121.373 55.6249C121.226 55.5479 121.096 55.4415 120.992 55.3123C120.883 55.1868 120.801 55.0403 120.751 54.8818C120.702 54.7233 120.685 54.5563 120.703 54.3912C120.715 54.2254 120.761 54.0638 120.838 53.9164C120.915 53.7691 121.021 53.6391 121.15 53.5347L124.057 51.1106L112.726 37.5469L109.82 39.9709C109.693 40.0794 109.546 40.161 109.387 40.2105C109.229 40.2601 109.061 40.2766 108.896 40.2591C108.73 40.2467 108.569 40.2006 108.421 40.1237C108.274 40.0469 108.144 39.9408 108.039 39.812C107.931 39.686 107.85 39.5393 107.801 39.3809C107.752 39.2225 107.736 39.0558 107.754 38.8909C107.765 38.725 107.811 38.5632 107.888 38.4158C107.965 38.2684 108.071 38.1385 108.201 38.0344L112.077 34.8024C112.202 34.6941 112.349 34.6127 112.507 34.5631C112.666 34.5135 112.833 34.4969 112.998 34.5142C113.163 34.5266 113.325 34.5727 113.472 34.6495C113.619 34.7264 113.749 34.8325 113.854 34.9613L114.107 35.2629L136.311 27.7781C136.507 27.7038 136.717 27.6762 136.925 27.6973C137.089 27.7106 137.248 27.7571 137.393 27.834C137.538 27.9108 137.666 28.0165 137.768 28.1444C137.877 28.2702 137.96 28.4166 138.011 28.5748C138.062 28.733 138.082 28.8998 138.067 29.0655C138.045 29.2697 137.978 29.4664 137.871 29.6419L126.559 50.1626L126.804 50.4615ZM115.847 37.3449L124.811 48.0752L134.124 31.1852L115.847 37.3449Z" fill="#FF7596"/>
<path d="M140.853 62.8295C140.811 62.6689 140.802 62.5014 140.828 62.3374C140.853 62.1735 140.912 62.0164 141.001 61.876C141.084 61.7322 141.196 61.6071 141.33 61.5084C141.464 61.4097 141.617 61.3396 141.779 61.3023C141.94 61.2612 142.107 61.2532 142.271 61.2786C142.435 61.3041 142.592 61.3626 142.733 61.4505C142.876 61.5341 143.001 61.6463 143.099 61.7802C143.197 61.9141 143.267 62.0669 143.304 62.2289C143.424 62.7557 143.651 63.2522 143.971 63.6881C144.29 64.1239 144.696 64.4899 145.162 64.7633C145.62 65.0503 146.131 65.2405 146.666 65.322C147.2 65.4035 147.745 65.3747 148.267 65.2373C148.794 65.1174 149.291 64.8909 149.727 64.5718C150.163 64.2526 150.528 63.8476 150.802 63.3816C151.089 62.9238 151.279 62.4121 151.36 61.878C151.442 61.3439 151.413 60.7988 151.276 60.2762C151.156 59.7494 150.93 59.2527 150.611 58.8168C150.291 58.3809 149.886 58.015 149.42 57.7417C148.963 57.4543 148.451 57.2639 147.917 57.1824C147.382 57.1008 146.837 57.1299 146.315 57.2677C146.154 57.3089 145.986 57.317 145.821 57.2915C145.657 57.2661 145.5 57.2076 145.359 57.1196C145.215 57.0358 145.091 56.9234 144.992 56.7895C144.894 56.6556 144.825 56.5031 144.788 56.3412C144.745 56.1807 144.736 56.0131 144.762 55.849C144.787 55.6849 144.847 55.5279 144.936 55.3877C145.019 55.2442 145.131 55.1193 145.264 55.0206C145.398 54.9219 145.55 54.8516 145.711 54.8141C146.556 54.5931 147.436 54.5475 148.299 54.68C149.161 54.8125 149.987 55.1203 150.726 55.5844C151.48 56.0245 152.135 56.6147 152.651 57.3185C153.167 58.0223 153.534 58.8245 153.727 59.6756C153.948 60.5192 153.994 61.3992 153.862 62.2613C153.73 63.1234 153.423 63.9493 152.959 64.6879C152.517 65.4385 151.926 66.0908 151.222 66.6049C150.519 67.119 149.718 67.484 148.868 67.6775C148.024 67.8978 147.143 67.9431 146.281 67.8106C145.418 67.6782 144.592 67.3707 143.853 66.9072C143.594 66.7511 143.346 66.5784 143.11 66.3901C142.937 66.8493 142.726 67.2927 142.477 67.7152C141.99 68.5386 141.34 69.2539 140.567 69.8175C139.794 70.3811 138.914 70.7812 137.982 70.9931C137.057 71.2358 136.093 71.2867 135.148 71.1427C134.203 70.9986 133.297 70.6626 132.487 70.1554C131.663 69.6716 130.946 69.0241 130.382 68.2529C129.817 67.4816 129.416 66.603 129.204 65.671C128.961 64.7465 128.91 63.782 129.054 62.8371C129.198 61.8921 129.534 60.9867 130.041 60.1765C130.525 59.3522 131.173 58.6357 131.944 58.071C132.715 57.5064 133.594 57.1056 134.526 56.8933C134.686 56.8509 134.854 56.8422 135.018 56.8677C135.182 56.8932 135.339 56.9524 135.479 57.0415C135.623 57.1247 135.748 57.2365 135.847 57.3699C135.945 57.5033 136.015 57.6555 136.053 57.8172C136.095 57.9782 136.104 58.1461 136.078 58.3106C136.053 58.475 135.994 58.6325 135.905 58.7733C135.821 58.9165 135.709 59.041 135.575 59.1392C135.441 59.2374 135.288 59.3072 135.127 59.3443C134.518 59.4845 133.945 59.7481 133.443 60.1187C132.941 60.4893 132.52 60.9591 132.207 61.499C131.875 62.0263 131.655 62.6159 131.56 63.2315C131.465 63.8472 131.497 64.4757 131.655 65.0784C131.796 65.6862 132.06 66.2587 132.431 66.7608C132.801 67.2629 133.27 67.6839 133.809 67.998C134.338 68.3272 134.928 68.5449 135.544 68.6375C136.159 68.7302 136.787 68.6958 137.389 68.5367C137.997 68.3954 138.569 68.1315 139.071 67.7609C139.573 67.3904 139.994 66.9211 140.309 66.382C140.635 65.8576 140.852 65.2723 140.945 64.6616C141.039 64.0509 141.007 63.4276 140.853 62.8295Z" fill="#FF7596"/>
<path d="M143.747 80.6488C148.742 81.394 152.143 82.9489 153.949 85.3137C154.455 85.9739 154.821 86.7308 155.023 87.5378C155.226 88.3447 155.261 89.1845 155.126 90.0055C155.016 90.8291 154.739 91.6215 154.312 92.3339C153.884 93.0463 153.315 93.6636 152.64 94.1479C150.221 95.8824 146.514 96.378 141.519 95.6346C136.524 94.8913 133.124 93.3354 131.319 90.967C130.815 90.3067 130.451 89.55 130.25 88.7435C130.048 87.937 130.015 87.0979 130.151 86.2779C130.26 85.4539 130.537 84.6609 130.965 83.948C131.392 83.2351 131.961 82.6174 132.637 82.1328C135.05 80.3965 138.753 79.9018 143.747 80.6488ZM152.619 89.6311C152.699 89.1379 152.677 88.6334 152.555 88.1489C152.432 87.6644 152.212 87.2101 151.907 86.8139C150.381 84.9914 147.537 83.7686 143.375 83.1455C139.213 82.5225 136.136 82.8618 134.145 84.1636C133.737 84.4535 133.393 84.8239 133.134 85.252C132.875 85.68 132.707 86.1566 132.639 86.6523C132.559 87.1457 132.581 87.6503 132.704 88.1349C132.827 88.6195 133.048 89.0738 133.353 89.4695C134.877 91.292 137.722 92.5139 141.886 93.1352C146.049 93.7564 149.126 93.418 151.116 92.1198C151.523 91.8297 151.866 91.4592 152.125 91.0312C152.383 90.6031 152.551 90.1266 152.619 89.6311Z" fill="#FF7596"/>
<path d="M131.059 112.414C131.226 111.974 131.433 111.55 131.678 111.148C132.182 110.288 132.857 109.54 133.661 108.95C134.465 108.361 135.382 107.942 136.354 107.72C137.319 107.468 138.326 107.417 139.311 107.569C140.297 107.721 141.241 108.074 142.085 108.606C142.946 109.109 143.695 109.784 144.285 110.588C144.874 111.392 145.293 112.309 145.514 113.281C145.766 114.246 145.818 115.252 145.666 116.237C145.514 117.223 145.162 118.166 144.63 119.01C144.127 119.871 143.452 120.62 142.648 121.21C141.844 121.8 140.927 122.219 139.955 122.442C138.99 122.693 137.983 122.744 136.997 122.591C136.012 122.439 135.068 122.086 134.223 121.555C132.956 120.812 131.944 119.702 131.32 118.372L124.36 105.08C124.293 104.966 124.243 104.843 124.212 104.714C124.169 104.552 124.159 104.383 124.184 104.217C124.208 104.051 124.267 103.892 124.355 103.75C124.44 103.607 124.552 103.482 124.687 103.384C124.821 103.286 124.974 103.216 125.136 103.179C125.296 103.136 125.464 103.127 125.628 103.152C125.792 103.177 125.949 103.236 126.089 103.324C126.286 103.44 126.446 103.608 126.553 103.809L131.059 112.414ZM140.776 110.763C140.214 110.408 139.584 110.172 138.927 110.071C138.269 109.969 137.598 110.003 136.954 110.171C136.306 110.318 135.694 110.597 135.158 110.991C134.622 111.385 134.173 111.885 133.838 112.46C133.483 113.023 133.247 113.652 133.145 114.309C133.043 114.967 133.076 115.638 133.243 116.282C133.392 116.93 133.672 117.541 134.066 118.077C134.459 118.612 134.958 119.062 135.532 119.398C136.095 119.753 136.725 119.988 137.382 120.09C138.039 120.192 138.71 120.158 139.354 119.991C140.002 119.842 140.613 119.562 141.149 119.169C141.685 118.775 142.135 118.276 142.47 117.701C142.825 117.139 143.061 116.509 143.164 115.852C143.266 115.195 143.233 114.523 143.066 113.879C142.916 113.233 142.636 112.623 142.242 112.089C141.848 111.554 141.349 111.106 140.776 110.771V110.763Z" fill="#FF7596"/>
<path d="M102.569 141.941C101.646 142.321 100.656 142.508 99.6587 142.49C98.6614 142.473 97.6783 142.251 96.7699 141.839C95.8494 141.455 95.0175 140.886 94.3254 140.167C93.6333 139.449 93.0958 138.596 92.7461 137.662C92.3671 136.74 92.1807 135.75 92.1983 134.753C92.2159 133.756 92.4372 132.774 92.8484 131.866C93.2329 130.945 93.8019 130.113 94.5204 129.421C95.2389 128.729 96.0916 128.192 97.0258 127.842L102.9 125.531C103.054 125.468 103.218 125.438 103.384 125.442C103.55 125.445 103.714 125.483 103.864 125.552C104.018 125.615 104.157 125.709 104.273 125.828C104.389 125.947 104.479 126.089 104.538 126.245L112.841 147.401C112.904 147.555 112.934 147.719 112.93 147.885C112.927 148.051 112.889 148.214 112.82 148.365C112.756 148.519 112.662 148.658 112.543 148.773C112.424 148.889 112.283 148.979 112.127 149.038L102.728 152.731C102.574 152.795 102.409 152.826 102.242 152.822C102.076 152.819 101.912 152.782 101.761 152.712C101.607 152.649 101.468 152.555 101.353 152.436C101.238 152.317 101.148 152.175 101.09 152.02C101.027 151.866 100.996 151.701 101 151.535C101.003 151.368 101.04 151.204 101.109 151.053C101.173 150.9 101.267 150.761 101.387 150.646C101.506 150.53 101.648 150.441 101.804 150.382L110.029 147.15L107.258 140.102L102.569 141.941ZM97.9496 130.19C97.3251 130.424 96.7553 130.784 96.2758 131.247C95.7962 131.711 95.4171 132.268 95.162 132.884C94.888 133.489 94.7409 134.145 94.7297 134.809C94.7186 135.474 94.8437 136.134 95.0974 136.749C95.3304 137.374 95.6899 137.944 96.1533 138.423C96.6168 138.903 97.1742 139.282 97.7907 139.536C98.3967 139.811 99.0526 139.958 99.7178 139.97C100.383 139.981 101.044 139.855 101.658 139.601L106.358 137.756L102.663 128.356L97.9496 130.19Z" fill="#FF7596"/>
<path d="M70.1164 133.891C69.9502 133.89 69.7861 133.855 69.6341 133.788C69.4821 133.72 69.3456 133.623 69.233 133.501C69.1156 133.383 69.0237 133.242 68.963 133.087C68.9023 132.933 68.8741 132.767 68.8802 132.601C68.881 132.435 68.9159 132.271 68.9826 132.119C69.0493 131.967 69.1464 131.83 69.268 131.718C69.3861 131.601 69.5268 131.509 69.6815 131.448C69.8361 131.388 70.0015 131.359 70.1676 131.365L82.7913 131.634C82.9573 131.634 83.1215 131.669 83.2735 131.736C83.4255 131.803 83.5621 131.9 83.6747 132.022C83.7916 132.14 83.8831 132.281 83.9438 132.435C84.0044 132.59 84.033 132.755 84.0276 132.921C84.026 133.088 83.9914 133.252 83.9258 133.406C83.8601 133.559 83.7647 133.697 83.6451 133.813L72.6239 145.521C72.1351 145.974 71.7447 146.524 71.4769 147.134C71.2091 147.745 71.0696 148.404 71.0672 149.071C71.0417 149.735 71.1529 150.398 71.3938 151.018C71.6347 151.638 72.0002 152.202 72.4677 152.674C72.9206 153.162 73.469 153.551 74.0788 153.818C74.6886 154.084 75.3467 154.222 76.0122 154.223C76.6766 154.248 77.3391 154.137 77.9589 153.896C78.5786 153.655 79.1425 153.29 79.6159 152.823C80.1024 152.369 80.4909 151.82 80.7572 151.211C81.0236 150.601 81.1622 149.943 81.1645 149.278C81.1659 149.112 81.201 148.948 81.2676 148.797C81.3343 148.645 81.4312 148.508 81.5524 148.395C81.6705 148.278 81.8112 148.186 81.9658 148.126C82.1205 148.065 82.2859 148.037 82.452 148.042C82.6181 148.043 82.7821 148.079 82.9341 148.146C83.086 148.213 83.2225 148.311 83.3354 148.432C83.4527 148.55 83.5445 148.69 83.6052 148.844C83.6659 148.998 83.6942 149.164 83.6882 149.329C83.6841 150.327 83.4755 151.313 83.0752 152.226C82.6749 153.14 82.0916 153.961 81.3611 154.641C80.6525 155.343 79.8074 155.892 78.8781 156.254C77.9488 156.616 76.955 156.784 75.9583 156.747C74.9613 156.742 73.9758 156.533 73.0624 156.134C72.1491 155.734 71.3271 155.152 70.647 154.422C69.9459 153.713 69.3974 152.868 69.0352 151.939C68.673 151.01 68.5047 150.016 68.5408 149.02C68.546 148.02 68.7558 147.033 69.1574 146.118C69.5591 145.203 70.1439 144.38 70.8759 143.7L79.8825 134.098L70.1164 133.891Z" fill="#FF7596"/>
<path d="M49.2918 126.724C49.139 126.659 49.0012 126.563 48.8867 126.443C48.7723 126.322 48.6838 126.18 48.6265 126.024C48.5644 125.87 48.5344 125.705 48.5386 125.539C48.5428 125.373 48.581 125.21 48.6508 125.06C48.7159 124.907 48.8117 124.769 48.9321 124.654C49.0526 124.54 49.1951 124.451 49.3511 124.394C49.5047 124.332 49.6695 124.301 49.8354 124.305C50.0013 124.309 50.1646 124.346 50.3153 124.416L61.859 129.533C62.0113 129.599 62.1487 129.695 62.263 129.816C62.3773 129.936 62.4662 130.078 62.5243 130.233C62.5857 130.388 62.6153 130.553 62.6111 130.719C62.6069 130.886 62.5691 131.049 62.5 131.2C62.4346 131.353 62.3396 131.492 62.2203 131.608C62.101 131.724 61.9599 131.815 61.8051 131.876L47.1156 138.416C46.4899 138.646 45.9181 139.003 45.4354 139.463C44.9527 139.922 44.5694 140.476 44.3091 141.09C44.0282 141.693 43.8745 142.348 43.8573 143.012C43.8402 143.677 43.96 144.339 44.2094 144.955C44.4398 145.579 44.7954 146.149 45.2545 146.631C45.7135 147.112 46.2662 147.494 46.8785 147.754C47.4825 148.033 48.1371 148.185 48.8021 148.202C49.4671 148.22 50.1287 148.101 50.7462 147.853C51.3701 147.623 51.9401 147.267 52.421 146.807C52.9018 146.348 53.2833 145.794 53.5419 145.182C53.6071 145.029 53.7028 144.891 53.8232 144.777C53.9437 144.662 54.0863 144.574 54.2422 144.516C54.3965 144.454 54.5618 144.424 54.7281 144.429C54.8944 144.433 55.0581 144.471 55.2091 144.541C55.3618 144.605 55.4995 144.701 55.6135 144.821C55.7275 144.942 55.8154 145.085 55.8717 145.241C55.9342 145.394 55.9646 145.559 55.9609 145.725C55.9572 145.891 55.9195 146.054 55.8501 146.205C55.4613 147.123 54.8883 147.952 54.1666 148.64C53.4448 149.328 52.5896 149.86 51.6538 150.205C50.7287 150.578 49.737 150.758 48.7397 150.733C47.7424 150.709 46.7608 150.48 45.8551 150.062C44.9373 149.672 44.1091 149.098 43.4212 148.376C42.7334 147.654 42.2005 146.799 41.8554 145.863C41.4826 144.938 41.3032 143.947 41.3282 142.95C41.3532 141.953 41.5821 140.972 42.0009 140.067C42.3913 139.147 42.9661 138.318 43.6897 137.629C44.4132 136.94 45.2703 136.407 46.2079 136.062L58.2229 130.675L49.2918 126.724Z" fill="#FF7596"/>
<path d="M28.3478 106.219C28.2392 106.093 28.1578 105.946 28.1087 105.787C28.0596 105.628 28.0438 105.461 28.0623 105.296C28.074 105.13 28.1198 104.969 28.1967 104.822C28.2736 104.675 28.3801 104.546 28.5094 104.442L32.3878 101.21C32.514 101.101 32.6611 101.02 32.82 100.97C32.9788 100.921 33.1461 100.904 33.3116 100.922C33.4771 100.934 33.6383 100.981 33.7851 101.058C33.932 101.135 34.0614 101.242 34.1654 101.371C34.2737 101.497 34.3552 101.644 34.4047 101.802C34.4543 101.961 34.4709 102.128 34.4536 102.293C34.4407 102.458 34.3941 102.62 34.3168 102.767C34.2395 102.914 34.133 103.044 34.0039 103.149L31.095 105.573L42.4071 119.153L45.3159 116.729C45.4421 116.62 45.5892 116.539 45.7481 116.489C45.9069 116.44 46.0742 116.423 46.2397 116.441C46.4052 116.453 46.5664 116.5 46.7132 116.577C46.8601 116.655 46.9895 116.761 47.0935 116.891C47.2019 117.016 47.2832 117.163 47.3323 117.321C47.3814 117.48 47.3973 117.647 47.379 117.812C47.3674 117.978 47.3217 118.139 47.2448 118.287C47.1678 118.434 47.0613 118.564 46.932 118.668L43.0535 121.9C42.9274 122.009 42.7802 122.09 42.6213 122.139C42.4624 122.188 42.295 122.204 42.1297 122.186C41.964 122.173 41.8027 122.127 41.6554 122.05C41.5082 121.973 41.3781 121.867 41.2732 121.739L41.0227 121.434L18.8079 128.892C18.6123 128.966 18.402 128.994 18.1938 128.973C18.0303 128.96 17.8712 128.913 17.7263 128.836C17.5813 128.759 17.4536 128.654 17.3508 128.526C17.2419 128.4 17.1593 128.253 17.108 128.094C17.0566 127.936 17.0375 127.768 17.0519 127.602C17.0755 127.398 17.1435 127.201 17.2512 127.026L28.5956 106.521L28.3478 106.219ZM39.2882 119.35L30.3382 108.609L21.003 125.485L39.2882 119.35Z" fill="#FF7596"/>
<path d="M14.3158 93.8327C14.3572 93.9935 14.3651 94.1611 14.3392 94.3251C14.3132 94.489 14.254 94.646 14.165 94.7862C14.0814 94.9297 13.9692 95.0544 13.8353 95.1527C13.7014 95.2509 13.5486 95.3205 13.3866 95.3572C13.226 95.3989 13.0586 95.4073 12.8946 95.3818C12.7306 95.3563 12.5735 95.2975 12.4332 95.209C12.2898 95.1252 12.1652 95.0129 12.067 94.879C11.9688 94.7451 11.8991 94.5925 11.8622 94.4306C11.7432 93.9035 11.5174 93.4064 11.1987 92.97C10.88 92.5336 10.4751 92.1672 10.0091 91.8935C9.5517 91.6057 9.04017 91.4147 8.50607 91.3323C7.97197 91.2498 7.42666 91.2777 6.90373 91.4141C6.37659 91.533 5.87946 91.7589 5.44307 92.0776C5.00667 92.3963 4.64028 92.8012 4.36658 93.2671C4.07927 93.7247 3.88876 94.2364 3.80677 94.7705C3.72478 95.3046 3.75304 95.8498 3.88985 96.3726C4.00834 96.8995 4.23368 97.3966 4.55195 97.833C4.87021 98.2694 5.27463 98.6358 5.74018 98.9097C6.19788 99.1968 6.70942 99.3875 7.24343 99.4699C7.77743 99.5524 8.32264 99.5249 8.84563 99.3891C9.00666 99.3471 9.17461 99.3386 9.33906 99.3641C9.50351 99.3896 9.661 99.4485 9.80178 99.5372C9.9447 99.6216 10.069 99.734 10.1671 99.8678C10.2653 100.002 10.3353 100.154 10.3728 100.316C10.4141 100.476 10.4221 100.644 10.3961 100.808C10.3702 100.972 10.3109 101.129 10.2219 101.269C10.1383 101.413 10.0261 101.537 9.8922 101.636C9.75828 101.734 9.60555 101.803 9.44355 101.84C8.59941 102.06 7.71914 102.105 6.85705 101.971C5.99495 101.838 5.16935 101.529 4.43122 101.064C3.67873 100.623 3.02473 100.032 2.50961 99.3277C1.99448 98.6236 1.62916 97.8213 1.43621 96.9705C1.21614 96.1263 1.17145 95.246 1.30486 94.3839C1.43828 93.5218 1.74696 92.6963 2.2119 91.9581C2.65336 91.2054 3.24437 90.551 3.94847 90.0354C4.65258 89.5198 5.45483 89.154 6.30578 88.9604C7.15062 88.7415 8.03131 88.6976 8.89373 88.8315C9.75615 88.9653 10.5821 89.2741 11.3208 89.7388C11.5795 89.8949 11.8278 90.0676 12.0642 90.2559C12.2351 89.7957 12.4478 89.3522 12.6998 88.9308C13.188 88.1085 13.8386 87.3942 14.6119 86.8316C15.3852 86.2689 16.265 85.8698 17.1977 85.6584C18.1224 85.4172 19.0866 85.3678 20.0311 85.5132C20.9755 85.6587 21.8802 85.9959 22.6895 86.5041C23.5134 86.9891 24.2292 87.6377 24.793 88.4098C25.3567 89.182 25.7563 90.0614 25.9673 90.9939C26.2085 91.9186 26.2579 92.8828 26.1124 93.8272C25.967 94.7717 25.6298 95.6764 25.1216 96.4857C24.6372 97.3098 23.9891 98.026 23.2174 98.5902C22.4457 99.1544 21.5667 99.5546 20.6344 99.7662C20.4732 99.8076 20.3052 99.8156 20.1408 99.7896C19.9764 99.7637 19.8189 99.7044 19.6783 99.6153C19.5351 99.5314 19.4106 99.419 19.3124 99.2852C19.2142 99.1513 19.1444 98.9988 19.1073 98.8369C19.0659 98.6762 19.058 98.5086 19.084 98.3446C19.1099 98.1806 19.1692 98.0237 19.2581 97.8835C19.3413 97.7397 19.4535 97.6147 19.5875 97.5164C19.7214 97.4181 19.8743 97.3487 20.0365 97.3125C20.6447 97.1722 21.2175 96.9085 21.7197 96.5379C22.2219 96.1673 22.6427 95.6976 22.9561 95.1578C23.289 94.6311 23.5102 94.0416 23.6061 93.4259C23.702 92.8102 23.6705 92.1814 23.5136 91.5784C23.3759 90.9706 23.1148 90.3976 22.7465 89.8949C22.3782 89.3922 21.9105 88.9705 21.3724 88.6561C20.8457 88.3231 20.2563 88.1018 19.6405 88.0059C19.0248 87.91 18.396 87.9415 17.7929 88.0985C17.1848 88.2389 16.6119 88.5026 16.1097 88.8732C15.6075 89.2438 15.1868 89.7135 14.8734 90.2532C14.5404 90.7799 14.3191 91.3694 14.2232 91.9851C14.1273 92.6008 14.1588 93.2297 14.3158 93.8327Z" fill="#FF7596"/>
<path d="M11.4419 76.0269C6.44842 75.2763 3.04942 73.7169 1.24487 71.3485C0.740698 70.6875 0.377522 69.93 0.177851 69.123C-0.0218202 68.3159 -0.0537549 67.4765 0.0840176 66.6567C0.194527 65.833 0.472304 65.0407 0.900276 64.3283C1.32825 63.616 1.89737 62.9986 2.57267 62.5143C4.9931 60.7852 8.70097 60.295 13.6962 61.0437C18.6915 61.7925 22.0896 63.3519 23.8906 65.7221C24.3943 66.3829 24.7574 67.1398 24.9575 67.9463C25.1576 68.7527 25.1905 69.5916 25.0541 70.4112C24.9438 71.2352 24.6657 72.0279 24.2372 72.7403C23.8088 73.4528 23.2389 74.0699 22.5628 74.5536C20.1441 76.2809 16.4372 76.772 11.4419 76.0269ZM2.58076 67.0337C2.49978 67.5272 2.52087 68.0321 2.6427 68.5171C2.76454 69.0022 2.98453 69.457 3.28912 69.8537C4.81355 71.6762 7.65595 72.9017 11.8163 73.5301C15.9766 74.1586 19.0542 73.8228 21.0491 72.5228C21.4569 72.2333 21.8011 71.8634 22.0605 71.4359C22.3199 71.0084 22.489 70.5322 22.5574 70.0368C22.6372 69.5432 22.6153 69.0384 22.493 68.5535C22.3707 68.0685 22.1507 67.6137 21.8463 67.2169C20.3237 65.3944 17.4813 64.1689 13.3192 63.5405C9.15703 62.912 6.07942 63.2478 4.08634 64.5478C3.67963 64.8363 3.33624 65.2049 3.07732 65.631C2.81839 66.0572 2.64942 66.5318 2.58076 67.0257V67.0337Z" fill="#FF7596"/>
<path d="M24.1674 44.2695C23.9983 44.7093 23.7901 45.133 23.5452 45.5354C23.0404 46.3957 22.3645 47.1433 21.5594 47.7321C20.7543 48.3209 19.837 48.7383 18.8641 48.9587C17.899 49.2096 16.8927 49.2599 15.9074 49.1066C14.922 48.9532 13.9786 48.5995 13.1354 48.0672C12.2752 47.5629 11.5276 46.8875 10.9388 46.0828C10.35 45.2782 9.9325 44.3612 9.71213 43.3888C9.46115 42.4232 9.41078 41.4165 9.56412 40.4307C9.71745 39.4449 10.0712 38.5011 10.6036 37.6574C11.1084 36.7976 11.7839 36.0503 12.5885 35.4615C13.3931 34.8728 14.3098 34.4551 15.282 34.2341C16.2476 33.9839 17.2542 33.9339 18.2399 34.0873C19.2256 34.2406 20.1694 34.5939 21.0135 35.1256C22.2795 35.8714 23.2898 36.9832 23.9115 38.3145L30.8577 51.6116C30.9227 51.7265 30.9716 51.8497 31.0031 51.9779C31.047 52.1398 31.057 52.309 31.0324 52.475C31.0079 52.6409 30.9493 52.7999 30.8604 52.9422C30.7762 53.0858 30.6635 53.2105 30.5291 53.3088C30.3947 53.407 30.2416 53.4766 30.0793 53.5131C29.9186 53.5544 29.7512 53.5625 29.5873 53.5371C29.4234 53.5116 29.2664 53.4531 29.1259 53.365C28.9295 53.2495 28.769 53.0817 28.6626 52.8802L24.1674 44.2695ZM14.4497 45.9098C15.0117 46.265 15.6406 46.5014 16.2974 46.6042C16.9543 46.7071 17.6252 46.6742 18.2689 46.5077C18.9172 46.3601 19.5283 46.0813 20.0647 45.6885C20.6011 45.2957 21.0514 44.7972 21.3878 44.2238C21.743 43.6612 21.9793 43.0319 22.0821 42.3746C22.1849 41.7174 22.1522 41.046 21.9858 40.4019C21.8381 39.7533 21.559 39.1418 21.1657 38.6054C20.7724 38.0689 20.2733 37.6189 19.6991 37.283C19.1371 36.9277 18.5083 36.6914 17.8514 36.5886C17.1946 36.4857 16.5236 36.5186 15.8799 36.6851C15.2313 36.8327 14.6199 37.1118 14.0834 37.5051C13.547 37.8984 13.0969 38.3976 12.761 38.9717C12.4058 39.5337 12.1695 40.1625 12.0666 40.8194C11.9638 41.4762 11.9966 42.1472 12.1631 42.7909C12.3107 43.4395 12.5898 44.0509 12.9831 44.5874C13.3764 45.1238 13.8756 45.5739 14.4497 45.9098Z" fill="#FF7596"/>
</svg>
