<svg width="141" height="1481" viewBox="0 0 141 1481" fill="none" xmlns="http://www.w3.org/2000/svg">
<circle cx="31.2508" cy="35.6687" r="22.2922" stroke="#FF7596" stroke-width="3"/>
<path d="M26.0885 394.473C39.3922 394.473 50.1769 383.688 50.1769 370.384C50.1769 357.081 39.3922 346.296 26.0885 346.296C12.7848 346.296 2 357.081 2 370.384C2 383.688 12.7848 394.473 26.0885 394.473Z" stroke="#FF7596" stroke-width="3" stroke-miterlimit="10"/>
<path d="M67.6753 323.653C73.4718 323.653 78.1708 318.954 78.1708 313.158C78.1708 307.361 73.4718 302.662 67.6753 302.662C61.8788 302.662 57.1798 307.361 57.1798 313.158C57.1798 318.954 61.8788 323.653 67.6753 323.653Z" stroke="#FF7596" stroke-width="3" stroke-miterlimit="10"/>
<path d="M30.4159 296.062C35.1909 296.062 39.0619 292.191 39.0619 287.416C39.0619 282.641 35.1909 278.77 30.4159 278.77C25.6408 278.77 21.7699 282.641 21.7699 287.416C21.7699 292.191 25.6408 296.062 30.4159 296.062Z" stroke="#FF7596" stroke-width="3" stroke-miterlimit="10"/>
<path d="M47.0165 522.843C60.4343 522.843 71.3115 511.966 71.3115 498.548C71.3115 485.13 60.4343 474.253 47.0165 474.253C33.5988 474.253 22.7216 485.13 22.7216 498.548C22.7216 511.966 33.5988 522.843 47.0165 522.843Z" stroke="#FF7596" stroke-width="3" stroke-miterlimit="10"/>
<path d="M69.1207 597.461C79.5832 597.461 88.0647 588.979 88.0647 578.517C88.0647 568.054 79.5832 559.573 69.1207 559.573C58.6583 559.573 50.1768 568.054 50.1768 578.517C50.1768 588.979 58.6583 597.461 69.1207 597.461Z" stroke="#FF7596" stroke-width="3" stroke-miterlimit="10"/>
<path d="M43.9999 632.044C49.9104 632.044 54.7018 627.252 54.7018 621.342C54.7018 615.431 49.9104 610.64 43.9999 610.64C38.0893 610.64 33.2979 615.431 33.2979 621.342C33.2979 627.252 38.0893 632.044 43.9999 632.044Z" stroke="#FF7596" stroke-width="3" stroke-miterlimit="10"/>
<path d="M44.2064 697.1C54.2126 697.1 62.3243 688.988 62.3243 678.982C62.3243 668.976 54.2126 660.864 44.2064 660.864C34.2001 660.864 26.0884 668.976 26.0884 678.982C26.0884 688.988 34.2001 697.1 44.2064 697.1Z" stroke="#FF7596" stroke-width="3" stroke-miterlimit="10"/>
<path d="M79.0598 154.755C92.3635 154.755 103.148 143.97 103.148 130.667C103.148 117.363 92.3635 106.578 79.0598 106.578C65.7561 106.578 54.9713 117.363 54.9713 130.667C54.9713 143.97 65.7561 154.755 79.0598 154.755Z" stroke="#FF7596" stroke-width="3" stroke-miterlimit="10"/>
<path d="M119.821 226.392C129.029 226.392 136.493 218.927 136.493 209.719C136.493 200.511 129.029 193.047 119.821 193.047C110.613 193.047 103.148 200.511 103.148 209.719C103.148 218.927 110.613 226.392 119.821 226.392Z" stroke="#FF7596" stroke-width="3" stroke-miterlimit="10"/>
<path d="M94.7087 186.045C99.3697 186.045 103.148 182.266 103.148 177.605C103.148 172.944 99.3697 169.166 94.7087 169.166C90.0477 169.166 86.2692 172.944 86.2692 177.605C86.2692 182.266 90.0477 186.045 94.7087 186.045Z" stroke="#FF7596" stroke-width="3" stroke-miterlimit="10"/>
<path d="M130.738 19.292C135.513 19.292 139.384 15.421 139.384 10.646C139.384 5.87094 135.513 2 130.738 2C125.963 2 122.092 5.87094 122.092 10.646C122.092 15.421 125.963 19.292 130.738 19.292Z" stroke="#FF7596" stroke-width="3" stroke-miterlimit="10"/>
<circle cx="31.2508" cy="817.669" r="22.2922" stroke="#FF7596" stroke-width="3"/>
<path d="M26.0885 1176.47C39.3922 1176.47 50.1769 1165.69 50.1769 1152.38C50.1769 1139.08 39.3922 1128.3 26.0885 1128.3C12.7848 1128.3 2 1139.08 2 1152.38C2 1165.69 12.7848 1176.47 26.0885 1176.47Z" stroke="#FF7596" stroke-width="3" stroke-miterlimit="10"/>
<path d="M67.6753 1105.65C73.4718 1105.65 78.1708 1100.95 78.1708 1095.16C78.1708 1089.36 73.4718 1084.66 67.6753 1084.66C61.8788 1084.66 57.1798 1089.36 57.1798 1095.16C57.1798 1100.95 61.8788 1105.65 67.6753 1105.65Z" stroke="#FF7596" stroke-width="3" stroke-miterlimit="10"/>
<path d="M30.4159 1078.06C35.1909 1078.06 39.0619 1074.19 39.0619 1069.42C39.0619 1064.64 35.1909 1060.77 30.4159 1060.77C25.6408 1060.77 21.7699 1064.64 21.7699 1069.42C21.7699 1074.19 25.6408 1078.06 30.4159 1078.06Z" stroke="#FF7596" stroke-width="3" stroke-miterlimit="10"/>
<path d="M47.0165 1304.84C60.4343 1304.84 71.3115 1293.97 71.3115 1280.55C71.3115 1267.13 60.4343 1256.25 47.0165 1256.25C33.5988 1256.25 22.7216 1267.13 22.7216 1280.55C22.7216 1293.97 33.5988 1304.84 47.0165 1304.84Z" stroke="#FF7596" stroke-width="3" stroke-miterlimit="10"/>
<path d="M69.1207 1379.46C79.5832 1379.46 88.0647 1370.98 88.0647 1360.52C88.0647 1350.05 79.5832 1341.57 69.1207 1341.57C58.6583 1341.57 50.1768 1350.05 50.1768 1360.52C50.1768 1370.98 58.6583 1379.46 69.1207 1379.46Z" stroke="#FF7596" stroke-width="3" stroke-miterlimit="10"/>
<path d="M43.9999 1414.04C49.9104 1414.04 54.7018 1409.25 54.7018 1403.34C54.7018 1397.43 49.9104 1392.64 43.9999 1392.64C38.0893 1392.64 33.2979 1397.43 33.2979 1403.34C33.2979 1409.25 38.0893 1414.04 43.9999 1414.04Z" stroke="#FF7596" stroke-width="3" stroke-miterlimit="10"/>
<path d="M44.2064 1479.1C54.2126 1479.1 62.3243 1470.99 62.3243 1460.98C62.3243 1450.98 54.2126 1442.86 44.2064 1442.86C34.2001 1442.86 26.0884 1450.98 26.0884 1460.98C26.0884 1470.99 34.2001 1479.1 44.2064 1479.1Z" stroke="#FF7596" stroke-width="3" stroke-miterlimit="10"/>
<path d="M79.0598 936.755C92.3635 936.755 103.148 925.97 103.148 912.667C103.148 899.363 92.3635 888.578 79.0598 888.578C65.7561 888.578 54.9713 899.363 54.9713 912.667C54.9713 925.97 65.7561 936.755 79.0598 936.755Z" stroke="#FF7596" stroke-width="3" stroke-miterlimit="10"/>
<path d="M119.821 1008.39C129.029 1008.39 136.493 1000.93 136.493 991.719C136.493 982.511 129.029 975.047 119.821 975.047C110.613 975.047 103.148 982.511 103.148 991.719C103.148 1000.93 110.613 1008.39 119.821 1008.39Z" stroke="#FF7596" stroke-width="3" stroke-miterlimit="10"/>
<path d="M94.7087 968.045C99.3697 968.045 103.148 964.266 103.148 959.605C103.148 954.944 99.3697 951.166 94.7087 951.166C90.0477 951.166 86.2692 954.944 86.2692 959.605C86.2692 964.266 90.0477 968.045 94.7087 968.045Z" stroke="#FF7596" stroke-width="3" stroke-miterlimit="10"/>
<path d="M130.738 801.292C135.513 801.292 139.384 797.421 139.384 792.646C139.384 787.871 135.513 784 130.738 784C125.963 784 122.092 787.871 122.092 792.646C122.092 797.421 125.963 801.292 130.738 801.292Z" stroke="#FF7596" stroke-width="3" stroke-miterlimit="10"/>
</svg>
