<svg width="662" height="682" viewBox="0 0 662 682" fill="none" xmlns="http://www.w3.org/2000/svg">
<path d="M660.99 163.68C660.846 160.91 659.579 158.678 657.793 156.66C654.772 153.294 651.308 150.351 647.496 147.913C646.725 147.408 645.998 146.839 645.319 146.338C645.632 144.164 646.055 142.202 646.19 140.223C647.348 122.203 646.037 104.556 638.123 87.9234C637.57 86.7664 637.513 85.8008 638.245 84.7091C642.226 78.7414 644.068 71.9387 645.65 65.0881C648.42 53.2006 648.376 41.1305 647.318 29.0691C647.022 25.6677 645.981 22.2794 644.883 19.0172C643.576 15.0678 640.706 12.5232 636.464 11.8316C634.199 11.3883 631.912 11.0733 629.612 10.8878C621.149 10.4529 612.825 11.6794 604.624 13.5889C593.734 16.1247 583.407 20.2655 573.476 25.3719C571.952 26.1549 570.706 26.3636 569.073 25.6938C566.543 24.672 563.951 23.8134 561.311 23.1232C540.717 17.5949 519.871 14.0587 498.428 15.0156C488.131 15.4766 477.843 15.9942 467.747 18.182C465.085 18.7605 462.921 18.3256 460.582 17.0555C450.073 11.3133 439.05 6.56322 427.657 2.86715C423.419 1.50573 419.133 0.666255 414.638 1.12731C410.222 1.56227 406.633 3.39343 403.884 6.9253C400.735 11.013 398.41 15.672 397.037 20.6439C392.681 35.8675 391.81 51.4303 392.899 67.1324C393.101 69.1952 392.596 71.2654 391.466 73.0043C383.578 85.7704 378.434 99.5368 376.766 114.499C376.047 120.95 375.625 127.431 375.084 133.729C371.944 135.704 368.682 137.604 365.589 139.749C363.31 141.312 361.623 143.594 360.798 146.23C360.097 148.444 360.136 150.649 361.956 152.376C363.777 154.102 365.911 155.077 368.525 154.002C370.755 153.085 373.011 152.223 375.272 151.393C376.313 150.997 377.384 150.684 378.247 150.401L386.209 173.802C384.436 175.655 382.367 177.477 380.734 179.63C379.241 181.508 378.078 183.624 377.293 185.889C376.152 189.512 378.748 192.575 382.585 192.657C385.12 192.714 387.298 191.766 389.271 190.256C391.013 188.951 392.721 187.603 394.759 186.033C398.483 192.727 403.366 198.146 408.906 203.366C405.652 204.527 402.708 205.576 399.759 206.641C393.6 208.877 387.716 211.635 382.72 215.967C372.867 224.514 364.531 234.287 358.568 245.979C355.434 252.042 352.881 258.387 350.941 264.93C350.357 266.944 349.173 267.936 347.321 268.845C338.471 273.194 329.55 277.457 320.987 282.328C311.688 287.622 303.83 294.812 297.192 303.206C295.088 305.868 292.836 306.686 289.587 306.142C286.782 305.737 283.949 305.559 281.115 305.612C276.477 305.612 272.548 307.417 269.298 310.727C264.966 315.098 262.263 320.819 261.641 326.938C260.922 333.266 263.571 337.438 269.568 339.987C269.743 340.061 269.865 340.265 270.213 340.604C268.615 344.24 268.567 348.159 269.403 352.135C265.379 353.863 261.033 354.714 256.654 354.632C247.315 354.349 237.972 353.849 228.664 353.075C217.035 352.105 205.444 350.774 193.754 352.183C182.991 353.488 172.698 356.184 163.486 362.1C159.335 364.766 155.267 367.58 151.334 370.555C143.569 376.504 135.08 381.445 126.071 385.261C122.9 386.566 119.681 387.314 116.258 387.08C111.532 386.753 106.819 386.21 102.368 384.505C97.9161 382.8 93.3383 381.055 89.0088 378.942C81.652 375.344 74.4739 371.386 67.1651 367.698C60.7968 364.421 53.9068 362.274 46.8024 361.352C39.0493 360.404 31.4487 360.673 25.0894 366.236C24.5711 366.671 23.7827 366.819 23.0945 367.08C15.8989 369.899 11.1817 375.192 8.38976 382.208C7.51863 384.361 6.6475 386.292 5.0751 388.067C1.59057 392.047 1.12887 396.975 1.3423 402.007C1.4599 404.804 2.15681 407.605 1.10274 410.38C0.965754 410.89 0.965754 411.427 1.10274 411.938C2.37895 418.231 5.24498 423.399 11.5215 425.926C12.8654 426.483 14.0088 427.434 14.8013 428.653C19.7276 435.456 24.5144 442.376 29.7499 448.935C33.4132 453.529 36.486 458.563 38.8968 463.92C39.9393 466.216 40.9455 468.526 41.9153 470.848C45.8354 480.174 50.8226 488.917 56.3761 497.35C63.759 508.572 73.6028 517.041 85.4197 523.344C92.5107 527.128 100.042 529.32 108.069 529.237C118.362 529.133 128.654 528.676 138.942 528.254C145.066 528.006 151.138 528.254 157.066 529.881C160.389 530.74 163.399 532.526 165.742 535.031C163.856 535.235 162.441 535.435 161.021 535.54C154.396 536.031 147.884 537.114 141.573 539.241C131.013 542.846 121.069 548.048 112.089 554.665C97.7462 565.135 83.6818 575.978 70.458 587.861C63.5503 594.002 56.9658 600.496 50.7312 607.317C42.2115 616.734 35.9785 627.477 34.6152 640.465C33.9314 646.933 34.0011 653.301 37.6337 659.051C48.2833 675.897 67.6355 683.691 86.1514 678.32C97.7506 674.957 107.202 668.346 114.799 659.181C119.207 653.862 122.952 647.99 127.042 642.401C130.701 637.407 134.094 632.166 138.189 627.556C150.388 613.905 164.406 601.992 179.85 592.15C183.071 590.157 186.441 588.415 189.929 586.939C193.442 585.46 197.236 584.768 201.045 584.912C202.391 587.109 203.389 589.262 204.865 591.002C206.115 592.467 207.749 593.933 209.513 594.564C212.489 595.601 215.576 596.291 218.712 596.621C228.708 597.748 238.282 600.392 247.59 604.102C260.665 609.331 274.286 613.079 288.198 615.277C295.576 616.438 302.976 617.399 310.468 617.09C316.871 616.829 323.274 616.495 329.672 616.133C337.134 615.699 344.582 615.485 352.021 616.46C359.831 617.486 367.632 618.578 375.45 619.504C388.927 621.152 402.56 621.05 416.01 619.2C439.696 615.999 462.615 608.578 483.676 597.291C502.052 587.426 518.207 574.851 530.717 558.018C545.687 537.876 558.297 516.393 567.474 492.949C573.097 478.595 579.004 464.337 584.966 450.114C586.892 445.693 589.073 441.389 591.5 437.222C592.798 435.065 594.329 433.056 596.065 431.232C599.985 426.883 604.341 422.842 608.034 418.297C620.666 402.751 630.684 385.727 635.91 366.215C639.922 351.356 641.86 336.202 642.653 320.857C643.716 301.329 641.673 281.757 636.599 262.868C632.966 249.385 628.218 236.253 623.196 223.23C621.123 217.867 618.806 212.596 616.619 207.328L626.411 194.754C627.813 196.228 628.994 197.724 630.427 198.925C633.001 201.1 636.124 200.547 638.027 197.742C638.836 196.628 639.342 195.323 639.495 193.955C639.647 192.587 639.442 191.203 638.898 189.939C637.969 187.713 636.874 185.56 635.623 183.497C634.878 182.257 634.821 181.27 635.475 180.017C637.997 175.137 639.512 169.896 640.863 164.598C641.111 163.619 641.459 162.662 641.882 161.31C644.447 163.15 646.712 164.815 649.021 166.412C650.397 167.364 651.756 168.426 653.281 169.074C657.632 170.905 661.212 168.304 660.99 163.68ZM402.673 60.1861C402.673 59.9251 402.673 59.6598 402.673 59.4162C402.664 59.6598 402.673 59.9077 402.673 60.1861Z" fill="white"/>
<path d="M264.029 505.295C263.959 506.132 263.937 506.977 263.82 507.805C263.664 508.792 263.711 509.8 263.955 510.769C264.2 511.738 264.638 512.647 265.244 513.442C266.986 515.846 268.293 518.478 268.763 521.444C269.748 527.883 267.849 533.306 262.735 537.414C259.189 540.259 255.213 540.938 250.909 539.222C247.969 538.053 245.345 536.206 243.252 533.833C242.625 533.132 242.006 532.418 241.37 531.721C240.233 530.479 238.966 530.296 237.393 530.963C235.955 531.597 234.404 531.933 232.832 531.952C231.261 531.97 229.702 531.669 228.25 531.067C226.797 530.466 225.482 529.577 224.383 528.453C223.285 527.329 222.425 525.994 221.857 524.528C220.14 520.296 220.009 515.585 221.486 511.264C221.864 509.997 222.49 508.819 223.327 507.798C224.165 506.776 225.197 505.931 226.365 505.313C228.854 503.984 231.458 502.882 234.144 502.02C236.043 501.427 237.245 500.565 237.851 498.644C239.894 492.192 244.637 489.06 251.092 488.162C255.67 487.535 261.193 490.645 262.574 495.08C263.589 498.339 263.881 501.824 264.46 505.213L264.029 505.295Z" fill="white"/>
<path d="M55.3332 430.307C51.1735 430.281 51.2998 430.307 51.0951 433.57C50.9557 435.848 50.7379 438.218 49.9931 440.348C49.3357 442.24 48.2339 443.947 46.7803 445.325C45.3266 446.702 43.5636 447.711 41.6393 448.266C39.715 448.821 37.6856 448.905 35.7217 448.513C33.7578 448.121 31.9168 447.263 30.3532 446.012C26.7118 443.171 24.6385 439.333 23.6933 434.903C23.0269 431.784 24.3336 429.031 26.2632 426.766C28.049 424.675 28.3844 422.723 27.4741 420.162C26.2196 416.637 26.7423 413.1 28.3452 409.759C30.3619 405.538 35.2316 404.2 39.2345 406.71C39.7659 407.041 40.2145 407.502 40.7154 407.877C42.6145 409.302 43.5946 409.367 45.5329 407.982C47.0704 406.888 48.4686 405.603 50.0062 404.497C52.6849 402.589 55.5118 401.125 58.9702 401.142C69.424 401.195 75.7833 411.989 70.5782 420.998C66.9978 427.206 61.4574 430.024 55.3332 430.307Z" fill="white"/>
<path d="M516.711 158L508 144C514.417 145.913 520.436 147.274 527 146.452C525.242 148.201 523.393 149.872 521.749 151.712C520.104 153.553 518.545 155.676 516.711 158Z" fill="#FFDCE9"/>
<path d="M402.658 130.18C405.563 130.524 408.495 130.716 411.369 131.264C413.138 131.604 415.542 131.927 415.608 134.27C415.673 136.614 413.36 137.372 411.483 137.973C409.278 138.646 407.041 139.206 404.779 139.65C394.587 141.802 384.948 145.644 375.239 149.277C372.787 150.197 370.326 151.098 367.917 152.122C366.218 152.836 364.868 152.397 363.64 151.216C363.073 150.729 362.691 150.062 362.558 149.327C362.425 148.591 362.548 147.833 362.908 147.178C363.661 145.705 364.406 144.098 365.578 142.996C367.372 141.235 369.404 139.735 371.615 138.539C381.337 133.595 391.595 130.415 402.658 130.18Z" fill="white"/>
<path d="M383.65 190.693C380.261 190.754 378.828 189.116 379.425 186.458C379.687 185.338 380.16 184.278 380.819 183.335C381.833 181.88 382.883 180.36 384.233 179.244C390.288 174.243 396.342 169.225 402.619 164.512C406.349 161.747 410.713 159.965 415.312 159.328C416.233 159.154 417.177 159.123 418.108 159.236C421.701 159.842 422.934 163.261 420.521 166.036C419.675 166.965 418.67 167.736 417.555 168.315C407.641 173.664 398.52 180.155 389.835 187.29C388.895 188.118 387.873 188.847 386.786 189.468C385.775 189.959 384.726 190.368 383.65 190.693Z" fill="white"/>
<path d="M619.438 138.888C621.058 139.176 622.339 139.254 623.523 139.637C632.932 142.687 641.996 146.525 649.906 152.61C652.324 154.453 654.527 156.562 656.474 158.896C657.679 160.46 658.481 162.295 658.809 164.242C659.284 166.855 657.163 168.376 654.615 167.483C653.527 167.096 652.511 166.53 651.609 165.81C642.514 158.5 632.148 153.53 621.415 149.199C619.083 148.258 616.821 147.152 614.647 145.889C611.894 144.294 611.898 141.938 614.703 140.43C616.232 139.611 618.044 139.324 619.438 138.888Z" fill="white"/>
<path d="M286.826 480.678C286.391 487.578 284.309 492.924 279.674 497.049C277.061 499.38 274.012 500.869 270.458 499.471C267.038 498.116 265.819 494.988 265.566 491.63C265.03 484.49 267.513 478.47 272.971 473.769C273.942 472.974 275.035 472.342 276.207 471.896C280.249 470.275 283.821 471.674 285.511 475.677C286.247 477.481 286.517 479.48 286.826 480.678Z" fill="white"/>
<path d="M244.036 487.122C241.858 484.534 241.314 480.931 241.396 477.259C241.51 472.38 243.165 467.998 246.623 464.46C251.083 459.891 257.748 460.936 260.771 466.638C263.754 472.245 261.772 481.145 256.654 484.9C255.992 485.395 255.222 485.728 254.407 485.871C251.127 486.32 247.856 486.668 244.036 487.122Z" fill="white"/>
<path d="M606.911 164.829C609.485 162.216 611.942 162.129 614.359 163.331C616.214 164.25 618.105 165.37 619.52 166.842C625.375 172.89 630.533 179.577 634.896 186.776C635.751 188.222 636.447 189.755 636.974 191.35C637.31 192.33 637.396 193.378 637.222 194.4C636.922 195.946 636.351 197.449 634.609 198.072C632.749 198.717 631.608 197.506 630.562 196.329C629.591 195.225 628.707 194.046 627.918 192.805C624.155 186.933 619.59 181.723 614.825 176.665C612.922 174.7 611.175 172.589 609.598 170.353C608.466 168.685 607.79 166.677 606.911 164.829Z" fill="white"/>
<path d="M34.221 401.878C33.5047 401.891 32.7887 401.837 32.0823 401.717C26.0497 400.114 21.4849 392.743 22.0903 386.632C22.7567 379.949 31.7905 376.442 37.2656 380.015C41.6214 382.855 44.7139 391.776 41.5865 396.921C39.9052 399.679 38.0845 402.271 34.221 401.878Z" fill="white"/>
<path d="M251.262 458.387C251.768 458.23 252.254 458.012 252.708 457.738C258.262 453.356 264.569 452.637 271.181 454.205C276.377 455.438 279.67 458.945 281.377 464.007C279.125 465.231 276.869 466.329 274.748 467.649C273.284 468.559 271.594 469.413 271.555 471.6C271.555 472.014 271.002 472.471 270.636 472.815C268.343 474.988 266.51 477.599 265.245 480.493C263.98 483.388 263.308 486.507 263.271 489.665C263.262 489.874 263.227 490.08 263.166 490.279C263.166 490.354 263.022 490.393 262.761 490.589L257.883 487.021C258.157 486.699 258.366 486.394 258.627 486.15C262.548 482.486 264.124 477.986 264.255 472.645C264.416 465.745 259.947 459.49 251.907 459.219L251.262 458.387Z" fill="white"/>
<path d="M242.455 488.903C239.246 491.092 236.856 494.285 235.66 497.981C235.412 498.713 234.523 499.406 233.765 499.75C231.348 500.848 228.691 500.743 226.108 501.018C224.701 501.17 223.991 500.36 223.364 499.336C221.7 496.618 221.9 493.647 222.549 490.776C223.812 485.187 227.131 480.957 231.936 477.899C232.747 477.408 233.628 477.045 234.549 476.823C237.289 476.113 239.071 477.311 239.362 480.081C239.631 483.236 240.695 486.271 242.455 488.903Z" fill="white"/>
<path d="M16.0968 425.494C12.9084 425.246 9.65036 423.939 7.45943 421.068C5.82175 418.896 4.5397 416.477 3.66125 413.902C2.4068 410.19 4.43656 406.383 7.99083 404.81C9.99881 403.939 11.5756 404.292 12.8387 406.117C14.561 408.518 16.8788 410.43 19.564 411.663C22.4823 413.083 24.5687 417.091 24.1375 420.266C23.7193 423.29 20.3175 425.638 16.0968 425.494Z" fill="white"/>
<path d="M19.7295 388.718C20.4134 395.897 24.4729 400.515 30.2355 403.529L24.756 411.183C19.037 409.785 14.4461 406.705 12.56 400.358C11.3012 396.089 13.4094 389.036 19.7295 388.718Z" fill="white"/>
<path d="M263.74 505.703C263.67 506.54 263.649 507.385 263.531 508.212C263.376 509.2 263.422 510.208 263.667 511.177C263.912 512.145 264.35 513.054 264.955 513.849C266.698 516.254 268.004 518.885 268.475 521.852C269.459 528.29 267.56 533.714 262.446 537.822C258.901 540.666 254.924 541.346 250.621 539.63C247.68 538.46 245.057 536.614 242.963 534.241C242.336 533.54 241.718 532.825 241.082 532.128C239.945 530.887 238.677 530.704 237.105 531.37C235.667 532.005 234.115 532.341 232.544 532.359C230.972 532.377 229.413 532.076 227.961 531.475C226.509 530.874 225.194 529.984 224.095 528.86C222.996 527.736 222.136 526.402 221.568 524.936C219.852 520.703 219.72 515.993 221.198 511.671C221.575 510.405 222.201 509.227 223.039 508.205C223.876 507.184 224.909 506.339 226.076 505.721C228.565 504.392 231.169 503.29 233.855 502.427C235.755 501.835 236.957 500.972 237.562 499.051C239.605 492.6 244.348 489.468 250.804 488.57C255.381 487.943 260.904 491.053 262.285 495.488C263.3 498.746 263.592 502.231 264.171 505.62L263.74 505.703Z" fill="#FFDCE9"/>
<path d="M55.0446 430.715C50.8849 430.689 51.0112 430.715 50.8065 433.978C50.6671 436.256 50.4494 438.626 49.7045 440.756C49.0471 442.648 47.9453 444.355 46.4917 445.732C45.038 447.11 43.275 448.119 41.3507 448.673C39.4264 449.228 37.3971 449.313 35.4332 448.921C33.4693 448.529 31.6282 447.671 30.0646 446.419C26.4232 443.579 24.3499 439.741 23.4047 435.311C22.7383 432.192 24.045 429.439 25.9746 427.173C27.7604 425.082 28.0958 423.131 27.1855 420.569C25.931 417.045 26.4537 413.508 28.0566 410.167C30.0733 405.945 34.943 404.608 38.9459 407.117C39.4773 407.448 39.9259 407.91 40.4269 408.285C42.3259 409.709 43.306 409.775 45.2443 408.389C46.7818 407.296 48.18 406.011 49.7176 404.904C52.3964 402.996 55.2232 401.533 58.6817 401.55C69.1354 401.602 75.4947 412.397 70.2896 421.406C66.7093 427.613 61.1688 430.432 55.0446 430.715Z" fill="#FFDCE9"/>
<path d="M286.538 481.086C286.102 487.986 284.02 493.331 279.386 497.457C276.772 499.787 273.723 501.277 270.169 499.879C266.75 498.524 265.53 495.396 265.278 492.037C264.742 484.898 267.225 478.877 272.682 474.177C273.653 473.382 274.746 472.75 275.919 472.304C279.961 470.683 283.532 472.082 285.222 476.085C285.959 477.888 286.229 479.888 286.538 481.086Z" fill="#FFDCE9"/>
<path d="M243.747 487.529C241.569 484.942 241.025 481.339 241.108 477.667C241.221 472.788 242.876 468.405 246.335 464.868C250.795 460.298 257.459 461.344 260.482 467.046C263.466 472.653 261.484 481.553 256.366 485.308C255.703 485.803 254.933 486.136 254.118 486.279C250.838 486.728 247.567 487.076 243.747 487.529Z" fill="#FFDCE9"/>
<path d="M33.9324 402.286C33.2161 402.299 32.5001 402.245 31.7938 402.125C25.7611 400.522 21.1963 393.151 21.8017 387.039C22.4682 380.357 31.5019 376.85 36.9771 380.422C41.3328 383.262 44.4253 392.184 41.2979 397.329C39.6166 400.086 37.7959 402.678 33.9324 402.286Z" fill="#FFDCE9"/>
<path d="M242.166 489.311C238.957 491.499 236.567 494.693 235.371 498.389C235.123 499.121 234.235 499.813 233.477 500.158C231.059 501.255 228.402 501.151 225.819 501.425C224.412 501.578 223.702 500.767 223.075 499.744C221.411 497.025 221.612 494.054 222.261 491.184C223.524 485.595 226.843 481.365 231.647 478.307C232.458 477.816 233.339 477.453 234.261 477.231C237 476.521 238.782 477.719 239.074 480.489C239.343 483.644 240.407 486.679 242.166 489.311Z" fill="#FFDCE9"/>
<path d="M15.8082 425.902C12.6199 425.653 9.36178 424.346 7.17086 421.476C5.53318 419.303 4.25113 416.884 3.37267 414.31C2.11823 410.598 4.14799 406.791 7.70225 405.218C9.71024 404.347 11.287 404.7 12.5502 406.525C14.2724 408.926 16.5902 410.837 19.2754 412.07C22.1937 413.491 24.2801 417.498 23.8489 420.674C23.4307 423.697 20.0289 426.045 15.8082 425.902Z" fill="#FFDCE9"/>
<path d="M19.441 389.126C20.1248 396.305 24.1843 400.923 29.947 403.937L24.4675 411.591C18.7484 410.193 14.1575 407.113 12.2715 400.766C11.0127 396.497 13.1208 389.444 19.441 389.126Z" fill="#FFDCE9"/>
<path d="M408.887 203.652C403.346 198.425 398.463 192.997 394.739 186.293C392.701 187.865 390.976 189.198 389.251 190.523C387.278 192.034 385.1 192.984 382.565 192.927C378.728 192.844 376.132 189.778 377.273 186.149C378.058 183.88 379.221 181.76 380.714 179.88C382.347 177.702 384.416 175.899 386.189 174.043L378.227 150.615C377.356 150.898 376.293 151.212 375.252 151.608C372.991 152.48 370.735 153.32 368.505 154.222C365.891 155.298 363.783 154.344 361.936 152.593C360.09 150.842 360.077 148.672 360.778 146.437C361.603 143.798 363.29 141.512 365.569 139.947C368.662 137.799 371.924 135.895 375.065 133.918C375.605 127.61 376.027 121.119 376.746 114.659C378.414 99.6819 383.558 85.9075 391.446 73.1002C392.576 71.3586 393.081 69.2853 392.879 67.2193C391.79 51.4932 392.662 35.911 397.017 20.6598C398.39 15.6802 400.715 11.0142 403.865 6.92021C406.613 3.38294 410.202 1.55334 414.619 1.11336C419.114 0.677736 423.4 1.50542 427.638 2.85585C439.031 6.55757 450.054 11.3149 460.563 17.0659C462.902 18.3379 465.067 18.7735 467.728 18.1942C477.825 16.016 488.113 15.4846 498.41 15.0228C519.853 14.0644 540.699 17.6061 561.293 23.1428C563.933 23.8341 566.526 24.694 569.055 25.7174C570.688 26.3882 571.934 26.1791 573.459 25.395C583.39 20.2808 593.713 16.1336 604.606 13.5939C612.808 11.6816 621.132 10.4705 629.595 10.8887C631.895 11.0745 634.182 11.3901 636.447 11.8341C640.689 12.5267 643.538 15.0751 644.866 19.0305C645.964 22.2977 647.005 25.6912 647.301 29.0978C648.36 41.1777 648.403 53.2662 645.633 65.1718C644.039 72.0329 642.196 78.846 638.228 84.8228C637.496 85.9162 637.553 86.8833 638.106 88.042C646.021 104.692 647.332 122.374 646.173 140.421C646.047 142.404 645.624 144.373 645.302 146.546C645.994 147.047 646.722 147.618 647.48 148.123C651.292 150.565 654.755 153.512 657.777 156.884C659.562 158.905 660.826 161.14 660.974 163.915C661.213 168.545 657.615 171.15 653.299 169.308C651.774 168.659 650.416 167.596 649.039 166.642C646.731 165.043 644.466 163.374 641.9 161.532C641.464 162.887 641.129 163.845 640.881 164.825C639.531 170.131 638.015 175.38 635.493 180.268C634.839 181.527 634.896 182.516 635.641 183.753C636.892 185.819 637.987 187.975 638.916 190.205C639.46 191.471 639.665 192.857 639.513 194.227C639.36 195.597 638.854 196.904 638.045 198.02C636.142 200.829 633.019 201.361 630.445 199.205C629.011 198.002 627.831 196.504 626.429 195.027L616.637 207.621C618.815 212.896 621.141 218.176 623.214 223.547C628.236 236.59 632.984 249.733 636.617 263.246C641.691 282.163 643.734 301.765 642.671 321.323C641.878 336.709 639.94 351.869 635.928 366.75C630.662 386.292 620.683 403.342 608.052 418.911C604.354 423.464 600.02 427.498 596.082 431.867C594.346 433.694 592.816 435.705 591.517 437.865C589.091 442.039 586.909 446.35 584.984 450.777C579.021 465.022 573.115 479.298 567.491 493.677C558.314 517.158 545.713 538.673 530.733 558.847C518.224 575.706 502.068 588.299 483.692 598.179C462.631 609.484 439.712 616.916 416.026 620.122C402.575 621.974 388.942 622.077 375.465 620.427C367.647 619.486 359.846 618.392 352.036 617.377C344.596 616.401 337.148 616.632 329.687 617.05C323.288 617.412 316.885 617.747 310.482 618.009C302.99 618.318 295.59 617.355 288.212 616.192C274.3 613.991 260.679 610.237 247.603 605.001C238.295 601.285 228.721 598.637 218.725 597.508C215.589 597.178 212.502 596.487 209.525 595.448C207.783 594.816 206.128 593.348 204.878 591.88C203.401 590.138 202.404 587.999 201.058 585.781C197.249 585.637 193.455 586.33 189.942 587.811C186.457 589.274 183.09 591.004 179.872 592.987C164.427 602.844 150.409 614.775 138.209 628.446C134.115 633.064 130.722 638.313 127.063 643.314C122.973 648.912 119.223 654.793 114.819 660.121C107.223 669.299 97.7709 675.921 86.1716 679.288C67.6554 684.668 48.303 676.862 37.6533 659.99C34.0206 654.231 33.9509 647.853 34.6348 641.376C36.0025 628.368 42.2355 617.608 50.7509 608.177C56.9856 601.345 63.5702 594.841 70.478 588.691C83.7019 576.807 97.7665 565.93 112.11 555.445C121.086 548.829 131.024 543.63 141.576 540.028C147.888 537.898 154.4 536.813 161.025 536.321C162.445 536.216 163.86 536.016 165.746 535.811C163.403 533.302 160.393 531.513 157.07 530.653C151.133 529.007 145.07 528.776 138.945 529.024C128.657 529.46 118.365 529.895 108.072 530.008C100.058 530.091 92.5266 527.896 85.4224 524.106C73.6054 517.794 63.7614 509.295 56.3785 498.073C50.825 489.626 45.8377 480.87 41.9175 471.53C40.9418 469.207 39.9357 466.894 38.899 464.591C36.4882 459.226 33.4153 454.185 29.752 449.584C24.5251 443.014 19.7338 436.079 14.8032 429.271C14.0106 428.05 12.8672 427.098 11.5233 426.539C5.24673 424.008 2.37632 418.833 1.10445 412.529C0.967463 412.019 0.967463 411.481 1.10445 410.97C2.15853 408.191 1.46162 405.385 1.34401 402.584C1.13058 397.544 1.601 392.608 5.07686 388.622C6.6275 386.845 7.53784 384.911 8.39156 382.755C11.1836 375.728 15.9008 370.426 23.0965 367.604C23.7716 367.342 24.573 367.212 25.0914 366.759C31.4507 361.187 39.0515 360.917 46.8046 361.866C53.9091 362.79 60.7992 364.94 67.1676 368.222C74.4765 371.916 81.6547 375.885 89.0115 379.483C93.3411 381.6 97.8667 383.325 102.371 385.055C106.874 386.784 111.518 387.307 116.261 387.634C119.684 387.869 122.903 387.141 126.074 385.813C135.084 381.99 143.572 377.042 151.337 371.084C155.258 368.105 159.339 365.286 163.49 362.616C172.702 356.691 182.995 353.986 193.758 352.683C205.449 351.272 217.039 352.605 228.669 353.577C237.977 354.352 247.32 354.853 256.659 355.136C261.038 355.219 265.384 354.366 269.408 352.636C268.572 348.654 268.62 344.729 270.218 341.087C269.87 340.747 269.748 340.543 269.573 340.469C263.576 337.933 260.927 333.756 261.646 327.4C262.268 321.272 264.971 315.542 269.303 311.164C272.553 307.849 276.482 306.046 281.12 306.041C283.954 305.989 286.787 306.167 289.592 306.573C292.829 307.1 295.094 306.298 297.197 303.632C303.836 295.22 311.693 288.02 320.993 282.722C329.556 277.839 338.477 273.574 347.327 269.218C349.178 268.303 350.376 267.31 350.947 265.297C352.887 258.745 355.44 252.39 358.574 246.317C364.537 234.616 372.874 224.828 382.726 216.259C387.722 211.903 393.616 209.159 399.766 206.919C402.688 205.865 405.633 204.815 408.887 203.652ZM642.823 145.279C643.053 144.974 643.243 144.642 643.39 144.29C643.56 143.466 643.682 142.634 643.786 141.802C644.744 134.04 644.479 126.29 643.83 118.514C643.037 108.218 640.399 98.1487 636.042 88.7869C635.332 87.271 634.469 85.8291 633.737 84.3262C633.646 84.1345 633.916 83.7686 634.068 83.333L636.377 83.6945C636.913 82.8233 637.553 81.8518 638.067 80.8412C640.798 75.4612 642.392 69.6892 643.729 63.8518C645.994 54.0198 645.851 44.0179 645.555 34.0291C645.489 29.3943 644.665 24.8017 643.115 20.4333C641.761 16.761 639.356 14.2866 635.401 13.8989C631.133 13.4633 626.807 13.0277 622.539 13.2455C605.66 14.1167 590.067 19.5446 575.109 27.0809C574.887 27.1941 574.748 27.4642 574.53 27.6951C575.933 29.2067 578.45 28.9758 579.321 31.1234C578.015 32.5915 576.908 31.4894 575.893 31.0059C569.255 27.8352 562.275 25.4338 555.091 23.8485C549.96 22.7377 544.859 21.4744 539.702 20.5116C528.325 18.3902 516.878 16.7609 505.261 17.1443C497.072 17.4144 488.879 17.7716 480.717 18.4512C474.127 18.9957 467.58 20.063 461.247 22.1148C459.57 22.6593 457.923 23.2822 455.558 24.1186C455.863 20.6336 459.008 21.2043 460.397 19.684C459.683 19.2483 459.012 18.743 458.289 18.3771C448.459 13.1396 438.206 8.73882 427.638 5.22126C425.346 4.45894 422.999 3.87635 420.617 3.47877C413.556 2.33308 407.589 4.11478 403.956 10.7232C402.092 14.1123 400.254 17.6235 399.165 21.3089C395.018 35.4754 394.047 50.0208 394.809 64.7101C394.839 65.3417 395.14 65.9647 395.38 66.8228C397.361 64.3833 399.034 62.2314 400.833 60.1926C401.203 59.757 402.048 59.757 402.675 59.5784C402.614 60.2275 402.78 61.0421 402.449 61.5038C401.168 63.2942 399.674 64.9365 398.363 66.7313C384.225 85.8291 377.926 107.48 377.565 131.038C377.595 131.782 377.668 132.524 377.782 133.26C380.265 132.463 382.439 131.731 384.638 131.082C392.884 128.612 401.277 127.514 409.845 128.821C411.82 129.112 413.734 129.729 415.507 130.646C418.482 132.219 418.839 135.381 416.409 137.716C415.41 138.643 414.242 139.368 412.968 139.851C411.2 140.519 409.377 141.031 407.519 141.38C399.134 143.018 391.102 145.793 383.127 148.785C382.369 149.069 381.659 149.469 380.818 149.87C382.561 157.755 384.847 165.239 388.502 172.597L394.282 167.922C398.786 164.267 403.451 160.809 409.004 158.944C411.693 158.078 414.468 157.506 417.28 157.237C419.976 156.945 422.285 157.999 423.426 160.678C424.532 163.261 423.718 166.459 421.435 168.415C420.329 169.36 419.005 170.057 417.777 170.858C411.435 174.971 405.093 179.086 398.751 183.204C397.915 183.832 397.114 184.506 396.351 185.221C398.49 188.222 400.424 191.211 402.632 193.977C408.895 201.818 416.94 207.534 425.36 212.787C426.231 213.323 428.121 213.523 427.272 215.031C426.501 216.394 425.16 215.188 424.297 214.634C420.852 212.417 417.328 210.278 414.148 207.712C412.049 206.039 410.023 205.774 407.715 206.571C404.139 207.804 400.58 209.076 397.065 210.461C392.332 212.245 387.941 214.831 384.085 218.106C374.503 226.47 366.344 236.019 360.521 247.428C357.419 253.518 354.864 259.871 352.885 266.413C352.284 268.386 351.4 269.928 349.322 270.882C342.736 273.897 336.203 277.037 329.722 280.305C319.639 285.359 310.548 292.188 302.886 300.465C301.035 302.473 299.253 304.556 297.515 306.664C295.777 308.773 293.769 309.483 291.099 309.034C288.606 308.652 286.093 308.408 283.573 308.302C277.989 307.971 273.193 309.67 269.634 314.153C265.788 318.988 263.362 324.364 263.941 330.706C264.377 335.498 266.908 338.012 271.538 338.36C272.004 337.715 272.474 337.018 272.993 336.365C275.808 332.798 279.489 330.012 283.686 328.271C284.557 327.896 285.829 326.964 286.461 328.271C287.171 329.757 285.55 329.787 284.675 330.192C284.381 330.313 284.099 330.459 283.83 330.628C281.264 332.431 278.411 333.952 276.212 336.13C272.492 339.811 270.392 344.407 271.146 349.817C272.095 356.578 278.18 362.542 284.945 363.666C289.684 364.454 293.896 363.23 297.663 360.35C298.135 360.029 298.532 359.609 298.827 359.119C299.122 358.63 299.307 358.082 299.371 357.515C300.381 349.643 304.933 343.853 310.639 338.783C311.086 338.336 311.641 338.013 312.251 337.846C312.834 337.742 313.483 338.025 314.52 338.208C313.854 338.983 313.605 339.449 313.213 339.706C308.383 342.886 305.277 347.469 302.89 352.57C300.908 356.791 300.813 361.108 303.099 365.312C306.148 370.975 311.044 374.221 317.229 375.379C319.196 375.725 321.221 375.49 323.057 374.704C325.591 373.463 327.953 371.898 330.083 370.047C331.529 368.849 332.744 368.449 334.613 368.867C344.788 371.167 354.989 371.738 365.155 368.745C368.879 367.647 372.586 366.488 376.293 365.334C377.347 365.003 378.427 364.31 379.377 366.131C378.589 366.605 377.771 367.027 376.929 367.395C374.751 368.187 372.573 368.884 370.369 369.621C359.044 373.45 347.506 373.946 335.863 371.407C333.594 370.91 332.047 371.154 330.283 372.835C326.193 376.73 321.237 378.777 315.557 377.305C308.588 375.501 303.265 371.498 300.394 364.672C300.05 363.849 299.676 363.038 299.258 362.093C294.118 365.578 288.804 367.146 282.924 365.473C277.17 363.84 273.132 360.015 270.488 355.428C265.832 356.121 261.62 357.088 257.364 357.314C246.95 357.867 236.588 356.879 226.234 355.746C216.098 354.639 205.954 353.712 195.744 354.779C183.426 356.06 171.835 359.357 161.573 366.541C158.045 369.011 154.521 371.494 151.094 374.107C143.7 379.677 135.644 384.308 127.111 387.895C123.574 389.407 119.937 390.387 116.082 389.942C112.441 389.507 108.76 389.123 105.193 388.27C96.8518 386.27 89.2685 382.384 81.7375 378.394C76.4453 375.593 71.1662 372.766 65.7956 370.117C58.908 366.697 51.4563 364.556 43.8035 363.801C38.7814 363.313 33.9466 364.066 29.4297 366.445C25.0478 368.762 21.5458 375.549 22.0729 380.768C22.8613 380.141 23.5625 379.522 24.3161 378.991C30.4141 374.682 38.128 375.876 42.0351 381.984C46.1861 388.474 46.9527 397.535 38.8772 403.255C38.7177 403.385 38.5718 403.531 38.4417 403.691L43.185 406.958C45.6112 405.185 47.8761 403.312 50.3458 401.757C58.3429 396.721 67.7687 399.034 72.7342 407.123C74.8293 410.543 75.3868 414.224 74.1934 418.014C72.0155 424.914 67.5335 429.623 60.5164 431.623C58.2384 432.276 55.821 432.42 53.3208 432.816C53.2903 438.092 52.4932 443.158 48.3466 446.918C44.1999 450.677 39.3563 451.775 33.3368 450.533C38.2805 457.346 41.238 464.308 44.1694 471.273C47.8892 480.13 52.6456 488.411 57.8551 496.452C65.6649 508.506 76.2144 517.458 89.164 523.522C92.5992 525.083 96.1994 526.252 99.8965 527.007C107.571 528.662 115.377 528.079 123.147 527.761C130.813 527.447 138.479 527.007 146.145 527.011C154.421 527.011 162.231 528.793 168.36 535.027C168.909 535.487 169.608 535.729 170.324 535.706C173.478 535.706 176.627 535.554 179.776 535.48C180.813 535.454 182.459 534.517 182.577 536.268C182.677 537.802 180.913 537.575 179.854 537.61C175.551 537.837 171.245 538.002 166.935 538.107C153.929 538.425 141.48 541.065 129.981 547.311C124.45 550.313 118.848 553.327 113.787 557.03C96.2202 569.881 79.0413 583.246 63.2213 598.258C57.4979 603.694 52.001 609.353 47.4188 615.818C41.5516 624.094 37.4616 633.016 36.6079 643.336C35.9937 650.742 37.5008 657.32 42.4663 662.939C43.8133 664.554 45.2409 666.099 46.7436 667.57C55.246 675.441 65.2859 679.519 76.8983 678.709C87.487 677.972 96.7429 673.616 104.906 666.895C111.387 661.562 116.557 655.089 121.226 648.163C124.467 643.371 127.581 638.496 130.975 633.818C138.314 623.698 147.483 615.33 156.965 607.293C164.827 600.623 172.946 594.289 181.928 589.153C187.377 586.034 193.109 583.821 199.468 583.564C199.716 583.564 199.96 583.32 200.278 583.155C200.034 582.283 199.812 581.46 199.594 580.658C198.013 574.817 197.356 568.927 198.205 562.872C199.473 553.85 202.095 545.229 205.61 536.883C210.484 525.369 215.458 513.899 220.445 502.438C220.747 501.838 220.917 501.18 220.943 500.509C220.969 499.838 220.852 499.169 220.598 498.548C219.727 496.256 219.727 493.852 220.162 491.404C221.014 486.601 223.418 482.211 227.005 478.906C230.42 475.699 234.1 473.277 239.009 474.985C239.88 472.511 240.46 470.141 241.523 468.015C242.661 465.885 243.992 463.864 245.499 461.977C251.641 453.87 259.573 449.849 269.891 451.601C275.528 452.555 279.788 455.486 282.384 460.679C282.845 461.598 283.359 462.491 283.851 463.402C289.27 462.879 294.053 464.129 298.103 467.575C304.502 473.02 309.163 479.659 311.332 487.858C314.381 499.314 311.963 510.14 307.351 520.686C307.268 520.878 307.189 521.122 307.033 521.218C306.597 521.444 306.074 521.828 305.726 521.71C305.534 521.575 305.38 521.393 305.279 521.182C305.177 520.971 305.132 520.737 305.147 520.503C305.397 519.593 305.723 518.706 306.122 517.85C308.209 512.775 309.768 507.57 310.282 502.063C311.541 488.502 306.553 477.546 296.261 468.956C290.564 464.208 283.433 464.347 277.47 468.799C285.485 469.526 288.795 473.255 288.752 481.537C288.781 484.543 288.201 487.525 287.048 490.302C285.894 493.079 284.191 495.593 282.039 497.694C280.615 499.086 278.971 500.234 277.174 501.092C273.933 502.669 270.671 502.529 267.631 500.36C267.152 500.069 266.651 499.817 266.132 499.606C266.132 501.1 266.311 502.39 266.102 503.614C265.348 507.97 266.707 511.612 268.885 515.446C273.463 523.496 271.185 533.498 264.146 539.035C259.79 542.454 255.025 543.108 249.912 541.121C246.781 539.903 243.986 537.955 241.758 535.441C240.926 534.508 240.076 533.598 239.297 532.744C234.902 534.517 233.687 534.713 230.886 534.129C223.756 532.653 219.126 527.434 218.572 520.081C218.402 517.824 218.546 515.546 218.546 513.281C217.909 513.681 217.427 514.286 217.178 514.997C213.454 523.914 209.682 532.814 206.05 541.77C204.859 544.802 203.827 547.893 202.957 551.032C200.953 557.932 199.581 564.924 200.209 572.172C200.687 577.953 202.395 583.564 205.218 588.63C206.773 591.431 208.916 593.383 212.235 593.928C214.822 594.363 217.34 595.295 219.931 595.548C230.294 596.55 239.998 599.865 249.703 603.389C256.998 606.029 264.373 608.53 271.856 610.56C283.229 613.653 294.845 615.717 306.662 615.848C313.692 615.931 320.731 615.325 327.761 614.977C335.641 614.602 343.507 614.188 351.374 615.186C360.752 616.38 370.103 617.66 379.525 618.64C390.93 619.833 402.435 619.696 413.809 618.231C436.475 615.372 458.476 608.614 478.839 598.258C498.993 588.003 516.595 574.616 530.01 556.203C544.358 536.504 556.685 515.646 565.449 492.806C572.374 474.758 579.387 456.745 587.95 439.381C588.02 439.242 587.911 439.015 587.898 438.907C582.88 441.625 577.88 444.43 572.801 447.066C548.647 459.606 523.024 464.514 495.931 461.79C494.918 461.695 493.897 461.871 492.974 462.299C488.396 464.53 483.596 466.22 478.569 466.656C467.95 467.64 457.997 466.081 450.105 457.564H447.461C440.84 457.564 434.829 455.512 429.415 451.845C424.794 448.717 421.549 444.478 420.743 438.85C420.347 436.092 420.673 433.23 420.673 430.024C420.429 429.789 419.802 429.24 419.236 428.621C415.751 424.727 413.425 420.205 413.669 414.939C414.283 401.643 427.773 390.26 441.267 394.368C442.461 394.734 443.658 395.091 444.564 395.366C446.903 393.214 448.951 391.11 451.224 389.289C464.422 378.725 479.349 371.825 495.888 368.379C496.951 368.157 498.24 367.699 498.858 366.907C502.896 361.749 508.153 358.081 513.624 354.709C517.283 352.466 521.221 350.667 525.054 348.706C526.025 348.21 527.096 347.565 528.416 349.142C527.458 349.772 526.468 350.354 525.45 350.884C518.916 353.864 512.692 357.353 507.13 361.906C504.939 363.702 502.907 365.684 501.058 367.83C499.952 369.218 498.373 370.148 496.624 370.444C487.017 372.312 477.746 375.614 469.122 380.241C460.384 384.841 451.982 389.942 445.727 398.102C444.12 397.566 442.452 396.956 440.749 396.459C437.896 395.627 435.03 395.309 432.037 396.024C425.839 397.535 421.314 401.138 418.251 406.666C414.519 413.405 415.202 420.471 420.159 426.326C420.741 426.917 421.366 427.464 422.028 427.964L423.191 426.134C425.621 422.344 429.332 420.166 433.209 418.258C433.61 418.058 434.289 418.423 434.842 418.524C434.62 419.046 434.546 419.774 434.154 420.053C432.961 420.898 431.628 421.547 430.369 422.309C427.22 424.222 424.776 426.757 423.583 430.316C421.405 436.85 422.842 442.557 427.59 447.427C431.702 451.649 436.942 453.748 442.596 454.894C444.482 455.277 446.433 455.356 448.301 455.565C448.415 455.059 448.489 454.937 448.454 454.859C448.206 454.28 447.97 453.696 447.674 453.143C446.418 450.873 445.712 448.341 445.611 445.749C445.511 443.157 446.019 440.578 447.095 438.218C448.458 435.09 450.671 432.324 452.614 429.471C452.892 429.061 453.803 429.083 454.421 428.9C454.356 429.549 454.508 430.333 454.195 430.817C453.054 432.581 451.581 434.15 450.553 435.957C447.204 441.769 446.912 447.606 450.375 453.587C453.237 458.531 457.444 461.511 462.789 463.123C471.5 465.737 480.116 465.331 488.365 461.724C492.166 460.028 496.357 459.4 500.487 459.908C512.81 461.18 525.023 459.886 537.154 457.516C554.093 454.21 569.56 447.231 584.139 438.284C592.794 432.969 599.898 425.742 606.249 417.809C619.316 401.456 629.626 383.682 634.661 363.143C637.684 351.003 639.559 338.606 640.262 326.115C641.042 311.382 641.133 296.684 638.52 282.091C634.19 257.722 625.631 234.703 616.053 212.016C615.637 211.159 615.177 210.323 614.677 209.511C613.984 210.095 613.501 210.492 613.039 210.905C605.719 217.409 597.408 222.703 588.421 226.588C587.51 226.989 586.578 227.76 585.372 226.444C585.807 225.969 586.173 225.342 586.713 225.05C588.281 224.205 589.932 223.508 591.531 222.72C603.727 216.717 614.124 208.57 621.955 197.34C623.022 195.807 624.007 194.212 625.174 192.431C623.075 189.738 621.171 187.107 619.076 184.642C615.735 180.721 612.181 176.988 608.884 173.032C607.626 171.487 606.61 169.759 605.87 167.909C604.219 163.867 604.855 161.693 610.386 160.443C611.445 160.203 612.691 160.486 613.788 160.765C616.858 161.589 619.597 163.344 621.629 165.788C624.991 169.708 628.188 173.725 631.464 177.698C632.013 178.364 632.609 179.005 633.319 179.784C636.551 173.372 638.294 166.938 639.653 160.273C637.91 159.301 636.377 158.339 634.765 157.602C629.704 155.289 624.582 153.111 619.52 150.772C617.016 149.693 614.607 148.403 612.32 146.917C609.759 145.174 609.568 142.399 611.706 140.134C612.725 139.084 613.954 138.26 615.313 137.716C617.791 136.723 620.47 136.383 623.035 137.281C627.97 139.023 632.858 140.949 637.736 142.865C639.465 143.567 641.12 144.455 642.823 145.257V145.279ZM264.029 505.296L264.464 505.213C263.863 501.824 263.593 498.339 262.578 495.08C261.197 490.646 255.674 487.535 251.096 488.163C244.641 489.034 239.898 492.192 237.855 498.644C237.25 500.565 236.047 501.427 234.148 502.02C231.462 502.882 228.858 503.984 226.369 505.313C225.202 505.931 224.169 506.776 223.332 507.798C222.494 508.819 221.868 509.998 221.491 511.264C220.013 515.586 220.145 520.296 221.861 524.528C222.429 525.994 223.289 527.33 224.388 528.454C225.487 529.578 226.803 530.468 228.256 531.07C229.708 531.671 231.268 531.972 232.84 531.953C234.412 531.935 235.964 531.598 237.402 530.963C238.975 530.296 240.242 530.479 241.379 531.721C242.015 532.418 242.633 533.132 243.261 533.833C245.35 536.205 247.969 538.051 250.905 539.222C255.208 540.938 259.181 540.259 262.731 537.414C267.844 533.306 269.743 527.883 268.759 521.444C268.323 518.478 266.977 515.846 265.239 513.442C264.634 512.647 264.196 511.738 263.951 510.769C263.706 509.8 263.66 508.792 263.815 507.805C263.937 506.977 263.972 506.132 264.029 505.296ZM55.3331 430.307C61.4311 430.024 66.9847 427.206 70.5781 421.02C75.7832 412.011 69.4326 401.216 58.9701 401.164C55.5117 401.164 52.6848 402.61 50.0061 404.518C48.4685 405.612 47.0703 406.897 45.5328 408.003C43.5945 409.389 42.6144 409.31 40.7153 407.899C40.2144 407.524 39.7658 407.062 39.2344 406.731C35.2446 404.209 30.3749 405.546 28.3451 409.781C26.7466 413.122 26.2239 416.659 27.474 420.183C28.3843 422.745 28.0489 424.696 26.2631 426.787C24.3335 429.053 23.0268 431.806 23.6932 434.925C24.6384 439.355 26.7117 443.202 30.3531 446.033C31.9167 447.285 33.7577 448.143 35.7216 448.535C37.6855 448.927 39.7149 448.842 41.6392 448.288C43.5635 447.733 45.3265 446.724 46.7802 445.346C48.2338 443.969 49.3356 442.262 49.993 440.37C50.7378 438.24 50.9556 435.87 51.095 433.592C51.3128 430.285 51.1865 430.286 55.3331 430.307ZM402.645 130.163C391.564 130.398 381.324 133.578 371.593 138.522C369.382 139.718 367.35 141.218 365.556 142.979C364.384 144.081 363.639 145.688 362.886 147.161C362.527 147.816 362.403 148.574 362.536 149.309C362.669 150.045 363.051 150.712 363.618 151.199C364.829 152.379 366.196 152.819 367.895 152.105C370.304 151.081 372.765 150.179 375.217 149.26C384.926 145.627 394.565 141.785 404.757 139.633C407.019 139.189 409.257 138.629 411.461 137.956C413.338 137.355 415.651 136.649 415.586 134.253C415.52 131.857 413.116 131.587 411.348 131.247C408.495 130.716 405.563 130.524 402.658 130.18L402.645 130.163ZM383.65 190.692C384.724 190.376 385.771 189.976 386.781 189.494C387.869 188.873 388.89 188.144 389.83 187.316C398.516 180.181 407.637 173.69 417.55 168.341C418.666 167.762 419.67 166.991 420.516 166.062C422.93 163.287 421.697 159.868 418.103 159.262C417.172 159.149 416.229 159.18 415.307 159.354C410.709 159.989 406.345 161.77 402.614 164.533C396.338 169.247 390.283 174.265 384.229 179.266C382.879 180.381 381.829 181.88 380.814 183.357C380.155 184.3 379.682 185.36 379.42 186.48C378.828 189.12 380.27 190.758 383.65 190.692ZM619.438 138.884C618.044 139.319 616.232 139.607 614.703 140.426C611.898 141.933 611.893 144.29 614.646 145.884C616.821 147.147 619.083 148.254 621.415 149.195C632.148 153.525 642.514 158.495 651.609 165.805C652.511 166.526 653.527 167.091 654.614 167.478C657.162 168.349 659.284 166.846 658.809 164.237C658.48 162.291 657.679 160.455 656.474 158.892C654.527 156.557 652.324 154.449 649.906 152.606C641.996 146.507 632.919 142.695 623.523 139.633C622.339 139.254 621.058 139.176 619.438 138.888V138.884ZM286.826 480.674C286.517 479.476 286.247 477.477 285.494 475.677C283.804 471.674 280.232 470.276 276.19 471.896C275.017 472.342 273.924 472.975 272.953 473.77C267.513 478.466 265.03 484.486 265.549 491.63C265.801 494.989 267.021 498.117 270.44 499.471C273.973 500.87 277.039 499.38 279.657 497.049C284.309 492.924 286.395 487.579 286.826 480.678V480.674ZM244.036 487.117C247.834 486.681 251.127 486.315 254.407 485.845C255.222 485.701 255.991 485.369 256.654 484.874C261.772 481.118 263.754 472.219 260.771 466.612C257.748 460.949 251.083 459.886 246.623 464.434C243.165 467.971 241.51 472.354 241.396 477.233C241.322 480.931 241.867 484.534 244.036 487.121V487.117ZM606.911 164.825C607.782 166.672 608.466 168.68 609.62 170.362C611.196 172.598 612.944 174.708 614.847 176.674C619.612 181.732 624.177 186.942 627.94 192.814C628.729 194.055 629.613 195.233 630.584 196.338C631.629 197.523 632.762 198.734 634.63 198.081C636.373 197.479 636.939 195.955 637.244 194.408C637.417 193.387 637.332 192.339 636.996 191.359C636.469 189.764 635.773 188.231 634.918 186.785C630.555 179.586 625.397 172.899 619.542 166.851C618.127 165.378 616.236 164.237 614.381 163.34C611.941 162.129 609.485 162.207 606.911 164.829V164.825ZM34.221 401.879C38.0845 402.271 39.8834 399.7 41.5865 396.921C44.7139 391.794 41.617 382.855 37.2656 380.015C31.7905 376.442 22.7567 379.949 22.0903 386.632C21.4848 392.73 26.0496 400.136 32.0823 401.717C32.7887 401.837 33.5046 401.891 34.221 401.879ZM251.262 458.388L251.907 459.207C259.947 459.477 264.416 465.741 264.255 472.632C264.124 477.982 262.535 482.482 258.628 486.137C258.366 486.385 258.157 486.69 257.883 487.008L262.761 490.576C263.022 490.38 263.144 490.341 263.166 490.267C263.227 490.067 263.262 489.861 263.271 489.652C263.309 486.494 263.98 483.375 265.245 480.48C266.51 477.586 268.344 474.975 270.636 472.802C271.002 472.445 271.547 472.001 271.555 471.587C271.594 469.409 273.298 468.538 274.748 467.636C276.869 466.329 279.104 465.218 281.377 463.994C279.67 458.932 276.377 455.425 271.181 454.193C264.569 452.624 258.262 453.343 252.708 457.725C252.255 458.004 251.769 458.226 251.262 458.388ZM242.455 488.881C240.686 486.252 239.613 483.217 239.336 480.06C239.044 477.289 237.263 476.091 234.523 476.801C233.602 477.024 232.72 477.387 231.91 477.877C227.118 480.927 223.786 485.165 222.523 490.754C221.874 493.625 221.652 496.596 223.337 499.314C223.965 500.338 224.675 501.148 226.082 500.996C228.665 500.722 231.308 500.826 233.739 499.728C234.497 499.384 235.385 498.692 235.634 497.96C236.841 494.268 239.24 491.082 242.455 488.903V488.881ZM16.0968 425.494C20.3175 425.65 23.7193 423.316 24.1375 420.266C24.573 417.09 22.4823 413.083 19.564 411.663C16.8788 410.43 14.561 408.518 12.8387 406.117C11.5756 404.301 9.99882 403.939 7.99084 404.81C4.43657 406.383 2.40681 410.19 3.66125 413.902C4.53971 416.477 5.82176 418.895 7.45944 421.068C9.65036 423.925 12.9084 425.232 16.0968 425.494ZM19.7295 388.731C13.4093 389.049 11.3012 396.102 12.5643 400.371C14.446 406.718 19.0369 409.798 24.7603 411.197L30.2398 403.538C24.4729 400.515 20.4133 395.897 19.7295 388.718V388.731ZM10.1992 395.105C11.5059 390.043 14.4939 387.237 18.5186 386.392L21.3585 371.093C12.7952 374.748 7.26343 386.07 10.1992 395.091V395.105ZM6.48376 390.208C3.48702 394.765 2.99918 399.417 3.69174 404.584L9.61552 401.752L6.48376 390.208ZM20.8271 433.862C21.8899 430.917 22.8613 428.199 23.7716 425.681L16.8025 428.295L20.8271 433.862ZM221.286 506.52C222.54 505.326 223.403 504.498 224.296 503.645C222.553 502.664 222.553 502.664 221.286 506.52Z" fill="#FF7596" stroke="#FF7596"/>
<path d="M10.1993 395.091C7.26359 386.07 12.8128 374.748 21.3718 371.093L18.5188 386.366C14.4941 387.224 11.4886 390.029 10.1993 395.091Z" fill="white"/>
<path d="M6.48389 390.208L9.59823 401.735L3.67445 404.566C3.0211 399.421 3.50022 394.769 6.48389 390.208Z" fill="white"/>
<path d="M20.8271 433.866L16.8242 428.277L23.7934 425.664C22.8612 428.212 21.8899 430.922 20.8271 433.866Z" fill="white"/>
<path d="M221.286 506.52C222.536 502.669 222.536 502.669 224.296 503.645C223.42 504.494 222.558 505.322 221.286 506.52Z" fill="white"/>
<path d="M515.767 160.329L503.767 141.266C504.286 140.395 504.969 140.439 505.867 140.787C508.106 141.658 510.366 142.53 512.653 143.253C517.477 144.831 522.658 144.968 527.558 143.645C528.15 143.431 528.766 143.293 529.392 143.235C529.967 143.235 530.977 143.436 531.025 143.671C531.088 144.003 531.082 144.344 531.007 144.673C530.932 145.002 530.79 145.312 530.59 145.583C528.621 147.622 526.526 149.539 524.492 151.516C521.613 154.322 519.265 157.48 517.788 161.366C522.736 164.777 527.58 168.275 532.598 171.507C536.021 173.72 539.863 174.064 543.809 172.936C544.816 172.649 545.835 172.23 546.858 172.226C547.555 172.226 548.257 172.836 548.954 173.171C548.592 173.873 548.396 174.984 547.843 175.201C546.218 175.846 544.458 176.508 542.747 176.508C538.303 176.516 533.96 175.179 530.289 172.675C526.975 170.453 523.608 168.279 520.502 165.788C517.226 163.174 514.317 163.047 510.876 165.552C508.01 167.643 504.752 169.203 501.655 170.971C498.091 173.026 494.103 174.235 489.999 174.504C488.431 174.601 486.857 174.429 485.347 173.995C484.264 173.626 483.309 172.955 482.594 172.06C482.384 171.723 482.26 171.34 482.232 170.944C482.204 170.547 482.273 170.15 482.433 169.787C482.76 169.277 483.831 169.207 484.611 169.042C484.924 169.037 485.23 169.135 485.482 169.32C490.652 172.37 495.722 171.499 500.727 168.946C502.034 168.279 503.34 167.582 504.608 166.846C508.236 164.751 511.843 162.625 515.767 160.329ZM516.66 157.755C518.359 155.537 519.709 153.568 521.29 151.756C522.872 149.944 524.501 148.406 526.117 146.738C520.084 147.522 514.552 146.224 508.654 144.398L516.66 157.755Z" fill="#FF7596" stroke="#FF7596"/>
<path d="M447.783 110.921C451.002 111.357 454.212 111.871 457.44 112.228C461.604 112.707 465.79 113.021 469.95 113.513C475.486 114.166 480.573 116.039 484.794 119.755C486.419 121.189 487.738 122.996 489.045 124.748C489.485 125.454 489.711 126.272 489.694 127.104C489.733 128.808 488.941 129.474 487.338 129.047C486.244 128.696 485.189 128.23 484.193 127.658C481.118 126.081 478.095 124.403 474.994 122.866C471.617 121.172 467.991 120.032 464.252 119.49C459.897 118.884 455.541 118.152 451.251 117.224C449.029 116.745 446.895 115.756 444.769 114.92C443.763 114.528 442.648 113.77 443.162 112.624C443.502 111.879 444.686 111.396 445.588 111.056C446.233 110.816 447.039 111.012 447.766 111.012L447.783 110.921Z" fill="#FF7596"/>
<path d="M581.256 121.738C582.619 121.738 584.022 121.533 585.324 121.82C585.742 121.956 586.124 122.182 586.444 122.483C586.763 122.785 587.012 123.154 587.171 123.563C587.345 124.129 586.774 125.266 586.199 125.632C585.139 126.3 583.953 126.744 582.715 126.939C578.681 127.584 574.618 128.011 570.58 128.625C564.046 129.614 557.617 131.095 551.659 134.17C550.428 134.745 549.095 135.068 547.738 135.12C546.253 135.22 545.561 134.432 545.796 132.942C545.955 131.917 546.342 130.94 546.928 130.084C548.425 128.043 550.44 126.438 552.765 125.436C556.98 123.528 561.534 122.482 566.159 122.361C571.185 122.16 576.212 122.034 581.243 121.877C581.26 121.864 581.26 121.794 581.256 121.738Z" fill="#FF7596"/>
<path d="M496.937 231.175C493.749 234.377 494.028 238.249 494.372 242.004C494.739 245.234 495.321 248.436 496.114 251.588C496.276 252.133 496.321 252.705 496.246 253.268C496.171 253.831 495.977 254.372 495.679 254.855C490.844 262.914 483.892 267.889 474.527 269.161C470.727 269.643 466.879 268.749 463.682 266.639C460.232 264.461 458.302 261.242 458.307 257.19C458.329 253.833 458.62 250.482 459.178 247.171C460.027 241.943 460.484 236.76 459.709 231.488C459.16 227.868 459.465 224.362 461.617 221.203C464.527 216.934 468.686 215.366 473.682 216.721C473.887 216.777 474.083 216.856 474.283 216.921C482.938 219.792 489.938 225.263 496.937 231.175Z" fill="white"/>
<path d="M625.193 66.7912L625.187 66.7973L625.181 66.8035C623.846 68.1941 622.718 68.7326 621.808 68.7734C620.947 68.812 619.902 68.4206 618.665 67.0504L618.665 67.0504L618.66 67.0448C614.469 62.4507 610.583 57.5881 607.026 52.4879C605.438 50.1651 605.161 48.9528 605.356 48.1582C605.557 47.3376 606.403 46.3516 608.869 44.9128C612.29 42.9167 615.785 41.2595 619.351 39.5688C620.843 38.8614 622.348 38.1481 623.865 37.4016C624.04 37.3403 624.221 37.2958 624.405 37.2686L624.484 37.2569L624.561 37.2368C626.971 36.6128 628.334 36.9568 629.135 37.7607C630.03 38.6597 630.721 40.5886 630.619 44.3049C630.529 45.1583 630.429 46.1551 630.318 47.2589C629.989 50.5468 629.564 54.7851 629.006 59.0173C628.605 61.9517 627.268 64.6784 625.193 66.7912Z" fill="#FFDCE9" stroke="#FF7596" stroke-width="3"/>
<path d="M434.15 31.254C428.488 35.558 423.426 39.6092 418.151 43.3861C414.231 46.2046 411.862 44.9805 411.57 40.1974C411.26 35.8981 411.667 31.5771 412.776 27.4118C413.73 23.953 415.163 22.9902 418.718 23.2995C419.137 23.3199 419.554 23.3782 419.963 23.4738C425.134 24.8373 429.537 27.5294 434.15 31.254Z" fill="#FFDCE9" stroke="#FF7596" stroke-width="3"/>
<path d="M562.339 81.1157C566.394 81.1593 567.814 83.4899 565.989 86.548C565.001 88.2891 563.582 89.7464 561.868 90.7795C560.153 91.8126 558.202 92.3866 556.201 92.4463C554.873 92.4381 553.601 91.9113 552.656 90.9783C551.554 89.8064 552.125 88.1815 552.943 86.8965C553.949 85.2656 555.322 83.8932 556.954 82.8893C558.586 81.8854 560.43 81.278 562.339 81.1157Z" fill="white" stroke="#FF7596" stroke-width="3"/>
<path d="M479.144 79.0724C479.935 79.2529 480.702 79.5233 481.431 79.8783C484.363 81.6208 485.935 84.2346 485.952 87.6324C485.952 91.4485 482.808 93.326 479.462 91.5312C476.318 89.841 474.819 87.04 474.806 83.5463C474.775 82.962 474.864 82.3775 475.07 81.8295C475.275 81.2815 475.591 80.7817 475.998 80.3617C476.406 79.9416 476.895 79.6102 477.437 79.3884C477.978 79.1665 478.559 79.059 479.144 79.0724Z" fill="white" stroke="#FF7596" stroke-width="3"/>
</svg>
