<svg width="2695" height="150" viewBox="0 0 2695 150" fill="none" xmlns="http://www.w3.org/2000/svg">
<rect width="385" height="150" fill="white"/>
<path d="M106.299 89.2518C102.242 89.9527 99.2993 92.0373 99.2993 94.5C99.2993 97.5376 103.776 100 109.299 100C114.822 100 119.299 97.5376 119.299 94.5C119.299 92.2814 116.911 90.3697 113.471 89.5" stroke="#FFDCE9" stroke-width="3" stroke-linecap="round"/>
<rect x="385" width="385" height="150" fill="white"/>
<path d="M676.266 97C673.159 97.7881 671 99.5293 671 101.551C671 104.312 675.029 106.551 680 106.551C684.971 106.551 689 104.312 689 101.551C689 100.07 687.841 98.7395 686 97.8239" stroke="#DEFFFF" stroke-width="3" stroke-linecap="round"/>
<path d="M593.5 43.3922C590.268 44.1508 588 45.9283 588 48C588 50.7615 592.029 53 597 53C601.971 53 606 50.7615 606 48C606 45.823 603.496 43.9709 600 43.2845" stroke="#E9FFE3" stroke-width="3" stroke-linecap="round"/>
<path d="M485.299 84.7109C475.958 86.333 469.299 90.5515 469.299 95.5C469.299 101.851 480.268 107 493.799 107C507.33 107 518.299 101.851 518.299 95.5C518.299 90.6057 511.786 86.4256 502.606 84.7652" stroke="#FFDCE9" stroke-width="3" stroke-linecap="round"/>
<path d="M491.299 89.2518C487.242 89.9527 484.299 92.0373 484.299 94.5C484.299 97.5376 488.776 100 494.299 100C499.822 100 504.299 97.5376 504.299 94.5C504.299 92.2814 501.911 90.3697 498.471 89.5" stroke="#FFF3E8" stroke-width="3" stroke-linecap="round"/>
<rect x="770" width="385" height="150" fill="white"/>
<path d="M1056 91.8428C1047.22 93.6549 1041 98.1909 1041 103.5C1041 110.404 1051.52 116 1064.5 116C1077.48 116 1088 110.404 1088 103.5C1088 98.8186 1083.16 94.7382 1076 92.5965" stroke="#DEFFFF" stroke-width="3" stroke-linecap="round"/>
<path d="M1061.27 97C1058.16 97.7881 1056 99.5293 1056 101.551C1056 104.312 1060.03 106.551 1065 106.551C1069.97 106.551 1074 104.312 1074 101.551C1074 100.07 1072.84 98.7395 1071 97.8239" stroke="#FFDCE9" stroke-width="3" stroke-linecap="round"/>
<path d="M978.5 43.3922C975.268 44.1508 973 45.9283 973 48C973 50.7615 977.029 53 982 53C986.971 53 991 50.7615 991 48C991 45.823 988.496 43.9709 985 43.2845" stroke="#DEFFFF" stroke-width="3" stroke-linecap="round"/>
<path d="M969.5 38C961.522 39.8461 956 43.8325 956 48.4527C956 54.8301 966.521 60 979.5 60C992.479 60 1003 54.8301 1003 48.4527C1003 43.8325 997.478 39.8461 989.5 38" stroke="#E9FFE3" stroke-width="3" stroke-linecap="round"/>
<path d="M870.299 84.7109C860.958 86.333 854.299 90.5515 854.299 95.5C854.299 101.851 865.268 107 878.799 107C892.33 107 903.299 101.851 903.299 95.5C903.299 90.6057 896.786 86.4256 887.606 84.7652" stroke="#FFF3E8" stroke-width="3" stroke-linecap="round"/>
<path d="M876.299 89.2518C872.242 89.9527 869.299 92.0373 869.299 94.5C869.299 97.5376 873.776 100 879.299 100C884.822 100 889.299 97.5376 889.299 94.5C889.299 92.2814 886.911 90.3697 883.471 89.5" stroke="#E9FFE3" stroke-width="3" stroke-linecap="round"/>
<path d="M877.799 116C897.958 116 914.299 107.493 914.299 97C914.299 92.0762 910.701 87.5899 904.799 84.2145M890.299 79.1434C886.4 78.4036 882.19 78 877.799 78C857.641 78 841.299 86.5066 841.299 97C841.299 104.44 849.515 110.881 861.481 114" stroke="#FFDCE9" stroke-width="3" stroke-linecap="round"/>
<rect x="1155" width="385" height="150" fill="white"/>
<path d="M1441 91.8428C1432.22 93.6549 1426 98.1909 1426 103.5C1426 110.404 1436.52 116 1449.5 116C1462.48 116 1473 110.404 1473 103.5C1473 98.8186 1468.16 94.7382 1461 92.5965" stroke="#FFDCE9" stroke-width="3" stroke-linecap="round"/>
<path d="M1438.65 128C1423.78 125.252 1413 117.111 1413 107.497C1413 95.6244 1429.44 86 1449.71 86C1456.79 86 1463.4 87.1717 1469 89.2016" stroke="#DEFFFF" stroke-width="3" stroke-linecap="round"/>
<path d="M1446.27 97C1443.16 97.7881 1441 99.5293 1441 101.551C1441 104.312 1445.03 106.551 1450 106.551C1454.97 106.551 1459 104.312 1459 101.551C1459 100.07 1457.84 98.7395 1456 97.8239" stroke="#FFF3E8" stroke-width="3" stroke-linecap="round"/>
<path d="M1363.5 43.3922C1360.27 44.1508 1358 45.9283 1358 48C1358 50.7615 1362.03 53 1367 53C1371.97 53 1376 50.7615 1376 48C1376 45.823 1373.5 43.9709 1370 43.2845" stroke="#FFDCE9" stroke-width="3" stroke-linecap="round"/>
<path d="M1354.5 38C1346.52 39.8461 1341 43.8325 1341 48.4527C1341 54.8301 1351.52 60 1364.5 60C1377.48 60 1388 54.8301 1388 48.4527C1388 43.8325 1382.48 39.8461 1374.5 38" stroke="#DEFFFF" stroke-width="3" stroke-linecap="round"/>
<path d="M1375.04 66C1388.98 63.6422 1399 57.133 1399 49.4722C1399 39.8226 1383.11 32 1363.5 32C1357.54 32 1351.93 32.722 1347 33.9979" stroke="#E9FFE3" stroke-width="3" stroke-linecap="round"/>
<path d="M1255.3 84.7109C1245.96 86.333 1239.3 90.5515 1239.3 95.5C1239.3 101.851 1250.27 107 1263.8 107C1277.33 107 1288.3 101.851 1288.3 95.5C1288.3 90.6057 1281.79 86.4256 1272.61 84.7652" stroke="#E9FFE3" stroke-width="3" stroke-linecap="round"/>
<path d="M1261.3 89.2518C1257.24 89.9527 1254.3 92.0373 1254.3 94.5C1254.3 97.5376 1258.78 100 1264.3 100C1269.82 100 1274.3 97.5376 1274.3 94.5C1274.3 92.2814 1271.91 90.3697 1268.47 89.5" stroke="#DEFFFF" stroke-width="3" stroke-linecap="round"/>
<path d="M1262.8 116C1282.96 116 1299.3 107.493 1299.3 97C1299.3 92.0762 1295.7 87.5899 1289.8 84.2145M1275.3 79.1434C1271.4 78.4036 1267.19 78 1262.8 78C1242.64 78 1226.3 86.5066 1226.3 97C1226.3 104.44 1234.51 110.881 1246.48 114" stroke="#FFF3E8" stroke-width="3" stroke-linecap="round"/>
<path d="M1317.3 98.5C1317.3 115.897 1293.79 130 1264.8 130M1279.3 68.2168C1274.69 67.4244 1269.83 67 1264.8 67C1254.72 67 1245.3 68.7055 1237.3 71.662M1243.3 127.246C1230.02 123.664 1219.66 116.864 1215 108.5" stroke="#FFDCE9" stroke-width="3" stroke-linecap="round"/>
<rect x="1540" width="385" height="150" fill="white"/>
<path d="M1826 91.8428C1817.22 93.6549 1811 98.1909 1811 103.5C1811 110.404 1821.52 116 1834.5 116C1847.48 116 1858 110.404 1858 103.5C1858 98.8186 1853.16 94.7382 1846 92.5965" stroke="#FFF3E8" stroke-width="3" stroke-linecap="round"/>
<path d="M1823.65 128C1808.78 125.252 1798 117.111 1798 107.497C1798 95.6244 1814.44 86 1834.71 86C1841.79 86 1848.4 87.1717 1854 89.2016" stroke="#FFDCE9" stroke-width="3" stroke-linecap="round"/>
<path d="M1831.27 97C1828.16 97.7881 1826 99.5293 1826 101.551C1826 104.312 1830.03 106.551 1835 106.551C1839.97 106.551 1844 104.312 1844 101.551C1844 100.07 1842.84 98.7395 1841 97.8239" stroke="#E9FFE3" stroke-width="3" stroke-linecap="round"/>
<path d="M1739.5 38C1731.52 39.8461 1726 43.8325 1726 48.4527C1726 54.8301 1736.52 60 1749.5 60C1762.48 60 1773 54.8301 1773 48.4527C1773 43.8325 1767.48 39.8461 1759.5 38" stroke="#FFDCE9" stroke-width="3" stroke-linecap="round"/>
<path d="M1760.04 66C1773.98 63.6422 1784 57.133 1784 49.4722C1784 39.8226 1768.11 32 1748.5 32C1742.54 32 1736.93 32.722 1732 33.9979" stroke="#DEFFFF" stroke-width="3" stroke-linecap="round"/>
<path d="M1640.3 84.7109C1630.96 86.333 1624.3 90.5515 1624.3 95.5C1624.3 101.851 1635.27 107 1648.8 107C1662.33 107 1673.3 101.851 1673.3 95.5C1673.3 90.6057 1666.79 86.4256 1657.61 84.7652" stroke="#DEFFFF" stroke-width="3" stroke-linecap="round"/>
<path d="M1647.8 116C1667.96 116 1684.3 107.493 1684.3 97C1684.3 92.0762 1680.7 87.5899 1674.8 84.2145M1660.3 79.1434C1656.4 78.4036 1652.19 78 1647.8 78C1627.64 78 1611.3 86.5066 1611.3 97C1611.3 104.44 1619.51 110.881 1631.48 114" stroke="#E9FFE3" stroke-width="3" stroke-linecap="round"/>
<path d="M1702.3 98.5C1702.3 115.897 1678.79 130 1649.8 130M1664.3 68.2168C1659.69 67.4244 1654.83 67 1649.8 67C1639.72 67 1630.3 68.7055 1622.3 71.662M1628.3 127.246C1615.02 123.664 1604.66 116.864 1600 108.5" stroke="#FFF3E8" stroke-width="3" stroke-linecap="round"/>
<rect x="1925" width="385" height="150" fill="white"/>
<path d="M2211 91.8428C2202.22 93.6549 2196 98.1909 2196 103.5C2196 110.404 2206.52 116 2219.5 116C2232.48 116 2243 110.404 2243 103.5C2243 98.8186 2238.16 94.7382 2231 92.5965" stroke="#E9FFE3" stroke-width="3" stroke-linecap="round"/>
<path d="M2208.65 128C2193.78 125.252 2183 117.111 2183 107.497C2183 95.6244 2199.44 86 2219.71 86C2226.79 86 2233.4 87.1717 2239 89.2016" stroke="#FFF3E8" stroke-width="3" stroke-linecap="round"/>
<path d="M2145.04 66C2158.98 63.6422 2169 57.133 2169 49.4722C2169 39.8226 2153.11 32 2133.5 32C2127.54 32 2121.93 32.722 2117 33.9979" stroke="#FFDCE9" stroke-width="3" stroke-linecap="round"/>
<path d="M2032.8 116C2052.96 116 2069.3 107.493 2069.3 97C2069.3 92.0762 2065.7 87.5899 2059.8 84.2145M2045.3 79.1434C2041.4 78.4036 2037.19 78 2032.8 78C2012.64 78 1996.3 86.5066 1996.3 97C1996.3 104.44 2004.51 110.881 2016.48 114" stroke="#DEFFFF" stroke-width="3" stroke-linecap="round"/>
<path d="M2087.3 98.5C2087.3 115.897 2063.79 130 2034.8 130M2049.3 68.2168C2044.69 67.4244 2039.83 67 2034.8 67C2024.72 67 2015.3 68.7055 2007.3 71.662M2013.3 127.246C2000.02 123.664 1989.66 116.864 1985 108.5" stroke="#E9FFE3" stroke-width="3" stroke-linecap="round"/>
<rect x="2310" width="385" height="150" fill="white"/>
<path d="M2593.65 128C2578.78 125.252 2568 117.111 2568 107.497C2568 95.6244 2584.44 86 2604.71 86C2611.79 86 2618.4 87.1717 2624 89.2016" stroke="#E9FFE3" stroke-width="3" stroke-linecap="round"/>
<path d="M2472.3 98.5C2472.3 115.897 2448.79 130 2419.8 130M2434.3 68.2168C2429.69 67.4244 2424.83 67 2419.8 67C2409.72 67 2400.3 68.7055 2392.3 71.662M2398.3 127.246C2385.02 123.664 2374.66 116.864 2370 108.5" stroke="#DEFFFF" stroke-width="3" stroke-linecap="round"/>
</svg>
