<svg width="385" height="150" viewBox="0 0 385 150" fill="none" xmlns="http://www.w3.org/2000/svg">
<path fill-rule="evenodd" clip-rule="evenodd" d="M0 0H385V150H0V0ZM43.7217 109C43.2498 108.914 42.7752 108.84 42.3005 108.765H42.3005C41.2824 108.606 40.2646 108.447 39.2752 108.172C30.8323 105.798 25.124 100.587 22.684 92.1017C21.489 87.9338 21.9781 83.821 23.2398 79.7303C25.0379 74.3039 27.328 69.0508 30.0819 64.0355C34.6026 55.6154 39.6019 47.4577 45.0557 39.6017C45.1744 39.4274 45.2979 39.2626 45.4574 39.0498L45.4576 39.0496L45.4948 39C45.5469 39.0628 45.5965 39.1201 45.6436 39.1745C45.7372 39.2826 45.821 39.3793 45.895 39.4858C52.3202 48.8983 58.3842 58.526 63.3477 68.8107C65.432 73.1167 67.3384 77.5055 68.4056 82.1924C70.0731 89.5237 68.2055 95.9606 63.1642 101.459C59.0734 105.925 53.8654 108.293 47.8348 108.901C47.6473 108.928 47.4616 108.967 47.279 109.017L43.7217 109ZM101.301 108.765C101.775 108.84 102.25 108.914 102.722 109L106.279 109.017C106.462 108.967 106.647 108.928 106.835 108.901C112.865 108.293 118.073 105.925 122.164 101.459C127.206 95.9606 129.073 89.5237 127.406 82.1924C126.338 77.5055 124.432 73.1167 122.348 68.8107C117.384 58.526 111.32 48.8983 104.895 39.4858C104.821 39.3793 104.737 39.2826 104.644 39.1745L104.644 39.1745C104.596 39.1201 104.547 39.0628 104.495 39L104.458 39.0495C104.298 39.2624 104.174 39.4273 104.056 39.6017C98.6019 47.4577 93.6026 55.6154 89.0819 64.0355C86.328 69.0508 84.0379 74.3039 82.2398 79.7303C80.9781 83.821 80.489 87.9338 81.684 92.1017C84.124 100.587 89.8323 105.798 98.2752 108.172C99.2645 108.447 100.282 108.606 101.3 108.765L101.3 108.765L101.3 108.765L101.3 108.765L101.301 108.765ZM161.722 109C161.25 108.914 160.775 108.84 160.301 108.765C159.282 108.606 158.265 108.447 157.275 108.172C148.832 105.798 143.124 100.587 140.684 92.1017C139.489 87.9338 139.978 83.821 141.24 79.7303C143.038 74.3039 145.328 69.0508 148.082 64.0355C152.603 55.6154 157.602 47.4577 163.056 39.6017C163.174 39.4277 163.298 39.2632 163.457 39.051L163.458 39.0496L163.458 39.0495L163.458 39.0489L163.495 39C163.525 39.0362 163.554 39.0705 163.582 39.1034L163.644 39.1745C163.737 39.2826 163.821 39.3793 163.895 39.4858C170.32 48.8983 176.384 58.526 181.348 68.8107C183.432 73.1167 185.338 77.5055 186.406 82.1924C188.073 89.5237 186.206 95.9606 181.164 101.459C177.073 105.925 171.865 108.293 165.835 108.901C165.647 108.928 165.462 108.967 165.279 109.017L161.722 109ZM219.301 108.765C219.775 108.84 220.25 108.914 220.722 109L224.279 109.017C224.462 108.967 224.647 108.928 224.835 108.901C230.865 108.293 236.073 105.925 240.164 101.459C245.206 95.9606 247.073 89.5237 245.406 82.1924C244.338 77.5055 242.432 73.1167 240.348 68.8107C235.384 58.526 229.32 48.8983 222.895 39.4858C222.821 39.3793 222.737 39.2826 222.644 39.1745C222.596 39.1201 222.547 39.0628 222.495 39L222.458 39.0489C222.298 39.2621 222.175 39.4272 222.056 39.6017C216.602 47.4577 211.603 55.6154 207.082 64.0355C204.328 69.0508 202.038 74.3039 200.24 79.7303C198.978 83.821 198.489 87.9338 199.684 92.1017C202.124 100.587 207.832 105.798 216.275 108.172C217.265 108.447 218.282 108.606 219.301 108.765ZM338.722 110C338.25 109.914 337.775 109.84 337.3 109.765C336.282 109.606 335.265 109.447 334.275 109.172C325.832 106.798 320.124 101.587 317.684 93.1017C316.489 88.9338 316.978 84.821 318.24 80.7303C320.038 75.3039 322.328 70.0508 325.082 65.0355C329.603 56.6154 334.602 48.4577 340.056 40.6017C340.174 40.4273 340.298 40.2624 340.458 40.0494L340.495 40C340.547 40.0628 340.596 40.12 340.643 40.1743L340.644 40.1747C340.737 40.2827 340.821 40.3794 340.895 40.4858C347.32 49.8983 353.384 59.526 358.348 69.8107C360.432 74.1167 362.338 78.5055 363.406 83.1924C365.073 90.5237 363.206 96.9606 358.164 102.459C354.073 106.925 348.865 109.293 342.835 109.901C342.647 109.928 342.462 109.967 342.279 110.017L338.722 110ZM278.301 108.765C278.775 108.84 279.25 108.914 279.722 109L283.279 109.017C283.462 108.967 283.647 108.928 283.835 108.901C289.865 108.293 295.073 105.925 299.164 101.459C304.206 95.9606 306.073 89.5237 304.406 82.1924C303.338 77.5055 301.432 73.1167 299.348 68.8107C294.384 58.526 288.32 48.8983 281.895 39.4858C281.821 39.3793 281.737 39.2825 281.643 39.1743C281.596 39.12 281.547 39.0628 281.495 39L281.458 39.0494C281.298 39.2624 281.174 39.4273 281.056 39.6017C275.602 47.4577 270.603 55.6154 266.082 64.0355C263.328 69.0508 261.038 74.3039 259.24 79.7303C257.978 83.821 257.489 87.9338 258.684 92.1017C261.124 100.587 266.832 105.798 275.275 108.172C276.265 108.447 277.282 108.606 278.301 108.765Z" fill="white"/>
</svg>
