<svg width="700" height="443" viewBox="0 0 700 443" fill="none" xmlns="http://www.w3.org/2000/svg">
<path fill-rule="evenodd" clip-rule="evenodd" d="M700 0.000488281H0.000244141V443H700V0.000488281ZM239.903 317.671C271.607 344.439 308.917 356.001 354.014 356.995C355.757 356.804 357.82 356.622 360.109 356.42C366.041 355.896 373.489 355.238 380.806 353.955C415.616 347.835 446.171 333.212 470.854 307.571C506.274 270.777 516.704 218.656 493.789 172.205C492.445 169.474 492.411 166.877 492.445 163.904C492.46 162.447 492.48 160.987 492.501 159.527C492.627 150.521 492.754 141.47 491.598 132.613C490.071 121.045 487.229 109.617 484.402 98.2546C484.267 97.7131 484.132 97.1718 483.998 96.6307C482.257 89.6919 477.117 85.8333 469.886 85.2227C467.091 84.9146 464.269 84.9597 461.486 85.3569C446.057 88.0344 431.475 93.4096 417.497 100.288C414.527 101.751 412.323 101.878 409.433 100.865C390.641 94.2974 370.88 90.9222 350.97 90.8797C329.744 90.7384 308.659 94.3226 288.676 101.469C287.351 101.969 285.889 101.969 284.564 101.469C269.45 93.7988 253.732 87.766 236.933 85.3636C224.884 83.639 218.735 88.0076 215.012 99.5498C214.716 100.476 214.434 101.409 214.192 102.348C210.973 114.904 208.265 127.56 207.802 140.558C207.519 148.416 207.392 156.294 207.741 164.146C207.849 166.951 207.654 169.286 206.397 171.803C195.323 194.115 191.465 217.616 195.645 242.223C200.86 272.904 216.383 297.787 239.903 317.671Z" fill="#E9FFE3"/>
</svg>
