<svg width="101" height="96" viewBox="0 0 101 96" fill="none" xmlns="http://www.w3.org/2000/svg">
<path d="M49.7388 91.2523C71.7326 91.306 91.8142 73.6341 95.1194 51.5263C96.4061 44.4863 95.9313 37.2373 93.7375 30.4254C92.1118 25.5973 91.4033 20.5072 91.6479 15.4185C91.9706 4.21617 89.4817 2.70077 79.1264 7.1416C77.4729 7.80286 75.8779 8.60175 74.3582 9.53029C70.9401 11.7185 67.8076 11.8551 63.7602 10.4223C54.0285 6.98651 44.251 8.60161 35.2774 13.1534C29.8725 15.9025 25.0556 17.5489 19.0717 15.0723C16.3478 13.9588 12.9184 14.1413 9.86051 14.3665C5.4072 14.6889 3.40021 16.9585 4.87848 21.0055C8.28723 30.2853 7.25635 39.6645 7.34014 49.2157C7.49228 60.3819 12.0198 71.0419 19.9488 78.9032C27.8778 86.7646 38.575 91.1991 49.7388 91.2523V91.2523Z" fill="white"/>
<path d="M95.7312 15.7974C95.521 12.7009 96.1745 9.39292 95.5588 6.35095C94.2688 1.45616 91.6733 -0.594157 86.7478 0.250756C82.1783 1.09382 77.7482 2.56864 73.5852 4.63306C72.2874 5.38685 70.8504 5.86974 69.3607 6.0518C67.871 6.23387 66.3599 6.11158 64.9188 5.69253C53.8501 2.55193 41.9897 3.90578 31.9128 9.45972C28.8134 11.1322 25.1906 11.5515 21.7913 10.6312C17.0177 9.68846 12.1259 9.50037 7.29411 10.0743C2.09999 10.6979 -0.374384 14.3367 0.175232 19.607C0.645631 23.1412 1.4664 26.6198 2.62512 29.9915C3.57166 32.9234 3.80306 36.0387 3.3002 39.0783C-0.484485 63.0605 12.8606 85.6535 34.9858 93.1784C60.5331 101.857 89.095 86.9301 97.8392 60.231C101.35 49.8027 101.484 38.5328 98.2209 28.0241C97.1876 23.9927 96.3568 19.9118 95.7312 15.7974ZM49.9133 91.044C38.7444 90.9908 28.0429 86.5526 20.1131 78.6849C12.1832 70.8171 7.65887 60.1491 7.51445 48.9777C7.46052 39.4561 8.46171 30.077 5.05279 20.7675C3.54482 16.7207 5.58151 14.4509 10.0348 14.1286C13.0927 13.9033 16.5221 13.7208 19.246 14.8344C25.2002 17.3111 30.0469 15.6645 35.4517 12.9155C44.4255 8.4082 54.2028 6.74853 63.9345 10.1843C67.9821 11.6468 71.1144 11.4805 74.5325 9.29231C76.0691 8.38695 77.6792 7.61252 79.3458 6.97735C89.7159 2.53644 92.1895 4.05265 91.8669 15.255C91.6222 20.3437 92.3312 25.4331 93.9568 30.2612C96.1506 37.0731 96.6255 44.3221 95.3388 51.362C91.9887 73.4255 71.9071 91.0977 49.9133 91.044Z" fill="#FF7596" fill-opacity="0.98"/>
<path d="M49.7388 91.2523C71.7326 91.306 91.8142 73.6341 95.1194 51.5263C96.4061 44.4863 95.9313 37.2373 93.7375 30.4254C92.1118 25.5973 91.4033 20.5072 91.6479 15.4185C91.9706 4.21617 89.4817 2.70077 79.1264 7.1416C77.4729 7.80286 75.8779 8.60175 74.3582 9.53029C70.9401 11.7185 67.8076 11.8551 63.7602 10.4223C54.0285 6.98651 44.251 8.60161 35.2774 13.1534C29.8725 15.9025 25.0556 17.5489 19.0717 15.0723C16.3478 13.9588 12.9184 14.1413 9.86051 14.3665C5.4072 14.6889 3.40021 16.9585 4.87848 21.0055C8.28723 30.2853 7.25635 39.6645 7.34014 49.2157C7.49228 60.3819 12.0198 71.0419 19.9488 78.9032C27.8778 86.7646 38.575 91.1991 49.7388 91.2523V91.2523Z" fill="white"/>
</svg>
