<svg width="455" height="505" viewBox="0 0 455 505" fill="none" xmlns="http://www.w3.org/2000/svg">
<path d="M337.679 0.572537C316.109 3.96211 288.787 19.2666 259.719 44.3289L249.961 52.8542L239.69 53.8813C204.356 57.579 162.962 71.9591 124.752 93.94L113.454 100.514L106.264 98.254C92.6028 94.1454 68.2594 88.0852 58.6043 86.4418C46.0731 84.2848 30.7687 84.2848 23.6814 86.4418C12.6909 89.626 4.26836 101.335 1.49507 117.256C-1.48365 133.896 -0.045651 151.974 6.11722 176.112C11.1502 195.525 11.4584 204.153 7.65793 222.744C3.8575 242.054 2.72763 256.126 3.34391 279.237C3.85749 301.834 5.80905 315.598 11.3556 336.449C28.4062 400.645 73.3952 455.392 132.456 483.741C179.294 506.236 233.63 510.858 284.884 496.683C336.858 482.201 383.798 447.175 415.023 399.413C450.357 345.179 462.58 277.183 448.611 212.164C440.291 173.236 418.516 131.328 392.324 104.006L385.647 96.9187L385.544 80.8952C385.442 63.4338 383.901 53.7786 377.738 31.9004C372.294 12.3847 368.699 6.42725 359.763 2.42138C354.627 0.161667 345.486 -0.660036 337.679 0.572537Z" fill="#DEFFFF"/>
</svg>
