<svg width="92" height="87" viewBox="0 0 92 87" fill="none" xmlns="http://www.w3.org/2000/svg">
<path d="M45.4164 86.4765C67.4102 86.5302 87.4918 68.8583 90.797 46.7505C92.0837 39.7106 91.6089 32.4616 89.4151 25.6497C87.7895 20.8216 87.0809 15.7315 87.3255 10.6428C87.6482 -0.559585 85.1594 -2.07498 74.8041 2.36584C73.1505 3.0271 71.5555 3.82599 70.0358 4.75453C66.6177 6.94269 63.4852 7.07936 59.4378 5.64651C49.7062 2.21075 39.9286 3.82586 30.955 8.37769C25.5502 11.1267 20.7332 12.7732 14.7493 10.2966C12.0254 9.18305 8.59605 9.3655 5.53813 9.59079C1.08483 9.91311 -0.922161 12.1827 0.556103 16.2297C3.96486 25.5095 2.93397 34.8887 3.01777 44.4399C3.16991 55.6061 7.6974 66.2661 15.6264 74.1275C23.5554 81.9888 34.2526 86.4233 45.4164 86.4765V86.4765Z" fill="#DEFFFF"/>
</svg>
