<svg width="64" height="59" viewBox="0 0 64 59" fill="none" xmlns="http://www.w3.org/2000/svg">
<path d="M32.2644 58.6496C14.094 58.8329 -0.521156 43.2897 0.0536528 25.8372C0.223967 20.692 0.0536528 15.5252 0.0536528 10.38C-0.047917 8.27982 -0.00524087 6.17514 0.181383 4.08091C0.724258 0.25171 2.89577 -0.913357 6.31269 0.715402C7.89153 1.49197 9.36544 2.47044 10.6983 3.62744C11.4365 4.34911 12.3534 4.85535 13.352 5.09267C14.3507 5.33 15.3941 5.2896 16.3719 4.97575C23.1951 3.16362 30.0289 3.8971 36.6711 6.0544C38.776 6.78609 41.076 6.68619 43.1112 5.7742C47.7819 3.61121 52.8803 2.56337 58.0136 2.71101C63.0272 2.96988 64.4003 4.7708 62.6865 9.56C61.8521 12.0026 60.6917 14.3185 59.2376 16.4422C58.3176 17.634 57.6656 19.0149 57.3273 20.4887C56.989 21.9624 56.9727 23.493 57.2792 24.9739C58.5397 31.2228 57.6886 37.7197 54.8629 43.4189C49.8492 53.1807 41.8339 58.1318 32.2644 58.6496Z" fill="#DEFFFF"/>
</svg>
