<svg width="84" height="81" viewBox="0 0 84 81" fill="none" xmlns="http://www.w3.org/2000/svg">
<path d="M10.692 1.05131C8.09195 2.55131 5.992 7.35131 4.992 14.2513C4.35648 18.226 3.38634 22.1399 2.09198 25.9513C-1.70802 36.1513 -0.208024 50.6513 5.59198 60.5513C9.09198 66.5513 17.592 74.1513 24.492 77.5513C30.155 79.3567 36.0494 80.3335 41.992 80.4513C48.1718 80.5191 54.31 79.4338 60.092 77.2513C76.892 68.9513 86.3921 50.1513 82.7921 32.2513C81.6921 26.6513 81.692 24.7513 82.692 22.3513C84.492 17.9513 84.292 12.5513 82.192 10.6513C80.092 8.75131 70.6921 8.35131 64.7921 9.95131C61.7921 10.8513 59.892 10.5513 53.692 8.45131C47.792 6.55131 44.092 5.95131 36.792 5.95131C28.092 5.95131 27.192 5.75131 23.092 2.95131C18.592 -0.148686 13.992 -0.848686 10.692 1.05131Z" fill="white"/>
<path d="M10.692 1.05131C8.09195 2.55131 5.992 7.35131 4.992 14.2513C4.35648 18.226 3.38634 22.1399 2.09198 25.9513C-1.70802 36.1513 -0.208024 50.6513 5.59198 60.5513C9.09198 66.5513 17.592 74.1513 24.492 77.5513C30.155 79.3567 36.0494 80.3335 41.992 80.4513C48.1718 80.5191 54.31 79.4338 60.092 77.2513C76.892 68.9513 86.3921 50.1513 82.7921 32.2513C81.6921 26.6513 81.692 24.7513 82.692 22.3513C84.492 17.9513 84.292 12.5513 82.192 10.6513C80.092 8.75131 70.6921 8.35131 64.7921 9.95131C61.7921 10.8513 59.892 10.5513 53.692 8.45131C47.792 6.55131 44.092 5.95131 36.792 5.95131C28.092 5.95131 27.192 5.75131 23.092 2.95131C18.592 -0.148686 13.992 -0.848686 10.692 1.05131ZM21.792 6.65131C25.092 9.15131 26.092 9.35131 35.892 9.45131C44.592 9.65131 47.792 10.1513 53.492 12.2513C60.192 14.7513 60.692 14.7513 66.492 13.4513C74.192 11.5513 77.4921 11.5513 79.2921 13.4513C80.8921 15.0513 80.392 19.5513 78.092 23.8513C76.992 25.7513 76.992 26.6513 78.092 28.7513C78.992 30.3513 79.492 34.6513 79.492 40.3513C79.492 48.6513 79.192 50.1513 76.192 56.1513C74.0314 60.6944 70.979 64.7564 67.2161 68.0954C63.4533 71.4344 59.0571 73.9821 54.2892 75.587C49.5214 77.1918 44.4794 77.8209 39.4634 77.4368C34.4474 77.0528 29.5599 75.6633 25.092 73.3513C6.79198 64.1513 -1.30797 43.0513 6.39203 24.4513C7.45338 21.6099 8.19132 18.6579 8.59198 15.6513C8.99043 12.7615 9.66005 9.91561 10.592 7.15131C11.692 4.45131 12.392 3.95131 15.092 3.95131C17.5419 4.17408 19.8722 5.11311 21.792 6.65131Z" fill="#FF7596"/>
</svg>
