<svg width="231" height="302" viewBox="0 0 231 302" fill="none" xmlns="http://www.w3.org/2000/svg">
<path d="M-50.7131 0.797186C-57.0131 2.59719 -60.9131 5.5972 -66.1131 12.9972C-74.9131 25.2972 -80.5131 40.7972 -84.2131 62.9972C-86.3131 75.7972 -86.4131 105.197 -84.3131 118.297L-82.8131 127.697L-86.1131 134.897C-91.3285 146.782 -95.2737 159.184 -97.8831 171.897C-99.7831 181.397 -100.083 185.997 -99.9831 203.997C-99.9831 221.797 -99.5831 226.597 -97.6831 235.397C-89.4831 273.597 -70.5831 306.597 -43.0831 330.797C-20.4166 350.655 6.94954 364.39 36.4169 370.697C45.5169 372.597 49.8169 372.897 68.9169 372.897C88.0169 372.897 92.3169 372.597 101.417 370.697C115.486 367.777 129.105 363.002 141.917 356.497C188.817 333.097 221.217 287.997 229.017 235.297C231.217 219.997 230.517 192.297 227.417 178.197C223.367 158.496 215.923 139.649 205.417 122.497L199.317 112.397L200.817 103.297C204.944 78.639 201.2 53.3073 190.117 30.8972C182.517 15.1972 175.417 9.5972 163.417 9.4972C143.217 9.4972 100.317 25.9972 81.8169 40.9972L77.7169 44.3972L70.3169 43.3972C59.5169 41.8972 24.9169 43.6972 17.3169 46.0972C16.1169 46.3972 14.3169 44.6972 11.1169 40.2972C6.0169 33.0972 -13.8831 13.4972 -20.8831 8.5972C-31.7131 1.1972 -42.1131 -1.50281 -50.7131 0.797186Z" fill="#DEFFFF"/>
</svg>
