<svg width="384" height="318" viewBox="0 0 384 318" fill="none" xmlns="http://www.w3.org/2000/svg">
<path d="M328.756 0.557406C307.756 3.85741 281.156 18.7574 252.856 43.1574L243.356 51.4574L233.356 52.4574C198.956 56.0574 158.656 70.0574 121.456 91.4574L110.456 97.8574L103.456 95.6574C90.1556 91.6574 66.4555 85.7574 57.0555 84.1574C44.8555 82.0574 29.9555 82.0574 23.0555 84.1574C12.3555 87.2574 4.15556 98.6574 1.45556 114.157C-1.44444 130.357 -0.0444446 147.957 5.95556 171.457C10.8556 190.357 11.1556 198.757 7.45556 216.857C3.75556 235.657 2.65554 249.357 3.25554 271.857C3.75554 293.857 5.65553 307.257 11.0555 327.557C27.6555 390.057 71.4556 443.357 128.956 470.957C174.556 492.857 227.456 497.357 277.356 483.557C327.956 469.457 373.656 435.357 404.056 388.857C438.456 336.057 450.356 269.857 436.756 206.557C428.656 168.657 407.456 127.857 381.956 101.257L375.456 94.3574L375.356 78.7574C375.256 61.7574 373.756 52.3574 367.756 31.0574C362.456 12.0574 358.956 6.25739 350.256 2.35739C345.256 0.157394 336.356 -0.642594 328.756 0.557406Z" fill="#DEFFFF"/>
</svg>
