<svg width="340" height="384" viewBox="0 0 340 384" fill="none" xmlns="http://www.w3.org/2000/svg">
<path d="M51.3306 1.30747C44.8596 3.15633 40.8537 6.23778 35.5125 13.8386C26.4737 26.4725 20.7217 42.3933 16.9212 65.1959C14.7642 78.3433 14.6615 108.541 16.8185 121.997L18.3592 131.652L14.9697 139.048C9.61273 151.255 5.5604 163.993 2.88017 177.052C0.928596 186.81 0.620446 191.535 0.723161 210.023C0.723161 228.306 1.13402 233.237 3.0856 242.276C11.5082 281.512 30.9212 315.408 59.1677 340.265C82.4495 360.662 110.558 374.77 140.826 381.248C150.173 383.2 154.589 383.508 174.208 383.508C193.826 383.508 198.243 383.2 207.59 381.248C222.041 378.249 236.03 373.344 249.189 366.663C297.362 342.628 330.642 296.303 338.654 242.173C340.913 226.458 340.194 198.006 337.01 183.523C332.85 163.287 325.204 143.928 314.413 126.311L308.148 115.937L309.688 106.59C313.928 81.2623 310.082 55.243 298.698 32.2245C290.891 16.0984 283.599 10.3464 271.273 10.2436C250.525 10.2436 206.46 27.1915 187.458 42.5987L183.247 46.091L175.646 45.0638C164.553 43.5231 129.014 45.372 121.207 47.8371C119.975 48.1453 118.126 46.3991 114.839 41.8797C109.6 34.4842 89.1603 14.3522 81.9703 9.31922C70.8463 1.71835 60.164 -1.05496 51.3306 1.30747Z" fill="#DEFFFF"/>
</svg>
