<svg width="213" height="217" viewBox="0 0 213 217" fill="none" xmlns="http://www.w3.org/2000/svg">
<path d="M158.975 3.18686C153.329 5.80026 147.821 8.70414 142.475 11.8869L133.475 17.2869L117.475 17.3869C102.075 17.4869 101.075 17.5869 91.975 20.7869C80.675 24.6869 72.675 28.9869 62.075 36.8869C57.775 40.1869 53.075 43.2869 51.575 43.8869C50.075 44.4869 42.675 44.8869 35.075 44.8869C19.475 44.8869 13.675 46.1869 7.07498 50.9869C-0.0250239 56.0869 -1.62502 63.6869 1.57498 76.2869C3.47498 83.7869 10.775 99.4869 15.275 105.787C18.375 110.087 18.675 111.187 19.775 123.387C22.175 150.887 30.475 169.887 47.875 188.187C67.075 208.287 91.375 217.887 119.775 216.587C162.775 214.687 198.175 184.187 210.175 138.887C212.975 128.187 213.675 108.087 211.675 96.3869C209.275 83.0869 205.275 70.0869 201.775 64.3869C198.775 59.4869 198.775 59.1869 198.575 44.3869C198.375 32.0869 197.975 28.1869 196.175 22.8869C189.275 1.88686 176.875 -4.61314 158.975 3.18686Z" fill="#DEFFFF"/>
</svg>
