<svg width="104" height="99" viewBox="0 0 104 99" fill="none" xmlns="http://www.w3.org/2000/svg">
<path d="M51.0889 93.804C73.6797 93.8592 94.3064 75.7076 97.7014 52.9997C99.023 45.7686 98.5353 38.3229 96.2819 31.3261C94.6122 26.3669 93.8844 21.1387 94.1356 15.9118C94.467 4.40539 91.9107 2.84885 81.2743 7.41022C79.5758 8.08943 77.9375 8.91001 76.3766 9.86375C72.8657 12.1113 69.6482 12.2517 65.4909 10.7799C55.4951 7.25092 45.4521 8.90987 36.235 13.5853C30.6834 16.4089 25.7357 18.1 19.5894 15.5563C16.7915 14.4125 13.2691 14.5999 10.1282 14.8313C5.55399 15.1624 3.49251 17.4936 5.01091 21.6504C8.51219 31.1821 7.45332 40.8159 7.5394 50.6264C7.69566 62.0957 12.346 73.045 20.4903 81.1198C28.6345 89.1945 39.6221 93.7494 51.0889 93.804V93.804Z" fill="#DEFFFF"/>
<path d="M98.3298 16.3011C98.1138 13.1205 98.7851 9.72271 98.1527 6.59817C96.8276 1.57052 94.1617 -0.535456 89.1025 0.332391C84.409 1.19835 79.8586 2.71319 75.5826 4.83365C74.2496 5.6079 72.7736 6.1039 71.2435 6.2909C69.7134 6.47791 68.1612 6.3523 66.681 5.92188C55.3118 2.69603 43.1295 4.08662 32.779 9.79133C29.5955 11.5092 25.8744 11.9399 22.3828 10.9946C17.4797 10.0263 12.455 9.83308 7.49211 10.4225C2.157 11.0631 -0.38454 14.8006 0.179995 20.2141C0.663163 23.8442 1.50621 27.4172 2.69639 30.8804C3.66862 33.8919 3.9063 37.0917 3.38979 40.2139C-0.497629 64.8471 13.2096 88.0533 35.9354 95.7825C62.1763 104.697 91.5134 89.3646 100.495 61.9408C104.101 51.2294 104.239 39.6535 100.887 28.8596C99.8257 24.7188 98.9724 20.5272 98.3298 16.3011ZM51.2682 93.5902C39.7961 93.5355 28.8042 88.9769 20.659 80.8956C12.5139 72.8143 7.86678 61.8566 7.71844 50.382C7.66304 40.6019 8.69141 30.9682 5.18995 21.406C3.64105 17.2494 5.73303 14.918 10.3072 14.5869C13.4481 14.3555 16.9706 14.1681 19.7684 15.3119C25.8843 17.8558 30.8625 16.1645 36.414 13.3409C45.6314 8.71126 55.6742 7.00654 65.67 10.5356C69.8274 12.0378 73.0448 11.8669 76.5556 9.61937C78.134 8.68943 79.7878 7.89399 81.4996 7.24157C92.1512 2.68012 94.692 4.23749 94.3606 15.7439C94.1093 20.9708 94.8375 26.1983 96.5072 31.1574C98.7606 38.1542 99.2483 45.6 97.9267 52.831C94.4857 75.4935 73.859 93.6453 51.2682 93.5902Z" fill="#DEFFFF"/>
<path d="M51.0889 93.804C73.6797 93.8592 94.3064 75.7076 97.7014 52.9997C99.023 45.7686 98.5353 38.3229 96.2819 31.3261C94.6122 26.3669 93.8844 21.1387 94.1356 15.9118C94.467 4.40539 91.9107 2.84885 81.2743 7.41022C79.5758 8.08943 77.9375 8.91001 76.3766 9.86375C72.8657 12.1113 69.6482 12.2517 65.4909 10.7799C55.4951 7.25092 45.4521 8.90987 36.235 13.5853C30.6834 16.4089 25.7357 18.1 19.5894 15.5563C16.7915 14.4125 13.2691 14.5999 10.1282 14.8313C5.55399 15.1624 3.49251 17.4936 5.01091 21.6504C8.51219 31.1821 7.45332 40.8159 7.5394 50.6264C7.69566 62.0957 12.346 73.045 20.4903 81.1198C28.6345 89.1945 39.6221 93.7494 51.0889 93.804V93.804Z" fill="#DEFFFF" stroke="#DEFFFF" stroke-width="3"/>
</svg>
