<svg width="87" height="84" viewBox="0 0 87 84" fill="none" xmlns="http://www.w3.org/2000/svg">
<path d="M11.1146 1.66188C8.44405 3.2026 6.2871 8.13289 5.25995 15.2202C4.60718 19.3028 3.61071 23.3229 2.28121 27.2378C-1.62194 37.7147 -0.0812239 52.6082 5.87621 62.777C9.47122 68.9398 18.202 76.7461 25.2893 80.2384C31.106 82.0928 37.1603 83.0961 43.2643 83.2172C49.6118 83.2867 55.9167 82.1721 61.8556 79.9303C79.1116 71.405 88.8696 52.0947 85.1718 33.7088C84.042 27.9568 84.0419 26.0052 85.069 23.5401C86.9179 19.0206 86.7125 13.474 84.5555 11.5225C82.3985 9.57089 72.7434 9.16004 66.6832 10.8035C63.6018 11.7279 61.6501 11.4198 55.2818 9.26275C49.2217 7.31118 45.4213 6.69489 37.9232 6.69489C28.987 6.69489 28.0625 6.48946 23.8512 3.61346C19.2291 0.429309 14.5042 -0.289692 11.1146 1.66188Z" fill="url(#paint0_radial_521_25)"/>
<path d="M11.1146 1.66188C8.44405 3.2026 6.2871 8.13289 5.25995 15.2202C4.60718 19.3028 3.61071 23.3229 2.28121 27.2378C-1.62194 37.7147 -0.0812239 52.6082 5.87621 62.777C9.47122 68.9398 18.202 76.7461 25.2893 80.2384C31.106 82.0928 37.1603 83.0961 43.2643 83.2172C49.6118 83.2867 55.9167 82.1721 61.8556 79.9303C79.1116 71.405 88.8696 52.0947 85.1718 33.7088C84.042 27.9568 84.0419 26.0052 85.069 23.5401C86.9179 19.0206 86.7125 13.474 84.5555 11.5225C82.3985 9.57089 72.7434 9.16004 66.6832 10.8035C63.6018 11.7279 61.6501 11.4198 55.2818 9.26275C49.2217 7.31118 45.4213 6.69489 37.9232 6.69489C28.987 6.69489 28.0625 6.48946 23.8512 3.61346C19.2291 0.429309 14.5042 -0.289692 11.1146 1.66188ZM22.516 7.41389C25.9056 9.98175 26.9327 10.1872 36.9987 10.2899C45.9349 10.4953 49.2217 11.0089 55.0765 13.1659C61.9583 15.7338 62.4719 15.7338 68.4293 14.3985C76.3384 12.4469 79.728 12.4469 81.5768 14.3985C83.2203 16.0419 82.7066 20.6641 80.3442 25.0808C79.2143 27.0324 79.2143 27.9568 80.3442 30.1138C81.2686 31.7572 81.7822 36.1739 81.7822 42.0287C81.7822 50.554 81.474 52.0947 78.3926 58.2575C76.1734 62.924 73.0381 67.0962 69.1731 70.5258C65.3081 73.9555 60.7926 76.5724 55.8953 78.2208C50.9981 79.8692 45.8193 80.5154 40.6671 80.1208C35.5149 79.7263 30.4947 78.2992 25.9055 75.9244C7.10879 66.4747 -1.21103 44.802 6.69798 25.6971C7.78815 22.7785 8.54611 19.7464 8.95765 16.6582C9.36692 13.6899 10.0547 10.7668 11.0119 7.92746C12.1418 5.15417 12.8608 4.6406 15.6341 4.6406C18.1505 4.86941 20.5441 5.83393 22.516 7.41389V7.41389Z" fill="#FF7596"/>
<defs>
<radialGradient id="paint0_radial_521_25" cx="0" cy="0" r="1" gradientUnits="userSpaceOnUse" gradientTransform="translate(43.2295 41.9011) rotate(90.25) scale(52.5994 54.8627)">
<stop stop-color="#FFF3E8"/>
<stop offset="1" stop-color="#FFDCE9"/>
</radialGradient>
</defs>
</svg>
