<svg width="205" height="320" viewBox="0 0 205 320" fill="none" xmlns="http://www.w3.org/2000/svg">
<path d="M-76.7131 0.797186C-83.0131 2.59719 -86.9131 5.5972 -92.1131 12.9972C-100.913 25.2972 -106.513 40.7972 -110.213 62.9972C-112.313 75.7972 -112.413 105.197 -110.313 118.297L-108.813 127.697L-112.113 134.897C-117.328 146.782 -121.274 159.184 -123.883 171.897C-125.783 181.397 -126.083 185.997 -125.983 203.997C-125.983 221.797 -125.583 226.597 -123.683 235.397C-115.483 273.597 -96.5831 306.597 -69.0831 330.797C-46.4166 350.655 -19.0505 364.39 10.4169 370.697C19.5169 372.597 23.8169 372.897 42.9169 372.897C62.0169 372.897 66.3169 372.597 75.4169 370.697C89.4859 367.777 103.105 363.002 115.917 356.497C162.817 333.097 195.217 287.997 203.017 235.297C205.217 219.997 204.517 192.297 201.417 178.197C197.367 158.496 189.923 139.649 179.417 122.497L173.317 112.397L174.817 103.297C178.944 78.639 175.2 53.3073 164.117 30.8972C156.517 15.1972 149.417 9.5972 137.417 9.4972C117.217 9.4972 74.3169 25.9972 55.8169 40.9972L51.7169 44.3972L44.3169 43.3972C33.5169 41.8972 -1.08309 43.6972 -8.68309 46.0972C-9.88309 46.3972 -11.6831 44.6972 -14.8831 40.2972C-19.9831 33.0972 -39.8831 13.4972 -46.8831 8.5972C-57.7131 1.1972 -68.1131 -1.50281 -76.7131 0.797186Z" fill="white"/>
<path d="M-76.7131 0.797186C-83.0131 2.59719 -86.9131 5.5972 -92.1131 12.9972C-100.913 25.2972 -106.513 40.7972 -110.213 62.9972C-112.313 75.7972 -112.413 105.197 -110.313 118.297L-108.813 127.697L-112.113 134.897C-117.328 146.782 -121.274 159.184 -123.883 171.897C-125.783 181.397 -126.083 185.997 -125.983 203.997C-125.983 221.797 -125.583 226.597 -123.683 235.397C-115.483 273.597 -96.5831 306.597 -69.0831 330.797C-46.4166 350.655 -19.0505 364.39 10.4169 370.697C19.5169 372.597 23.8169 372.897 42.9169 372.897C62.0169 372.897 66.3169 372.597 75.4169 370.697C89.4859 367.777 103.105 363.002 115.917 356.497C162.817 333.097 195.217 287.997 203.017 235.297C205.217 219.997 204.517 192.297 201.417 178.197C197.367 158.496 189.923 139.649 179.417 122.497L173.317 112.397L174.817 103.297C178.944 78.639 175.2 53.3073 164.117 30.8972C156.517 15.1972 149.417 9.5972 137.417 9.4972C117.217 9.4972 74.3169 25.9972 55.8169 40.9972L51.7169 44.3972L44.3169 43.3972C33.5169 41.8972 -1.08309 43.6972 -8.68309 46.0972C-9.88309 46.3972 -11.6831 44.6972 -14.8831 40.2972C-19.9831 33.0972 -39.8831 13.4972 -46.8831 8.5972C-57.7131 1.1972 -68.1131 -1.50281 -76.7131 0.797186ZM-60.2131 5.5972C-53.1131 8.1972 -44.7131 14.3972 -33.3131 25.2972C-24.9131 33.3972 -14.6131 45.6972 -14.6131 47.5972C-14.6131 48.0972 -15.2131 48.4972 -15.9131 48.4972C-18.2131 48.4972 -21.2131 51.2972 -20.1131 52.3972C-19.4131 53.0972 -16.7131 52.6972 -11.4131 50.9972C-0.813103 47.5972 16.3869 46.0972 36.7869 46.7972L53.6869 47.2972L58.1869 43.7972C72.2869 33.0972 93.6869 23.0972 115.487 17.0972C138.087 10.9972 144.187 11.2972 151.887 18.9972C157.487 24.5972 165.487 40.7972 168.887 53.4972C173.787 71.9972 174.087 86.9972 170.187 108.797C168.987 115.297 169.087 115.697 170.987 117.297C175.487 120.897 186.487 142.097 191.687 157.197C208.687 205.997 202.187 257.897 173.687 300.997C165.087 313.897 145.487 333.697 132.687 342.297C64.6869 388.197 -24.7131 376.197 -80.8131 313.797C-116.513 273.997 -131.213 215.997 -118.513 164.997C-115.781 153.981 -111.882 143.287 -106.883 133.097C-102.483 124.197 -102.383 124.097 -104.383 122.597C-108.783 119.097 -109.883 81.1972 -106.083 60.1972C-102.383 39.6972 -95.0831 21.5972 -86.7831 12.2972C-78.8831 3.59719 -70.8831 1.4972 -60.2131 5.5972Z" fill="#FF7596" fill-opacity="0.98"/>
<path d="M46.4869 187.697C44.5869 188.397 40.2869 191.397 37.0869 194.497C31.8869 199.297 31.1869 200.497 31.6869 202.697C31.8777 203.424 32.2409 204.095 32.7457 204.652C33.2505 205.209 33.882 205.636 34.5869 205.897C35.8869 206.197 43.6869 206.197 51.8869 205.897C65.8869 205.297 67.5869 205.397 78.0869 207.997C89.8869 210.797 92.8869 210.697 93.9869 207.297C94.7869 204.497 93.3869 203.297 82.8869 197.897C77.8869 195.297 71.2869 191.797 67.9869 190.097C61.3869 186.697 52.4869 185.697 46.4869 187.697Z" fill="#FF7596" fill-opacity="0.98"/>
<path d="M-2.75349 223.343C-6.38912 225.647 -10.0362 227.552 -10.8358 227.575C-11.6355 227.598 -13.4805 226.05 -15.0342 224.194C-18.1387 220.581 -19.3525 220.116 -21.1003 221.966C-22.6539 223.611 -19.9349 231.237 -16.2078 235.632L-13.1033 239.245L-19.435 241.727C-22.8993 243.026 -23.3642 244.26 -26.3407 245.125C-30.1437 246.125 -35.5055 246.488 -38.65 244.977C-40.3579 244.081 -41.757 242.692 -42.6655 240.99C-44.3649 237.537 -47.3494 238.123 -47.6406 241.933C-48.0946 247.048 -41.7657 251.469 -34.4687 251.26C-31.8698 251.186 -27.4088 249.758 -22.7707 247.524C-9.94172 241.355 -9.94174 241.355 -4.044 251.691C2.90191 263.697 9.13373 268.221 18.2357 268.161C22.9367 268.127 24.3247 267.687 25.4784 266.053C28.2658 262.072 26.6522 261.618 16.6963 263.303C12.3181 264.129 11.8126 263.943 7.91412 260.553C5.55791 258.619 1.51091 253.533 -1.01098 249.303C-3.53287 245.074 -6.34319 241.252 -6.95151 240.97C-7.55984 240.687 -4.86959 236.809 -0.114456 231.671C7.65083 223.345 9.15302 219.901 5.53449 219.304C4.73196 219.227 0.982093 221.035 -2.75349 223.343ZM-4.81823 231.605C-10.2559 237.363 -10.8557 237.38 -14.4172 231.779L-16.305 228.732L-13.1549 230.443C-10.1075 232.056 -10.0104 231.953 -5.38661 229.22C-3.75748 228.137 -2.04524 227.185 -0.265898 226.373C0.0311218 226.264 -2.10224 228.626 -4.81823 231.605Z" fill="#FF7596" fill-opacity="0.98"/>
<path d="M163.008 275C163.008 306.222 138.028 331.5 107.254 331.5C76.4802 331.5 51.5 306.222 51.5 275C51.5 243.778 76.4802 218.5 107.254 218.5C138.028 218.5 163.008 243.778 163.008 275Z" fill="#FFDCE9" stroke="#FF7596" stroke-width="3"/>
</svg>
