<svg width="337" height="295" viewBox="0 0 337 295" fill="none" xmlns="http://www.w3.org/2000/svg">
<path d="M149.347 0.611765C138.08 2.1094 126.998 4.75962 116.273 8.52077C101.995 13.3484 95.8326 13.3484 76.8304 8.93164C56.9038 4.30949 45.0916 3.07691 34.8202 4.51492C8.1144 8.31535 1.02715 24.0307 3.80044 73.2309C4.9303 93.3629 4.82756 95.5199 2.87599 107.948C-1.86117e-05 126.026 -0.718995 141.639 0.719008 154.683C4.9303 192.071 19.7212 222.886 46.0161 249.181C68.6132 271.881 95.5244 286.158 127.469 292.526C142.259 295.402 168.965 295.71 183.14 293.143C242.406 282.152 288.319 242.607 306.911 186.628C312.868 168.961 314.512 158.278 314.717 136.708C314.82 126.54 314.922 117.501 315.025 116.679C315.128 115.857 317.285 111.852 319.853 107.948C326.016 98.3959 333 84.6322 335.055 77.7503C337.006 71.1766 337.212 60.9051 335.568 56.0776C334.13 51.969 325.091 45.1898 314.409 40.0541C306.397 36.2537 289.244 31.4261 268.393 26.9067C258.019 24.647 253.807 23.1062 241.687 17.0461C226.177 9.34249 216.419 6.26106 195.466 2.66605C181.599 0.200907 159.926 -0.723523 149.347 0.611765Z" fill="url(#paint0_radial_521_40)"/>
<path d="M149.347 0.611765C138.08 2.1094 126.998 4.75962 116.273 8.52077C101.995 13.3484 95.8326 13.3484 76.8304 8.93164C56.9038 4.30949 45.0916 3.07691 34.8202 4.51492C8.1144 8.31535 1.02715 24.0307 3.80044 73.2309C4.9303 93.3629 4.82756 95.5199 2.87599 107.948C-1.86117e-05 126.026 -0.718995 141.639 0.719008 154.683C4.9303 192.071 19.7212 222.886 46.0161 249.181C68.6132 271.881 95.5244 286.158 127.469 292.526C142.259 295.402 168.965 295.71 183.14 293.143C242.406 282.152 288.319 242.607 306.911 186.628C312.868 168.961 314.512 158.278 314.717 136.708C314.82 126.54 314.922 117.501 315.025 116.679C315.128 115.857 317.285 111.852 319.853 107.948C326.016 98.3959 333 84.6322 335.055 77.7503C337.006 71.1766 337.212 60.9051 335.568 56.0776C334.13 51.969 325.091 45.1898 314.409 40.0541C306.397 36.2537 289.244 31.4261 268.393 26.9067C258.019 24.647 253.807 23.1062 241.687 17.0461C226.177 9.34249 216.419 6.26106 195.466 2.66605C181.599 0.200907 159.926 -0.723523 149.347 0.611765ZM197.623 6.67191C215.803 10.0615 226.383 13.5538 240.557 20.7438C252.575 26.9067 255.451 27.8311 271.885 31.5288C302.699 38.5134 315.95 43.341 326.426 51.7636C332.178 56.3857 332.281 56.4884 333.103 61.9323C334.438 71.0739 328.994 86.5837 318.928 102.196C310.403 115.241 310.711 114.111 310.917 133.627C311.019 147.083 310.608 153.759 309.068 162.901C299.207 219.804 258.84 266.539 204.196 283.898C185.502 289.856 178.929 290.78 156.434 290.78C139.281 290.677 134.248 290.267 125.928 288.418C112.997 285.717 100.466 281.368 88.6425 275.476C73.7377 268.216 60.1884 258.453 48.5839 246.613C27.5275 225.556 14.2773 201.521 7.29269 172.145C3.69769 156.635 2.87596 132.908 5.54654 116.679C7.18997 106.818 7.49814 99.2176 7.49814 70.4576C7.49814 34.713 7.90897 30.7071 12.223 22.1818C16.6397 13.2456 25.3705 8.7262 39.5451 8.0072C50.2274 7.49363 58.958 8.6235 77.9602 13.0402C96.1407 17.2515 101.995 17.0461 117.916 11.9104C128.133 8.52326 138.611 5.9811 149.244 4.30949C157.153 3.17963 186.632 4.61762 197.623 6.67191Z" fill="#FF7596"/>
<path d="M100.968 94.4927C92.7511 96.8552 73.8516 104.456 71.4892 106.408C70.0512 107.537 69.5376 108.77 69.9485 110.003C70.8729 112.365 77.6521 111.749 94.5999 108.051C101.174 106.613 109.802 105.38 113.602 105.38C121.511 105.38 124.49 103.942 123.874 100.245C123.052 94.2873 111.753 91.514 100.968 94.4927Z" fill="#FF7596"/>
<path d="M209.024 105.483C203.272 106.408 200.088 108.77 200.088 112.16C200.088 116.063 204.915 117.706 218.371 118.631C230.697 119.35 231.518 119.658 241.379 125.615C248.055 129.724 251.959 129.929 251.959 126.026C251.959 124.075 249.904 121.918 242.714 116.474C229.772 106.613 220.425 103.634 209.024 105.483Z" fill="#FF7596"/>
<path d="M151.504 118.635C151.504 120.278 155.27 126.51 157.153 129.42C157.153 129.762 157.564 130.242 159.207 129.42C160.851 128.598 164.343 125.654 165.884 124.284C166.397 123.086 167.116 120.689 165.884 120.689C164.651 120.689 159.207 119.662 156.64 119.149C154.928 118.293 151.504 116.992 151.504 118.635Z" fill="#DEFFFF"/>
<path d="M149.039 118.836C149.547 121.678 150.592 124.398 152.12 126.848L154.688 130.751L151.401 131.881C147.466 133.629 143.627 135.584 139.897 137.735C127.263 144.925 123.052 145.439 118.532 140.406C115.143 136.606 110.932 138.044 112.267 142.46C113.191 145.336 118.738 147.493 125.003 147.493C128.907 147.493 131.577 146.672 136.61 143.898C150.887 135.989 155.715 133.935 157.769 135.065C158.899 135.681 162.905 139.584 166.603 143.796C175.847 154.17 186.632 158.587 195.26 155.813C202.758 153.348 200.293 148.829 192.487 150.575C186.94 151.807 180.777 151.088 177.285 148.623C175.847 147.699 171.636 143.693 167.835 139.584L160.851 132.189L167.322 126.129C170.917 122.739 173.382 119.658 173.074 119.041C172.56 118.322 170.3 118.014 166.911 118.425C163.333 118.977 159.672 118.402 156.434 116.782C149.244 113.598 148.32 113.803 149.039 118.836ZM156.126 120.685C157.877 121.323 159.66 121.871 161.467 122.328L164.446 122.945L161.467 126.026C158.18 129.416 157.769 129.21 154.277 122.534C152.634 119.452 152.736 119.35 156.126 120.685V120.685Z" fill="#FF7596"/>
<path d="M290.482 183.217C285.784 200.982 265.935 211.293 245.911 205.857C225.886 200.422 213.786 181.439 218.485 163.674C223.184 145.91 243.032 135.599 263.057 141.035C283.081 146.47 295.181 165.453 290.482 183.217Z" fill="#FF7596" stroke="#FF7596" stroke-width="3"/>
<path d="M100.191 154.041C101.645 173.418 85.4216 190.718 63.6073 192.398C41.7931 194.078 23.1748 179.461 21.7208 160.084C20.2667 140.707 36.49 123.407 58.3042 121.727C80.1185 120.047 98.7368 134.664 100.191 154.041Z" fill="#FF7596" stroke="#FF7596" stroke-width="3"/>
<defs>
<radialGradient id="paint0_radial_521_40" cx="0" cy="0" r="1" gradientUnits="userSpaceOnUse" gradientTransform="translate(168.336 147.445) rotate(90) scale(147.445 168.336)">
<stop stop-color="#FFF3E8"/>
<stop offset="1" stop-color="#FFDCE9"/>
</radialGradient>
</defs>
</svg>
