<svg width="340" height="384" viewBox="0 0 340 384" fill="none" xmlns="http://www.w3.org/2000/svg">
<path d="M50.6248 0.818825C44.1538 2.66768 40.1479 5.74913 34.8067 13.35C25.7679 25.9839 20.0159 41.9046 16.2154 64.7072C14.0584 77.8547 13.9557 108.053 16.1127 121.508L17.6534 131.163L14.2639 138.559C8.90691 150.766 4.85459 163.505 2.17436 176.563C0.222785 186.321 -0.0853644 191.046 0.0173501 209.535C0.0173501 227.818 0.428211 232.748 2.37979 241.787C10.8024 281.024 30.2154 314.92 58.4619 339.777C81.7437 360.173 109.853 374.281 140.12 380.76C149.467 382.711 153.884 383.019 173.502 383.019C193.12 383.019 197.537 382.711 206.884 380.76C221.335 377.76 235.324 372.856 248.484 366.174C296.657 342.139 329.936 295.815 337.948 241.684C340.208 225.969 339.489 197.517 336.304 183.034C332.145 162.798 324.498 143.439 313.707 125.822L307.442 115.448L308.982 106.101C313.222 80.7737 309.376 54.7543 297.992 31.7359C290.186 15.6097 282.893 9.85771 270.567 9.75499C249.819 9.75499 205.754 26.7029 186.752 42.11L182.541 45.6023L174.94 44.5752C163.847 43.0345 128.308 44.8833 120.501 47.3485C119.269 47.6566 117.42 45.9105 114.133 41.391C108.895 33.9956 88.4545 13.8636 81.2645 8.83057C70.1405 1.2297 59.4582 -1.54361 50.6248 0.818825Z" fill="url(#paint0_radial_516_2)"/>
<path d="M50.6248 0.818825C44.1538 2.66768 40.1479 5.74913 34.8067 13.35C25.7679 25.9839 20.0159 41.9046 16.2154 64.7072C14.0584 77.8547 13.9557 108.053 16.1127 121.508L17.6534 131.163L14.2639 138.559C8.90691 150.766 4.85459 163.505 2.17436 176.563C0.222785 186.321 -0.0853644 191.046 0.0173501 209.535C0.0173501 227.818 0.428211 232.748 2.37979 241.787C10.8024 281.024 30.2154 314.92 58.4619 339.777C81.7437 360.173 109.853 374.281 140.12 380.76C149.467 382.711 153.884 383.019 173.502 383.019C193.12 383.019 197.537 382.711 206.884 380.76C221.335 377.76 235.324 372.856 248.484 366.174C296.657 342.139 329.936 295.815 337.948 241.684C340.208 225.969 339.489 197.517 336.304 183.034C332.145 162.798 324.498 143.439 313.707 125.822L307.442 115.448L308.982 106.101C313.222 80.7737 309.376 54.7543 297.992 31.7359C290.186 15.6097 282.893 9.85771 270.567 9.75499C249.819 9.75499 205.754 26.7029 186.752 42.11L182.541 45.6023L174.94 44.5752C163.847 43.0345 128.308 44.8833 120.501 47.3485C119.269 47.6566 117.42 45.9105 114.133 41.391C108.895 33.9956 88.4545 13.8636 81.2645 8.83057C70.1405 1.2297 59.4582 -1.54361 50.6248 0.818825ZM67.5727 5.74914C74.8654 8.41971 83.4934 14.788 95.2028 25.9839C103.831 34.3037 114.41 46.9376 114.41 48.8892C114.41 49.4028 113.794 49.8136 113.075 49.8136C110.713 49.8136 107.631 52.6896 108.761 53.8195C109.48 54.5385 112.253 54.1276 117.697 52.3815C128.585 48.8892 146.252 47.3485 167.206 48.0675L184.564 48.581L189.187 44.986C203.669 33.9956 225.65 23.7242 248.042 17.5613C271.255 11.2957 277.521 11.6039 285.43 19.5129C291.182 25.2649 299.399 41.9046 302.891 54.9494C307.924 73.9515 308.233 89.3587 304.227 111.75C302.994 118.427 303.097 118.838 305.048 120.481C309.671 124.179 320.969 145.954 326.31 161.464C343.772 211.589 337.095 264.898 307.822 309.168C298.988 322.418 278.856 342.755 265.709 351.589C195.863 398.735 104.036 386.409 46.4135 322.315C9.74442 281.435 -5.35461 221.86 7.69012 169.476C10.4965 158.161 14.501 147.177 19.6358 136.71C24.1553 127.568 24.258 127.466 22.2037 125.925C17.6842 122.33 16.5544 83.4012 20.4575 61.8312C24.258 40.7747 31.7561 22.1834 40.2814 12.631C48.3959 3.69483 56.613 1.53785 67.5727 5.74914Z" fill="#FF7596" fill-opacity="0.98"/>
<path d="M72.092 173.071C69.935 174.406 69.6269 179.131 71.5785 181.494C72.1947 182.315 76.0979 185.089 80.001 187.656C85.4059 191.368 90.4909 195.525 95.2028 200.085C105.474 210.356 109.275 210.664 109.275 201.523C109.275 197.414 102.598 186.835 96.6408 181.699C88.7318 174.817 76.3033 170.503 72.092 173.071Z" fill="#FF7596" fill-opacity="0.98"/>
<path d="M177.169 192.792C175.217 193.511 170.801 196.592 167.514 199.777C162.173 204.707 161.454 205.939 161.967 208.199C162.163 208.946 162.536 209.635 163.055 210.207C163.573 210.779 164.222 211.218 164.946 211.486C166.281 211.794 174.293 211.794 182.716 211.486C197.096 210.87 198.842 210.972 209.627 213.643C221.747 216.519 224.828 216.416 225.958 212.924C226.78 210.048 225.342 208.815 214.557 203.269C209.421 200.598 202.642 197.003 199.253 195.257C192.473 191.765 183.332 190.738 177.169 192.792Z" fill="#FF7596" fill-opacity="0.98"/>
<path d="M126.592 229.405C122.858 231.772 119.112 233.729 118.29 233.753C117.469 233.776 115.574 232.186 113.978 230.279C110.789 226.569 109.542 226.091 107.747 227.991C106.151 229.681 108.944 237.514 112.772 242.028L115.961 245.739L109.458 248.288C105.899 249.623 105.422 250.89 102.364 251.779C98.4582 252.805 92.9509 253.179 89.7211 251.627C87.9668 250.706 86.5297 249.279 85.5965 247.532C83.851 243.985 80.7855 244.587 80.4864 248.5C80.02 253.754 86.5207 258.295 94.0158 258.081C96.6853 258.004 101.267 256.537 106.031 254.243C119.209 247.907 119.209 247.907 125.266 258.523C132.401 270.855 138.802 275.502 148.151 275.44C152.979 275.405 154.405 274.953 155.59 273.275C158.453 269.186 156.796 268.719 146.57 270.45C142.073 271.298 141.553 271.108 137.549 267.626C135.129 265.64 130.972 260.415 128.382 256.071C125.791 251.726 122.905 247.801 122.28 247.511C121.655 247.22 124.418 243.237 129.303 237.959C137.279 229.408 138.822 225.87 135.105 225.257C134.281 225.178 130.429 227.035 126.592 229.405ZM124.471 237.892C118.886 243.806 118.27 243.823 114.612 238.071L112.673 234.941L115.908 236.698C119.038 238.355 119.138 238.25 123.887 235.442C125.561 234.33 127.319 233.352 129.147 232.518C129.452 232.406 127.261 234.832 124.471 237.892V237.892Z" fill="#FF7596" fill-opacity="0.98"/>
<path d="M296.894 282.465C296.894 314.557 271.218 340.539 239.586 340.539C207.953 340.539 182.277 314.557 182.277 282.465C182.277 250.373 207.953 224.39 239.586 224.39C271.218 224.39 296.894 250.373 296.894 282.465Z" fill="#FF7596" stroke="#FF7596" stroke-width="3"/>
<defs>
<radialGradient id="paint0_radial_516_2" cx="0" cy="0" r="1" gradientUnits="userSpaceOnUse" gradientTransform="translate(169.632 191.51) rotate(90) scale(191.51 169.632)">
<stop stop-color="#FFF3E8"/>
<stop offset="1" stop-color="#FFDCE9"/>
</radialGradient>
</defs>
</svg>
