<svg width="219" height="223" viewBox="0 0 219 223" fill="none" xmlns="http://www.w3.org/2000/svg">
<path d="M163.638 3.6242C157.838 6.30853 152.181 9.29124 146.69 12.5604L137.446 18.1069L121.011 18.2096C105.193 18.3124 104.166 18.4151 94.819 21.7019C83.2123 25.7078 74.9951 30.1245 64.1074 38.239C59.6907 41.6285 54.8631 44.8127 53.3224 45.429C51.7816 46.0453 44.1808 46.4561 36.3745 46.4561C20.351 46.4561 14.3936 47.7914 7.61443 52.7217C0.321709 57.9601 -1.32172 65.7664 1.96514 78.7085C3.91671 86.412 11.4149 102.538 16.037 109.009C19.2212 113.426 19.5293 114.556 20.6592 127.087C23.1243 155.333 31.6497 174.849 49.522 193.646C69.2431 214.292 94.2027 224.152 123.374 222.817C167.541 220.865 203.902 189.537 216.228 143.008C219.104 132.017 219.823 111.372 217.768 99.3541C215.303 85.693 211.194 72.3402 207.599 66.4854C204.518 61.4524 204.518 61.1443 204.313 45.9425C204.107 33.3087 203.696 29.3028 201.847 23.8589C194.76 2.28891 182.024 -4.38753 163.638 3.6242Z" fill="url(#paint0_radial_521_50)"/>
<path d="M163.638 3.6242C157.838 6.30853 152.181 9.29124 146.69 12.5604L137.446 18.1069L121.011 18.2096C105.193 18.3124 104.166 18.4151 94.819 21.7019C83.2123 25.7078 74.9951 30.1245 64.1074 38.239C59.6907 41.6285 54.8631 44.8127 53.3224 45.429C51.7816 46.0453 44.1808 46.4561 36.3745 46.4561C20.351 46.4561 14.3936 47.7914 7.61443 52.7217C0.321709 57.9601 -1.32172 65.7664 1.96514 78.7085C3.91671 86.412 11.4149 102.538 16.037 109.009C19.2212 113.426 19.5293 114.556 20.6592 127.087C23.1243 155.333 31.6497 174.849 49.522 193.646C69.2431 214.292 94.2027 224.152 123.374 222.817C167.541 220.865 203.902 189.537 216.228 143.008C219.104 132.017 219.823 111.372 217.768 99.3541C215.303 85.693 211.194 72.3402 207.599 66.4854C204.518 61.4524 204.518 61.1443 204.313 45.9425C204.107 33.3087 203.696 29.3028 201.847 23.8589C194.76 2.28891 182.024 -4.38753 163.638 3.6242ZM186.235 6.80835C191.576 10.3006 194.144 14.9228 197.02 26.5295C199.074 34.4385 199.588 39.0607 199.588 49.1267C199.588 61.4524 199.69 62.0687 202.669 67.4099C216.33 91.5478 219.103 126.882 209.448 152.663C194.863 191.386 163.638 215.832 124.093 219.53C116.492 220.249 104.269 218.914 94.1 216.449C84.753 214.086 68.4214 205.458 60.4097 198.782C37.8125 179.779 25.7949 154.923 24.2542 124.006C23.7406 113.631 23.4325 112.399 20.7619 109.009C12.6475 98.6351 4.2249 77.9895 4.12218 67.9234C4.12218 60.4253 6.5873 56.8303 14.4963 52.9271C20.1456 50.1538 20.7619 50.0511 36.2718 50.2565C54.4522 50.3593 54.4522 50.3593 67.0861 40.8068C76.4331 33.7195 92.7647 25.7078 102.523 23.3454C108.275 21.9074 112.383 21.7019 122.963 22.2155L136.316 22.8318L144.327 18.1069C170.314 3.11063 177.71 1.15905 186.235 6.80835V6.80835Z" fill="#FF7596"/>
<path d="M93.3206 138.103C99.2774 151.723 92.3145 168.26 77.4614 174.926C62.6083 181.592 45.8394 175.707 39.8826 162.086C33.9257 148.465 40.8887 131.929 55.7418 125.263C70.5949 118.596 87.3638 124.482 93.3206 138.103Z" fill="#FF7596" stroke="#FF7596" stroke-width="3"/>
<path d="M216.602 111.282C216.602 125.053 204.096 136.488 188.315 136.488C172.534 136.488 160.028 125.053 160.028 111.282C160.028 97.5115 172.534 86.0767 188.315 86.0767C204.096 86.0767 216.602 97.5115 216.602 111.282Z" fill="#FF7596" stroke="#FF7596" stroke-width="3"/>
<defs>
<radialGradient id="paint0_radial_521_50" cx="0" cy="0" r="1" gradientUnits="userSpaceOnUse" gradientTransform="translate(109.645 111.644) rotate(90) scale(111.293 109.298)">
<stop stop-color="#FFF3E8"/>
<stop offset="1" stop-color="#FFDCE9"/>
</radialGradient>
</defs>
</svg>
