<svg width="328" height="288" viewBox="0 0 328 288" fill="none" xmlns="http://www.w3.org/2000/svg">
<path d="M145.4 0.595598C134.431 2.05365 123.642 4.63384 113.2 8.29559C99.3 12.9956 93.3 12.9956 74.8 8.6956C55.4 4.1956 43.9 2.9956 33.9 4.3956C7.89996 8.0956 1.00001 23.3956 3.70001 71.2956C4.80001 90.8956 4.69998 92.9956 2.79998 105.096C-1.81198e-05 122.696 -0.699994 137.896 0.700006 150.596C4.80001 186.996 19.2 216.996 44.8 242.596C66.8 264.696 93 278.596 124.1 284.796C138.5 287.596 164.5 287.896 178.3 285.396C236 274.696 280.7 236.196 298.8 181.696C304.6 164.496 306.2 154.096 306.4 133.096C306.5 123.196 306.6 114.396 306.7 113.596C306.8 112.796 308.9 108.896 311.4 105.096C317.4 95.7956 324.2 82.3956 326.2 75.6956C328.1 69.2956 328.3 59.2956 326.7 54.5956C325.3 50.5956 316.5 43.9956 306.1 38.9956C298.3 35.2956 281.6 30.5956 261.3 26.1956C251.2 23.9956 247.1 22.4956 235.3 16.5956C220.2 9.0956 210.7 6.0956 190.3 2.5956C176.8 0.195598 155.7 -0.704402 145.4 0.595598Z" fill="white"/>
<path d="M145.4 0.595598C134.431 2.05365 123.642 4.63384 113.2 8.29559C99.3 12.9956 93.3 12.9956 74.8 8.6956C55.4 4.1956 43.9 2.9956 33.9 4.3956C7.89996 8.0956 1.00001 23.3956 3.70001 71.2956C4.80001 90.8956 4.69998 92.9956 2.79998 105.096C-1.81198e-05 122.696 -0.699994 137.896 0.700006 150.596C4.80001 186.996 19.2 216.996 44.8 242.596C66.8 264.696 93 278.596 124.1 284.796C138.5 287.596 164.5 287.896 178.3 285.396C236 274.696 280.7 236.196 298.8 181.696C304.6 164.496 306.2 154.096 306.4 133.096C306.5 123.196 306.6 114.396 306.7 113.596C306.8 112.796 308.9 108.896 311.4 105.096C317.4 95.7956 324.2 82.3956 326.2 75.6956C328.1 69.2956 328.3 59.2956 326.7 54.5956C325.3 50.5956 316.5 43.9956 306.1 38.9956C298.3 35.2956 281.6 30.5956 261.3 26.1956C251.2 23.9956 247.1 22.4956 235.3 16.5956C220.2 9.0956 210.7 6.0956 190.3 2.5956C176.8 0.195598 155.7 -0.704402 145.4 0.595598ZM192.4 6.49559C210.1 9.79559 220.4 13.1956 234.2 20.1956C245.9 26.1956 248.7 27.0956 264.7 30.6956C294.7 37.4956 307.6 42.1956 317.8 50.3956C323.4 54.8956 323.5 54.9956 324.3 60.2956C325.6 69.1956 320.3 84.2956 310.5 99.4956C302.2 112.196 302.5 111.096 302.7 130.096C302.8 143.196 302.4 149.696 300.9 158.596C291.3 213.996 252 259.496 198.8 276.396C180.6 282.196 174.2 283.096 152.3 283.096C135.6 282.996 130.7 282.596 122.6 280.796C110.011 278.167 97.8108 273.932 86.3 268.196C71.7891 261.128 58.5978 251.623 47.3 240.096C26.8 219.596 13.9 196.196 7.09997 167.596C3.59997 152.496 2.79996 129.396 5.39996 113.596C6.99996 103.996 7.29998 96.5956 7.29998 68.5956C7.29998 33.7956 7.69996 29.8956 11.9 21.5956C16.2 12.8956 24.7 8.49559 38.5 7.79559C48.9 7.29559 57.4 8.3956 75.9 12.6956C93.6 16.7956 99.3 16.5956 114.8 11.5956C124.747 8.29801 134.948 5.82303 145.3 4.1956C153 3.0956 181.7 4.49559 192.4 6.49559Z" fill="#FF7596"/>
<path d="M98.3 91.9956C90.3 94.2956 71.8999 101.696 69.5999 103.596C68.1999 104.696 67.6999 105.896 68.0999 107.096C68.9999 109.396 75.5999 108.796 92.0999 105.196C98.4999 103.796 106.9 102.596 110.6 102.596C118.3 102.596 121.2 101.196 120.6 97.5956C119.8 91.7956 108.8 89.0956 98.3 91.9956Z" fill="#FF7596"/>
<path d="M203.5 102.696C197.9 103.596 194.8 105.896 194.8 109.196C194.8 112.996 199.5 114.596 212.6 115.496C224.6 116.196 225.4 116.496 235 122.296C241.5 126.296 245.3 126.496 245.3 122.696C245.3 120.796 243.3 118.696 236.3 113.396C223.7 103.796 214.6 100.896 203.5 102.696Z" fill="#FF7596"/>
<path d="M147.5 115.5C147.5 117.1 151.167 123.167 153 126C153 126.333 153.4 126.8 155 126C156.6 125.2 160 122.333 161.5 121C162 119.833 162.7 117.5 161.5 117.5C160.3 117.5 155 116.5 152.5 116C150.833 115.167 147.5 113.9 147.5 115.5Z" fill="#DEFFFF"/>
<path d="M145.1 115.696C145.595 118.463 146.613 121.11 148.1 123.496L150.6 127.296L147.4 128.396C143.569 130.098 139.831 132.001 136.2 134.096C123.9 141.096 119.8 141.596 115.4 136.696C112.1 132.996 108 134.396 109.3 138.696C110.2 141.496 115.6 143.596 121.7 143.596C125.5 143.596 128.1 142.796 133 140.096C146.9 132.396 151.6 130.396 153.6 131.496C154.7 132.096 158.6 135.896 162.2 139.996C171.2 150.096 181.7 154.396 190.1 151.696C197.4 149.296 195 144.896 187.4 146.596C182 147.796 176 147.096 172.6 144.696C171.2 143.796 167.1 139.896 163.4 135.896L156.6 128.696L162.9 122.796C166.4 119.496 168.8 116.496 168.5 115.896C168 115.196 165.8 114.896 162.5 115.296C159.016 115.833 155.452 115.273 152.3 113.696C145.3 110.596 144.4 110.796 145.1 115.696ZM152 117.496C153.705 118.117 155.441 118.651 157.2 119.096L160.1 119.696L157.2 122.696C154 125.996 153.6 125.796 150.2 119.296C148.6 116.296 148.7 116.196 152 117.496V117.496Z" fill="#FF7596"/>
<path d="M282.768 178.365C278.2 195.635 258.9 205.666 239.422 200.379C219.944 195.092 208.181 176.63 212.749 159.36C217.317 142.089 236.617 132.059 256.095 137.346C275.573 142.633 287.336 161.095 282.768 178.365Z" fill="#FFDCE9" stroke="#FF7596" stroke-width="3"/>
<path d="M97.5036 149.973C98.9172 168.813 83.1432 185.64 61.9234 187.274C40.7036 188.908 22.6 174.69 21.1863 155.85C19.7726 137.011 35.5466 120.184 56.7664 118.549C77.9862 116.915 96.0899 131.134 97.5036 149.973Z" fill="#FFDCE9" stroke="#FF7596" stroke-width="3"/>
</svg>
