<svg width="84" height="81" viewBox="0 0 84 81" fill="none" xmlns="http://www.w3.org/2000/svg">
<path d="M10.692 1.05131C8.09195 2.55131 5.992 7.35131 4.992 14.2513C4.35648 18.226 3.38634 22.1399 2.09198 25.9513C-1.70802 36.1513 -0.208024 50.6513 5.59198 60.5513C9.09198 66.5513 17.592 74.1513 24.492 77.5513C30.155 79.3567 36.0494 80.3334 41.992 80.4513C48.1718 80.5191 54.31 79.4338 60.092 77.2513C76.892 68.9513 86.3921 50.1513 82.7921 32.2513C81.6921 26.6513 81.692 24.7513 82.692 22.3513C84.492 17.9513 84.292 12.5513 82.192 10.6513C80.092 8.75131 70.6921 8.35131 64.7921 9.95131C61.7921 10.8513 59.892 10.5513 53.692 8.45131C47.792 6.55131 44.092 5.95131 36.792 5.95131C28.092 5.95131 27.192 5.75131 23.092 2.95131C18.592 -0.148686 13.992 -0.848686 10.692 1.05131Z" fill="#DEFFFF"/>
</svg>
