<svg width="328" height="288" viewBox="0 0 328 288" fill="none" xmlns="http://www.w3.org/2000/svg">
<path d="M145.4 0.595598C134.431 2.05365 123.642 4.63384 113.2 8.29559C99.3 12.9956 93.3 12.9956 74.8 8.6956C55.4 4.1956 43.9 2.9956 33.9 4.3956C7.89996 8.0956 1.00001 23.3956 3.70001 71.2956C4.80001 90.8956 4.69998 92.9956 2.79998 105.096C-1.81198e-05 122.696 -0.699994 137.896 0.700006 150.596C4.80001 186.996 19.2 216.996 44.8 242.596C66.8 264.696 93 278.596 124.1 284.796C138.5 287.596 164.5 287.896 178.3 285.396C236 274.696 280.7 236.196 298.8 181.696C304.6 164.496 306.2 154.096 306.4 133.096C306.5 123.196 306.6 114.396 306.7 113.596C306.8 112.796 308.9 108.896 311.4 105.096C317.4 95.7956 324.2 82.3956 326.2 75.6956C328.1 69.2956 328.3 59.2956 326.7 54.5956C325.3 50.5956 316.5 43.9956 306.1 38.9956C298.3 35.2956 281.6 30.5956 261.3 26.1956C251.2 23.9956 247.1 22.4956 235.3 16.5956C220.2 9.0956 210.7 6.0956 190.3 2.5956C176.8 0.195598 155.7 -0.704402 145.4 0.595598Z" fill="#DEFFFF"/>
</svg>
