<svg width="468" height="505" viewBox="0 0 468 505" fill="none" xmlns="http://www.w3.org/2000/svg">
<path d="M337.679 0.572537C316.109 3.96211 288.787 19.2666 259.719 44.3289L249.961 52.8542L239.69 53.8813C204.356 57.579 162.962 71.9591 124.752 93.94L113.454 100.514L106.264 98.254C92.6028 94.1454 68.2594 88.0852 58.6043 86.4418C46.0731 84.2848 30.7687 84.2848 23.6814 86.4418C12.6909 89.626 4.26836 101.335 1.49507 117.256C-1.48365 133.896 -0.045651 151.974 6.11722 176.112C11.1502 195.525 11.4584 204.153 7.65793 222.744C3.8575 242.054 2.72763 256.126 3.34391 279.237C3.85749 301.834 5.80905 315.598 11.3556 336.449C28.4062 400.645 73.3952 455.392 132.456 483.741C179.294 506.236 233.63 510.858 284.884 496.683C336.858 482.201 383.798 447.175 415.023 399.413C450.357 345.179 462.58 277.183 448.611 212.164C440.291 173.236 418.516 131.328 392.324 104.006L385.647 96.9187L385.544 80.8952C385.442 63.4338 383.901 53.7786 377.738 31.9004C372.294 12.3847 368.699 6.42725 359.763 2.42138C354.627 0.161667 345.486 -0.660036 337.679 0.572537Z" fill="#DEFFFF"/>
<path d="M337.679 0.572537C316.109 3.96211 288.787 19.2666 259.719 44.3289L249.961 52.8542L239.69 53.8813C204.356 57.579 162.962 71.9591 124.752 93.94L113.454 100.514L106.264 98.254C92.6028 94.1454 68.2594 88.0852 58.6043 86.4418C46.0731 84.2848 30.7687 84.2848 23.6814 86.4418C12.6909 89.626 4.26836 101.335 1.49507 117.256C-1.48365 133.896 -0.045651 151.974 6.11722 176.112C11.1502 195.525 11.4584 204.153 7.65793 222.744C3.8575 242.054 2.72763 256.126 3.34391 279.237C3.85749 301.834 5.80905 315.598 11.3556 336.449C28.4062 400.645 73.3952 455.392 132.456 483.741C179.294 506.236 233.63 510.858 284.884 496.683C336.858 482.201 383.798 447.175 415.023 399.413C450.357 345.179 462.58 277.183 448.611 212.164C440.291 173.236 418.516 131.328 392.324 104.006L385.647 96.9187L385.544 80.8952C385.442 63.4338 383.901 53.7786 377.738 31.9004C372.294 12.3847 368.699 6.42725 359.763 2.42138C354.627 0.161667 345.486 -0.660036 337.679 0.572537Z" fill="white"/>
<path d="M337.679 0.572537C316.109 3.96211 288.787 19.2666 259.719 44.3289L249.961 52.8542L239.69 53.8813C204.356 57.579 162.962 71.9591 124.752 93.94L113.454 100.514L106.264 98.254C92.6028 94.1454 68.2594 88.0852 58.6043 86.4418C46.0731 84.2848 30.7687 84.2848 23.6814 86.4418C12.6909 89.626 4.26836 101.335 1.49507 117.256C-1.48365 133.896 -0.045651 151.974 6.11722 176.112C11.1502 195.525 11.4584 204.153 7.65793 222.744C3.8575 242.054 2.72763 256.126 3.34391 279.237C3.85749 301.834 5.80905 315.598 11.3556 336.449C28.4062 400.645 73.3952 455.392 132.456 483.741C179.294 506.236 233.63 510.858 284.884 496.683C336.858 482.201 383.798 447.175 415.023 399.413C450.357 345.179 462.58 277.183 448.611 212.164C440.291 173.236 418.516 131.328 392.324 104.006L385.647 96.9187L385.544 80.8952C385.442 63.4338 383.901 53.7786 377.738 31.9004C372.294 12.3847 368.699 6.42725 359.763 2.42138C354.627 0.161667 345.486 -0.660036 337.679 0.572537ZM355.86 4.78384C362.331 6.52998 367.672 12.8983 370.959 22.6561C377.943 42.9936 382.052 64.9745 382.052 81.4088V93.221L376.3 87.9825C371.062 83.2577 368.699 82.2305 368.699 84.9011C368.699 85.4147 373.835 90.7558 380.1 96.9187C417.078 132.561 440.086 177.96 448.508 231.68C450.973 248.012 450.973 282.935 448.406 299.472C432.69 401.878 360.174 479.427 263.109 497.916C252.735 499.867 247.599 500.278 225.926 500.278C199.529 500.278 194.085 499.765 175.185 495.04C104.518 477.578 47.1003 425.194 21.0108 354.526C5.39821 312.208 2.31681 264.446 12.1774 219.354C15.3615 205.077 14.5398 192.546 9.19865 172.619L4.67919 156.185V137.183C4.57647 115.921 5.50094 111.299 11.4584 101.233C18.2375 90.0368 28.0981 86.5445 47.3057 88.8042C61.4803 90.345 75.2441 93.3237 94.2463 98.8703C114.995 104.93 115.405 104.93 117.973 102.568C120.747 100 148.582 85.4147 162.346 79.3545C177.342 72.6781 204.561 63.8446 219.866 60.6605C229.066 58.7612 238.414 57.6614 247.804 57.3736C256.124 57.0655 263.211 56.3465 263.622 55.7302C264.444 54.4976 261.979 52.9569 258.897 52.9569C256.432 52.9569 256.432 52.9569 258.384 50.7999C265.266 43.0963 291.663 23.9914 306.043 16.1851C325.354 5.70827 343.842 1.49697 355.86 4.78384Z" fill="#FF7596"/>
<path d="M320.423 153.823C306.454 160.704 292.793 179.501 290.123 195.422C289.506 199.53 289.609 199.839 292.074 200.455C296.183 201.482 300.497 199.12 305.222 193.265C311.795 185.253 318.575 178.371 322.17 176.112C326.118 173.998 330.201 172.145 334.393 170.565C339.22 168.613 344.15 166.251 345.178 165.327C347.848 162.861 347.746 157.623 344.87 154.85C339.015 149.406 329.873 148.995 320.423 153.823Z" fill="#FF7596"/>
<path d="M271.68 246.001L261.408 250.623C262.435 251.822 264.592 254.218 265.003 254.218C265.517 254.218 271.68 260.895 273.22 261.922C274.453 262.744 275.103 257.129 275.275 254.218C275.617 251.479 276.302 245.077 276.302 241.379C276.302 237.681 273.22 242.92 271.68 246.001Z" fill="#DEFFFF"/>
<path d="M148.89 223.668C142.008 227.058 132.456 235.994 116.227 253.969C108.832 262.289 107.804 263.727 108.832 265.576C111.502 270.506 120.541 266.706 136.667 253.764C145.706 246.471 151.869 242.876 162.038 238.87C173.85 234.145 177.137 231.885 177.137 228.085C177.137 223.155 171.898 220.381 162.757 220.381C156.491 220.381 154.334 220.895 148.89 223.668Z" fill="#FF7596"/>
<path d="M275.229 238.562C269.272 246.574 263.52 248.628 252.94 246.676C249.14 245.957 248.523 246.06 248.523 247.498C248.523 248.422 249.756 249.655 251.399 250.271C257.194 252.357 262.556 255.49 267.217 259.516L271.223 263.316L262.39 274.409C243.901 297.931 241.333 299.985 234.041 298.136C231.062 297.417 229.624 297.52 228.494 298.444C226.337 300.191 226.542 301.218 229.521 303.169C231.678 304.607 232.808 304.607 237.122 303.58C243.285 302.142 249.14 297.315 256.843 287.351C270.71 269.684 273.483 266.603 275.537 266.603C276.667 266.603 280.776 268.452 284.679 270.712C296.696 277.593 300.702 278.518 306.865 275.539C310.152 273.998 313.542 268.144 312.72 265.576C311.693 262.186 308.509 263.213 305.324 267.836C300.805 274.717 297.826 274.307 282.214 264.857C278.413 262.597 276.256 260.645 276.256 259.413C276.878 255.123 277.735 250.872 278.824 246.676C280.262 240.719 281.392 235.378 281.392 234.761C281.392 232.296 278.516 234.042 275.229 238.562ZM273.688 251.709C273.315 253.773 272.766 255.8 272.045 257.77C271.839 257.975 269.991 256.742 268.039 255.099C265.882 253.25 264.958 251.812 265.677 251.504C267.313 250.709 268.863 249.745 270.299 248.628C271.547 247.619 272.93 246.79 274.407 246.163C274.715 246.06 274.407 248.628 273.688 251.709Z" fill="#FF7596"/>
<path d="M141.115 342.553C141.115 372.092 117.481 396.005 88.3691 396.005C59.2568 396.005 35.6237 372.092 35.6237 342.553C35.6237 313.013 59.2568 289.1 88.3691 289.1C117.481 289.1 141.115 313.013 141.115 342.553Z" fill="#FFDCE9" stroke="#FF7596" stroke-width="3"/>
<path d="M465.573 213.133C465.573 242.672 441.94 266.585 412.828 266.585C383.715 266.585 360.082 242.672 360.082 213.133C360.082 183.593 383.715 159.68 412.828 159.68C441.94 159.68 465.573 183.593 465.573 213.133Z" fill="#FFDCE9" stroke="#FF7596" stroke-width="3"/>
</svg>
