<svg width="384" height="318" viewBox="0 0 384 318" fill="none" xmlns="http://www.w3.org/2000/svg">
<path d="M328.756 0.557406C307.756 3.85741 281.156 18.7574 252.856 43.1574L243.356 51.4574L233.356 52.4574C198.956 56.0574 158.656 70.0574 121.456 91.4574L110.456 97.8574L103.456 95.6574C90.1556 91.6574 66.4555 85.7574 57.0555 84.1574C44.8555 82.0574 29.9555 82.0574 23.0555 84.1574C12.3555 87.2574 4.15556 98.6574 1.45556 114.157C-1.44444 130.357 -0.0444446 147.957 5.95556 171.457C10.8556 190.357 11.1556 198.757 7.45556 216.857C3.75556 235.657 2.65554 249.357 3.25554 271.857C3.75554 293.857 5.65553 307.257 11.0555 327.557C27.6555 390.057 71.4556 443.357 128.956 470.957C174.556 492.857 227.456 497.357 277.356 483.557C327.956 469.457 373.656 435.357 404.056 388.857C438.456 336.057 450.356 269.857 436.756 206.557C428.656 168.657 407.456 127.857 381.956 101.257L375.456 94.3574L375.356 78.7574C375.256 61.7574 373.756 52.3574 367.756 31.0574C362.456 12.0574 358.956 6.25739 350.256 2.35739C345.256 0.157394 336.356 -0.642594 328.756 0.557406Z" fill="white"/>
<path d="M328.756 0.557406C307.756 3.85741 281.156 18.7574 252.856 43.1574L243.356 51.4574L233.356 52.4574C198.956 56.0574 158.656 70.0574 121.456 91.4574L110.456 97.8574L103.456 95.6574C90.1556 91.6574 66.4555 85.7574 57.0555 84.1574C44.8555 82.0574 29.9555 82.0574 23.0555 84.1574C12.3555 87.2574 4.15556 98.6574 1.45556 114.157C-1.44444 130.357 -0.0444446 147.957 5.95556 171.457C10.8556 190.357 11.1556 198.757 7.45556 216.857C3.75556 235.657 2.65554 249.357 3.25554 271.857C3.75554 293.857 5.65553 307.257 11.0555 327.557C27.6555 390.057 71.4556 443.357 128.956 470.957C174.556 492.857 227.456 497.357 277.356 483.557C327.956 469.457 373.656 435.357 404.056 388.857C438.456 336.057 450.356 269.857 436.756 206.557C428.656 168.657 407.456 127.857 381.956 101.257L375.456 94.3574L375.356 78.7574C375.256 61.7574 373.756 52.3574 367.756 31.0574C362.456 12.0574 358.956 6.25739 350.256 2.35739C345.256 0.157394 336.356 -0.642594 328.756 0.557406ZM346.456 4.65741C352.756 6.35741 357.956 12.5574 361.156 22.0574C367.956 41.8574 371.956 63.2574 371.956 79.2574V90.7574L366.356 85.6574C361.256 81.0574 358.956 80.0574 358.956 82.6574C358.956 83.1574 363.956 88.3574 370.056 94.3574C406.056 129.057 428.456 173.257 436.656 225.557C439.056 241.457 439.056 275.457 436.556 291.557C421.256 391.257 350.656 466.757 256.156 484.757C246.056 486.657 241.056 487.057 219.956 487.057C194.256 487.057 188.956 486.557 170.556 481.957C101.756 464.957 45.8556 413.957 20.4556 345.157C5.25556 303.957 2.25558 257.457 11.8556 213.557C14.9556 199.657 14.1556 187.457 8.95556 168.057L4.55553 152.057V133.557C4.45553 112.857 5.35557 108.357 11.1556 98.5574C17.7556 87.6574 27.3555 84.2574 46.0555 86.4574C59.8555 87.9574 73.2556 90.8574 91.7556 96.2574C111.956 102.157 112.356 102.157 114.856 99.8574C117.556 97.3574 144.656 83.1574 158.056 77.2574C172.656 70.7574 199.156 62.1574 214.056 59.0574C223.013 57.2083 232.114 56.1376 241.256 55.8574C249.356 55.5574 256.256 54.8574 256.656 54.2574C257.456 53.0574 255.056 51.5574 252.056 51.5574C249.656 51.5574 249.656 51.5574 251.556 49.4574C258.256 41.9574 283.956 23.3574 297.956 15.7574C316.756 5.55742 334.756 1.45741 346.456 4.65741Z" fill="#FF7596"/>
<path d="M311.956 149.757C298.356 156.457 285.056 174.757 282.456 190.257C281.856 194.257 281.956 194.557 284.356 195.157C288.356 196.157 292.556 193.857 297.156 188.157C303.556 180.357 310.156 173.657 313.656 171.457C317.5 169.399 321.475 167.595 325.556 166.057C330.256 164.157 335.056 161.857 336.056 160.957C338.656 158.557 338.556 153.457 335.756 150.757C330.056 145.457 321.156 145.057 311.956 149.757Z" fill="#FF7596"/>
<path d="M264.5 239.5L254.5 244C255.5 245.167 257.6 247.5 258 247.5C258.5 247.5 264.5 254 266 255C267.2 255.8 267.833 250.333 268 247.5C268.333 244.833 269 238.6 269 235C269 231.4 266 236.5 264.5 239.5Z" fill="#DEFFFF"/>
<path d="M144.956 217.757C138.256 221.057 128.956 229.757 113.156 247.257C105.956 255.357 104.956 256.757 105.956 258.557C108.556 263.357 117.356 259.657 133.056 247.057C141.856 239.957 147.856 236.457 157.756 232.557C169.256 227.957 172.456 225.757 172.456 222.057C172.456 217.257 167.356 214.557 158.456 214.557C152.356 214.557 150.256 215.057 144.956 217.757Z" fill="#FF7596"/>
<path d="M267.956 232.257C262.156 240.057 256.556 242.057 246.256 240.157C242.556 239.457 241.956 239.557 241.956 240.957C241.956 241.857 243.156 243.057 244.756 243.657C250.397 245.688 255.617 248.739 260.156 252.657L264.056 256.357L255.456 267.157C237.456 290.057 234.956 292.057 227.856 290.257C224.956 289.557 223.556 289.657 222.456 290.557C220.356 292.257 220.556 293.257 223.456 295.157C225.556 296.557 226.656 296.557 230.856 295.557C236.856 294.157 242.556 289.457 250.056 279.757C263.556 262.557 266.256 259.557 268.256 259.557C269.356 259.557 273.356 261.357 277.156 263.557C288.856 270.257 292.756 271.157 298.756 268.257C301.956 266.757 305.256 261.057 304.456 258.557C303.456 255.257 300.356 256.257 297.256 260.757C292.856 267.457 289.956 267.057 274.756 257.857C271.056 255.657 268.956 253.757 268.956 252.557C269.561 248.381 270.395 244.242 271.456 240.157C272.856 234.357 273.956 229.157 273.956 228.557C273.956 226.157 271.156 227.857 267.956 232.257ZM266.456 245.057C266.093 247.066 265.557 249.04 264.856 250.957C264.656 251.157 262.856 249.957 260.956 248.357C258.856 246.557 257.956 245.157 258.656 244.857C260.249 244.084 261.757 243.145 263.156 242.057C264.371 241.075 265.717 240.268 267.156 239.657C267.456 239.557 267.156 242.057 266.456 245.057Z" fill="#FF7596"/>
<path d="M137.346 333.5C137.346 362.237 114.354 385.5 86.0338 385.5C57.7132 385.5 34.7219 362.237 34.7219 333.5C34.7219 304.763 57.7132 281.5 86.0338 281.5C114.354 281.5 137.346 304.763 137.346 333.5Z" fill="#FFDCE9" stroke="#FF7596" stroke-width="3"/>
<path d="M453.23 207.5C453.23 236.237 430.238 259.5 401.918 259.5C373.597 259.5 350.606 236.237 350.606 207.5C350.606 178.763 373.597 155.5 401.918 155.5C430.238 155.5 453.23 178.763 453.23 207.5Z" fill="#FFDCE9" stroke="#FF7596" stroke-width="3"/>
</svg>
