<svg width="213" height="217" viewBox="0 0 213 217" fill="none" xmlns="http://www.w3.org/2000/svg">
<path d="M158.975 3.18686C153.329 5.80026 147.821 8.70414 142.475 11.8869L133.475 17.2869L117.475 17.3869C102.075 17.4869 101.075 17.5869 91.975 20.7869C80.675 24.6869 72.675 28.9869 62.075 36.8869C57.775 40.1869 53.075 43.2869 51.575 43.8869C50.075 44.4869 42.675 44.8869 35.075 44.8869C19.475 44.8869 13.675 46.1869 7.07498 50.9869C-0.0250239 56.0869 -1.62502 63.6869 1.57498 76.2869C3.47498 83.7869 10.775 99.4869 15.275 105.787C18.375 110.087 18.675 111.187 19.775 123.387C22.175 150.887 30.475 169.887 47.875 188.187C67.075 208.287 91.375 217.887 119.775 216.587C162.775 214.687 198.175 184.187 210.175 138.887C212.975 128.187 213.675 108.087 211.675 96.3869C209.275 83.0869 205.275 70.0869 201.775 64.3869C198.775 59.4869 198.775 59.1869 198.575 44.3869C198.375 32.0869 197.975 28.1869 196.175 22.8869C189.275 1.88686 176.875 -4.61314 158.975 3.18686Z" fill="white"/>
<path d="M158.975 3.18686C153.329 5.80026 147.821 8.70414 142.475 11.8869L133.475 17.2869L117.475 17.3869C102.075 17.4869 101.075 17.5869 91.975 20.7869C80.675 24.6869 72.675 28.9869 62.075 36.8869C57.775 40.1869 53.075 43.2869 51.575 43.8869C50.075 44.4869 42.675 44.8869 35.075 44.8869C19.475 44.8869 13.675 46.1869 7.07498 50.9869C-0.0250239 56.0869 -1.62502 63.6869 1.57498 76.2869C3.47498 83.7869 10.775 99.4869 15.275 105.787C18.375 110.087 18.675 111.187 19.775 123.387C22.175 150.887 30.475 169.887 47.875 188.187C67.075 208.287 91.375 217.887 119.775 216.587C162.775 214.687 198.175 184.187 210.175 138.887C212.975 128.187 213.675 108.087 211.675 96.3869C209.275 83.0869 205.275 70.0869 201.775 64.3869C198.775 59.4869 198.775 59.1869 198.575 44.3869C198.375 32.0869 197.975 28.1869 196.175 22.8869C189.275 1.88686 176.875 -4.61314 158.975 3.18686ZM180.975 6.28686C186.175 9.68686 188.675 14.1869 191.475 25.4869C193.475 33.1869 193.975 37.6869 193.975 47.4869C193.975 59.4869 194.075 60.0869 196.975 65.2869C210.275 88.7869 212.975 123.187 203.575 148.287C189.375 185.987 158.975 209.787 120.475 213.387C113.075 214.087 101.175 212.787 91.275 210.387C82.175 208.087 66.275 199.687 58.475 193.187C36.475 174.687 24.775 150.487 23.275 120.387C22.775 110.287 22.475 109.087 19.875 105.787C11.975 95.6869 3.77501 75.5869 3.67501 65.7869C3.67501 58.4869 6.07499 54.9869 13.775 51.1869C19.275 48.4869 19.875 48.3869 34.975 48.5869C52.675 48.6869 52.675 48.6869 64.975 39.3869C74.075 32.4869 89.975 24.6869 99.475 22.3869C105.075 20.9869 109.075 20.7869 119.375 21.2869L132.375 21.8869L140.175 17.2869C165.475 2.68686 172.675 0.786863 180.975 6.28686V6.28686Z" fill="#FF7596"/>
<path d="M90.48 134.128C96.2695 147.366 89.5033 163.443 75.0601 169.925C60.617 176.408 44.316 170.683 38.5265 157.445C32.7369 144.207 39.5031 128.129 53.9463 121.647C68.3894 115.165 84.6904 120.889 90.48 134.128Z" fill="#FFDCE9" stroke="#FF7596" stroke-width="3"/>
<path d="M210.5 108C210.5 121.381 198.346 132.5 183 132.5C167.654 132.5 155.5 121.381 155.5 108C155.5 94.6189 167.654 83.5 183 83.5C198.346 83.5 210.5 94.6189 210.5 108Z" fill="#FFDCE9" stroke="#FF7596" stroke-width="3"/>
</svg>
