<svg width="68" height="63" viewBox="0 0 68 63" fill="none" xmlns="http://www.w3.org/2000/svg">
<path d="M34.2644 60.6496C16.094 60.8329 1.47884 45.2897 2.05365 27.8372C2.22397 22.692 2.05365 17.5252 2.05365 12.38C1.95208 10.2798 1.99476 8.17514 2.18138 6.08091C2.72426 2.25171 4.89577 1.08664 8.31269 2.7154C9.89153 3.49197 11.3654 4.47044 12.6983 5.62744C13.4365 6.34911 14.3534 6.85535 15.352 7.09267C16.3507 7.33 17.3941 7.2896 18.3719 6.97575C25.1951 5.16362 32.0289 5.8971 38.6711 8.0544C40.776 8.78609 43.076 8.68619 45.1112 7.7742C49.7819 5.61121 54.8803 4.56337 60.0136 4.71101C65.0272 4.96988 66.4003 6.7708 64.6865 11.56C63.8521 14.0026 62.6917 16.3185 61.2376 18.4422C60.3176 19.634 59.6656 21.0149 59.3273 22.4887C58.989 23.9624 58.9727 25.493 59.2792 26.9739C60.5397 33.2228 59.6886 39.7197 56.8629 45.4189C51.8492 55.1807 43.8339 60.1318 34.2644 60.6496Z" fill="white" stroke="#FF7596" stroke-width="4"/>
</svg>
