<svg width="312" height="272" viewBox="0 0 312 272" fill="none" xmlns="http://www.w3.org/2000/svg">
<path d="M160.014 271.994C114.916 271.001 77.6072 259.439 45.9026 232.67C22.3828 212.787 6.85971 187.904 1.64504 157.223C-2.53476 132.615 1.32249 109.115 12.3969 86.8021C13.6536 84.2856 13.8484 81.9503 13.7409 79.1453C13.3915 71.2939 13.5192 63.4157 13.8014 55.5576C14.2651 42.5592 16.9732 29.9031 20.1921 17.3476C20.434 16.4081 20.7162 15.4753 21.0119 14.5493C24.7348 3.00706 30.8835 -1.36152 42.9323 0.363096C59.7322 2.76548 75.4501 8.7983 90.5633 16.4685C91.8884 16.9683 93.3507 16.9683 94.6759 16.4685C114.659 9.32214 135.744 5.73787 156.97 5.87919C176.879 5.92172 196.641 9.29694 215.433 15.8645C218.323 16.8778 220.527 16.7503 223.497 15.2874C237.475 8.40909 252.057 3.03391 267.486 0.356389C270.269 -0.0408073 273.091 -0.0859033 275.886 0.222174C283.116 0.832837 288.257 4.69142 289.998 11.6302C292.954 23.528 295.998 35.493 297.598 47.6123C298.942 57.9063 298.552 68.4621 298.445 78.9037C298.411 81.8765 298.445 84.4735 299.789 87.2047C322.704 133.655 312.274 185.776 276.853 222.571C252.171 248.212 221.615 262.834 186.806 268.954C176.666 270.732 166.277 271.31 160.014 271.994Z" fill="#FFDCE9"/>
</svg>
