<svg width="148" height="217" viewBox="0 0 148 217" fill="none" xmlns="http://www.w3.org/2000/svg">
<path d="M56.7526 115.401C56.9145 112.231 56.4351 108.85 56.6032 105.437C56.7464 102.666 56.9706 99.9009 58.4713 97.4473C59.222 96.0919 60.298 94.9445 61.6024 94.1086C62.9068 93.2726 64.3987 92.7743 65.9436 92.6584C67.7388 92.5269 69.5434 92.6888 71.2864 93.1379C74.319 93.8479 76.2679 95.9341 77.7562 98.4874C79.4686 101.414 80.1287 104.659 80.4089 108.015C80.6908 111.33 80.7219 114.66 80.5022 117.979C80.1535 123.092 80.1722 128.199 80.2532 133.305C80.2968 136.55 80.633 139.782 80.6953 143.02C80.7576 146.258 79.151 148.787 76.6727 150.742C75.3526 151.782 73.9017 152.654 72.1519 152.66C70.1878 152.769 68.2191 152.769 66.255 152.66C64.773 152.505 63.2848 152.405 61.7965 152.268C56.497 151.695 51.1656 151.47 45.8367 151.595C40.8178 151.774 35.801 151.952 30.7862 152.131C26.9068 152.255 23.046 152.841 19.1728 153.034C16.2524 153.177 13.3071 153.295 10.4178 152.536C6.05895 151.377 3.29418 148.475 1.70007 144.378C0.725317 141.904 0.353907 139.233 0.616586 136.587C0.865665 133.978 0.896709 131.35 0.990113 128.728C1.03993 127.177 1.09596 125.614 1.13332 124.076C1.22673 120.34 0.803292 116.603 0.510625 112.867C0.305135 109.828 -0.0434964 106.789 0.124632 103.737C0.271558 100.938 1.31366 98.2607 3.09734 96.099C4.88102 93.9374 7.31186 92.406 10.0317 91.7305C12.865 91.0393 15.3806 91.9797 17.7842 93.3248C21.3896 95.33 22.99 98.668 23.6998 102.541C24.3225 105.792 24.0299 109.049 23.7559 112.319C23.457 115.937 22.9899 119.561 23.2141 123.21C23.2418 124.833 23.7872 126.404 24.7709 127.694C25.33 128.433 26.1002 128.985 26.9795 129.278C27.8588 129.57 28.8062 129.589 29.6965 129.332C32.1873 128.709 34.2483 127.669 34.6157 125.016C34.7076 123.918 34.4268 122.821 33.8187 121.903C32.9033 120.252 31.7825 118.702 31.4214 116.79C30.7987 113.446 31.1722 110.357 33.8311 107.928C35.3378 106.672 37.1637 105.859 39.1054 105.58C43.8005 104.659 48.3711 108.146 49.0997 112.885C49.3517 114.776 49.0557 116.7 48.2466 118.428C47.3978 120.118 46.7098 121.884 46.1917 123.702C46.0323 124.423 46.0153 125.168 46.1418 125.895C46.1834 126.363 46.373 126.806 46.6831 127.16C46.9931 127.514 47.4076 127.76 47.8667 127.862C49.6081 128.235 51.4008 128.305 53.1659 128.068C54.7849 127.887 55.6567 126.822 56.105 125.29C56.5197 123.533 56.7286 121.734 56.7277 119.929C56.8211 118.515 56.7526 117.064 56.7526 115.401Z" fill="#FF7596"/>
<path d="M66.2924 19.2491C66.2114 23.135 65.9063 27.0085 65.4704 30.8757C65.1092 34.0954 64.8477 37.3274 64.6982 40.5657C64.555 43.2498 64.6982 45.9275 64.7978 48.5991C64.9099 52.7466 65.0158 56.8941 65.1403 61.0541C65.2088 63.4205 65.1403 65.7994 65.2835 68.1658C65.4143 70.6568 65.7194 73.1478 65.7132 75.6762C65.808 78.5115 65.1642 81.3228 63.8451 83.8342C62.9877 85.4165 61.7533 86.7627 60.251 87.7535C58.7488 88.7442 57.0252 89.3487 55.2333 89.5136C52.6512 89.868 50.0213 89.5151 47.624 88.4924C45.0979 87.3717 43.0213 85.4352 41.727 82.9935C39.6253 79.3156 38.673 75.0926 38.9933 70.8686C39.205 67.1321 39.5185 63.3956 39.9336 59.6591C40.1827 57.4546 40.2449 55.219 40.4939 53.0145C40.7866 50.4363 41.0357 47.8518 41.1166 45.2674C41.232 43.4908 41.1127 41.707 40.7618 39.9617C40.4935 39.075 39.9475 38.2979 39.2042 37.7451C38.4609 37.1924 37.5596 36.8931 36.6333 36.8914C35.023 36.7943 33.4096 37.0209 31.8884 37.5578C30.9996 37.8678 30.226 38.4406 29.67 39.2001C29.114 39.9597 28.8019 40.8703 28.7749 41.8112C28.5438 45.4085 28.0169 48.9805 27.1995 52.4913C26.5083 55.4805 24.5593 57.548 21.9564 59.0426C19.7521 60.2881 17.3172 60.7053 14.8389 61.0042C12.7375 61.2172 10.6151 61.0591 8.56843 60.5371C6.82591 60.1245 5.30937 59.0562 4.33407 57.5543C2.8115 55.3592 1.99271 52.7528 1.98649 50.0813C1.84949 45.7906 2.27291 41.4935 2.12346 37.2028C1.97402 32.9121 1.83696 28.7397 1.59411 24.5175C1.34286 21.344 1.25561 18.1595 1.33263 14.977C1.50698 11.3464 2.36625 7.89634 5.17462 5.32439C7.55596 3.04222 10.6167 1.59913 13.8924 1.2142C15.794 0.944229 17.732 1.10165 19.5652 1.67502C22.2739 2.59046 23.8057 4.70164 24.8394 7.19263C26.0848 10.1569 26.502 13.3204 26.9441 16.4777C27.2492 18.6947 27.1372 20.9243 27.405 23.135C27.4916 24.2415 27.9047 25.2974 28.592 26.1688C29.2793 27.0402 30.2099 27.6878 31.2657 28.0297C32.9375 28.7467 34.788 28.938 36.5711 28.5778C39.6036 27.843 40.8552 25.7132 40.4318 22.643C40.0083 19.5729 39.2672 16.5026 39.2548 13.3515C39.2261 11.0146 39.9974 8.73822 41.4405 6.89996C43.1658 4.52085 45.7019 2.85514 48.5705 2.21689C53.9194 1.07103 58.5958 2.4099 62.4689 6.22735C64.4316 8.25937 65.6571 10.8903 65.9499 13.7003C66.2154 15.5374 66.3299 17.3933 66.2924 19.2491Z" fill="#FF7596"/>
<path d="M123.381 55.2193C119.238 55.2538 115.098 54.979 110.996 54.3972C109.214 54.1227 107.417 53.9625 105.616 53.9177C102.452 53.9177 99.2828 54.1918 96.518 55.9853C93.7533 57.7788 94.1081 60.9174 95.6524 62.9351C96.7483 64.3799 98.3238 64.8531 100.011 65.0337C103.878 65.4322 107.72 65.0337 111.569 64.7348C115.137 64.467 118.63 63.6263 122.192 63.4021C124.813 63.234 127.444 63.2528 130.063 63.4582C132.202 63.5492 134.321 63.9198 136.364 64.5605C138.781 65.398 140.943 66.8384 142.647 68.7454C144.111 70.4081 144.665 72.5191 144.827 74.6862C144.959 76.4263 144.726 78.1749 144.141 79.8192C143.557 81.4635 142.634 82.9671 141.433 84.233C139.409 86.4749 136.682 87.6146 133.768 88.3058C130.411 89.0771 126.96 89.352 123.524 89.1216C116.052 88.6919 108.58 88.8539 101.076 88.8165C98.2614 88.8434 95.4514 89.0514 92.6634 89.4393C89.3038 89.9341 85.8762 89.6703 82.6319 88.667C80.8821 88.1003 79.1385 87.6146 77.6503 86.4999C75.1642 84.5777 73.4835 81.7978 72.9364 78.7031C72.3137 75.6392 72.5316 72.5378 72.8679 69.4428C73.2228 66.1671 73.7085 62.9164 73.9576 59.6283C74.2485 57.0522 74.3879 54.4613 74.3749 51.8688C74.2753 49.3779 73.9514 46.8869 73.8331 44.3959C73.6712 41.1078 73.609 37.8009 75.8071 35.0173C76.9967 33.6116 78.5402 32.5496 80.2781 31.9409C83.3915 30.7328 86.5985 30.7763 89.8053 30.9694C95.8704 31.3306 101.942 31.2747 108.007 31.2373C111.251 31.2373 114.495 31.1189 117.727 30.8823C120.118 30.7141 122.516 30.4836 124.894 30.4899C129.483 30.4899 134.11 30.6021 138.432 32.4578C142.753 34.3136 144.995 37.689 145.543 42.2973C145.767 43.9699 145.573 45.6719 144.98 47.2518C144.387 48.8316 143.412 50.2401 142.143 51.3519C140.411 52.8691 138.276 53.8513 135.997 54.1792C131.84 54.9707 127.611 55.3194 123.381 55.2193Z" fill="#FF7596"/>
<path d="M98.5107 180.84C98.5107 183.125 98.3799 185.411 98.9528 187.659C99.5257 189.907 100.653 190.935 103.343 191.115C105.709 191.277 107.87 190.393 110.024 189.527C112.621 188.493 114.464 186.6 116.121 184.439C117.677 182.403 119.315 180.423 120.187 177.944C120.975 175.508 121.55 173.007 121.905 170.471C122.466 166.996 122.92 163.509 124.633 160.32C125.383 158.814 126.498 157.519 127.876 156.552C129.253 155.585 130.85 154.977 132.522 154.784C135.3 154.361 137.865 154.56 140.144 156.31C142.977 158.489 144.908 161.223 145.337 164.891C145.755 168.447 145.96 172.015 146.222 175.584C146.377 177.795 146.072 179.974 146.166 182.173C146.278 184.713 146.228 187.26 146.371 189.795C146.583 193.394 147.156 196.982 146.963 200.593C146.851 202.599 147.1 204.666 146.34 206.615C144.323 211.597 140.829 214.886 135.449 215.863C133.854 216.166 132.205 215.997 130.704 215.377C128.643 214.524 126.607 213.634 124.95 212.058C122.877 210.09 121.918 207.556 121.252 204.865C120.818 202.995 120.254 201.158 119.564 199.367C119.236 198.554 118.796 197.791 118.256 197.1C117.266 195.811 115.934 195.798 114.52 196.134C110.927 197.064 107.599 198.816 104.8 201.254C102.309 203.302 100.603 206.03 98.5294 208.44C96.2752 211.049 93.9089 213.584 90.509 214.761C86.5549 216.131 80.303 215.732 77.0152 212.114C75.5596 210.444 74.615 208.39 74.2939 206.198C73.7245 202.743 73.5991 199.229 73.9204 195.742C74.0387 194.285 74.0013 192.815 74.0574 191.346C74.1944 187.79 74.4435 184.234 74.2505 180.672C74.0512 176.985 73.8644 173.298 73.7834 169.606C73.6651 164.001 76.3053 159.866 80.8385 156.802C82.1056 155.989 83.5582 155.511 85.0604 155.413C87.9746 155.145 90.8888 155.064 93.3111 157.207C95.1045 158.788 96.0137 160.868 96.6675 163.079C97.3629 165.807 97.8294 168.588 98.0624 171.393C98.4168 174.529 98.5665 177.684 98.5107 180.84Z" fill="#FF7596"/>
<path d="M89.6808 137.353C89.6808 134.445 89.5936 131.537 89.6808 128.635C89.9361 121.853 89.6809 115.071 89.8304 108.29C89.8926 105.132 90.123 101.963 91.3435 98.992C92.9376 95.0999 95.472 92.1419 99.7811 91.1393C101.423 90.7985 103.13 90.9725 104.669 91.6375C107.104 92.609 109.321 93.8481 110.691 96.2021C111.756 98.0268 112.042 100.069 112.229 102.124C112.652 106.839 111.967 111.553 112.229 116.267C112.253 117.115 112.402 117.954 112.671 118.758C113.001 119.673 113.424 119.916 114.365 119.642C115.871 119.137 117.22 118.246 118.275 117.058C119.919 115.352 120.361 113.222 120.548 110.936C120.809 107.823 120.548 104.609 121.382 101.527C121.792 99.8028 122.577 98.1907 123.681 96.8053C124.786 95.4198 126.182 94.2953 127.771 93.512C128.826 93.0315 129.963 92.7587 131.121 92.7086C133.74 92.4089 136.389 92.8945 138.731 94.1035C142.903 96.3143 145.481 99.7083 146.11 104.41C146.391 106.65 146.42 108.914 146.197 111.161C146.041 112.904 146.197 114.66 145.998 116.404C145.749 118.845 145.524 121.28 145.375 123.728C145.156 126.568 145.114 129.42 145.25 132.266C145.462 136.108 145.979 139.988 144.97 143.805C144.154 146.919 142.616 149.609 139.758 151.228C135.592 153.576 131.57 152.629 127.927 150.026C124.683 147.716 123.219 144.328 122.883 140.374C122.684 138.088 122.833 135.803 122.74 133.523C122.714 132.112 122.44 130.717 121.93 129.401C121.513 128.38 121.239 128.243 120.199 128.635C118.786 129.17 117.877 130.285 116.98 131.425C115.778 132.957 115.454 134.769 115.286 136.65C115.074 139.035 115.037 141.426 114.663 143.799C114.209 146.738 112.584 148.893 110.348 150.649C108.646 152.018 106.669 153.004 104.551 153.539C101.076 154.348 98.0997 153.408 95.3349 151.203C93.7984 150.063 92.4586 148.678 91.3684 147.106C90.1968 145.263 89.5508 143.136 89.5003 140.953C89.4567 139.77 89.5003 138.58 89.5003 137.391L89.6808 137.353Z" fill="#FF7596"/>
<path d="M1.11456 194.198C1.11456 191.171 1.20174 188.144 1.11456 185.118C1.01493 182.222 0.716035 179.333 0.491864 176.443C0.323736 174.22 -0.024974 171.997 0.0248418 169.786C0.105792 166.255 0.784574 162.824 3.02628 159.922C3.60445 159.197 4.22843 158.511 4.89437 157.866C6.30167 156.44 8.21954 156.422 10.0005 156.204C13.7989 155.731 17.6098 156.204 21.4021 156.391C24.584 156.559 27.7536 156.895 30.9418 156.827C34.13 156.758 37.4926 156.702 40.7555 156.472C43.6386 156.272 46.5029 155.768 49.3923 155.544C52.2816 155.319 55.3515 154.958 58.3031 155.83C64.6919 157.698 68.0795 162.811 67.5502 168.995C67.1081 174.201 64.2436 177.95 59.2808 179.924C56.9375 180.833 54.4462 181.3 51.9329 181.301C46.9723 181.32 42.0201 180.888 37.1376 180.011C34.0835 179.416 30.9391 179.461 27.903 180.142C26.3836 180.528 24.7895 180.958 24.3038 182.814C24.1495 183.386 24.0577 183.972 24.0298 184.564C23.9177 187.783 24.3412 190.978 24.5031 194.191C24.7522 199.173 24.5904 204.155 22.5728 208.913C21.8428 210.737 20.4813 212.238 18.7369 213.142C17.0201 214.075 15.1196 214.621 13.169 214.741C11.2184 214.86 9.26533 214.55 7.44749 213.833C3.90435 212.5 2.31641 209.517 1.47577 206.036C1.19668 204.769 1.07532 203.472 1.11456 202.175C1.13324 199.516 1.11456 196.857 1.11456 194.198Z" fill="#FF7596"/>
<path d="M129.459 26.5356C126.015 26.6041 122.709 26.0187 119.402 25.477C116.463 24.9974 113.53 24.4991 110.541 24.2812C107.224 24.0673 103.898 24.0425 100.578 24.2065C96.4432 24.3933 92.321 24.9974 88.1738 24.8293C85.6399 24.7716 83.1257 24.3671 80.7015 23.6273C79.4222 23.2088 78.2386 22.5409 77.219 21.6623C76.1994 20.7837 75.3639 19.7117 74.7609 18.5083C73.8618 17.0319 73.2294 15.4088 72.8928 13.7132C72.6271 12.0803 72.7119 10.4096 73.1414 8.81192C73.5708 7.21428 74.3351 5.72633 75.3836 4.44676C77.7748 1.43888 80.9195 0.155976 84.6743 0.0376537C87.9654 -0.0145 91.2562 0.151962 94.5253 0.535882C95.5901 0.647977 96.6612 0.704054 97.7323 0.722737C103.959 0.859741 110.186 0.629276 116.376 0.517182C120.075 0.448679 123.78 0.311602 127.472 0.442379C130.586 0.548246 133.817 0.56078 136.85 1.45754C141.62 2.86495 145.306 5.69222 146.402 10.7988C147.355 15.2389 146.57 19.4114 143.027 22.6684C141.097 24.4432 138.718 25.3087 136.209 25.8692C133.995 26.3697 131.728 26.5936 129.459 26.5356Z" fill="#FF7596"/>
<path d="M13.1638 64.3547C14.9081 64.2591 16.6535 64.5199 18.2936 65.1213C19.9337 65.7227 21.4343 66.6519 22.7034 67.8524C23.9725 69.0528 24.9837 70.4994 25.6754 72.1036C26.367 73.7079 26.7245 75.4362 26.7262 77.1832C26.7584 78.8911 26.4505 80.5884 25.8205 82.1762C25.1906 83.7639 24.2511 85.2104 23.0567 86.4315C21.8623 87.6527 20.4369 88.624 18.8635 89.2889C17.2902 89.9539 15.6004 90.2991 13.8923 90.3046C12.1619 90.3509 10.4402 90.047 8.83016 89.4112C7.22017 88.7753 5.75525 87.8206 4.52343 86.6044C3.29162 85.3882 2.31826 83.9355 1.66186 82.3337C1.00545 80.7318 0.679526 79.0139 0.703639 77.283C0.66977 73.9242 1.95697 70.6867 4.28779 68.2683C6.61862 65.8499 9.80638 64.4444 13.1638 64.3547Z" fill="#FF7596"/>
<path d="M53.9941 212.861C52.2876 212.86 50.5981 212.523 49.0223 211.868C47.4465 211.213 46.0152 210.253 44.8109 209.044C43.6065 207.835 42.6526 206.4 42.0037 204.822C41.3548 203.244 41.0238 201.553 41.0295 199.846C40.9779 196.686 42.0996 193.618 44.178 191.237C46.2563 188.856 49.1437 187.331 52.2817 186.955C61.2672 185.915 67.0396 192.753 67.0521 199.752C67.0645 207.039 61.4603 212.712 53.9941 212.861Z" fill="#FF7596"/>
</svg>
