<svg width="233" height="379" viewBox="0 0 233 379" fill="none" xmlns="http://www.w3.org/2000/svg">
<rect width="233" height="379" fill="#E9FFE3"/>
<path d="M99.7326 197.373C99.8945 194.203 99.415 190.822 99.5832 187.409C99.7264 184.638 99.9506 181.873 101.451 179.419C102.202 178.064 103.278 176.916 104.582 176.08C105.887 175.244 107.379 174.746 108.924 174.63C110.719 174.499 112.523 174.661 114.266 175.11C117.299 175.82 119.248 177.906 120.736 180.459C122.449 183.386 123.109 186.63 123.389 189.987C123.671 193.301 123.702 196.632 123.482 199.951C123.133 205.064 123.152 210.17 123.233 215.277C123.277 218.521 123.613 221.753 123.675 224.992C123.738 228.23 122.131 230.758 119.653 232.714C118.333 233.754 116.882 234.626 115.132 234.632C113.168 234.741 111.199 234.741 109.235 234.632C107.753 234.476 106.265 234.376 104.777 234.239C99.477 233.667 94.1456 233.442 88.8167 233.567C83.7978 233.745 78.781 233.924 73.7662 234.102C69.8868 234.227 66.026 234.812 62.1528 235.005C59.2324 235.149 56.2871 235.267 53.3978 234.507C49.0389 233.349 46.2742 230.447 44.6801 226.349C43.7053 223.875 43.3339 221.205 43.5966 218.559C43.8456 215.949 43.8767 213.321 43.9701 210.7C44.0199 209.149 44.0759 207.586 44.1133 206.048C44.2067 202.311 43.7833 198.575 43.4906 194.838C43.2851 191.799 42.9365 188.76 43.1046 185.709C43.2515 182.91 44.2936 180.232 46.0773 178.071C47.861 175.909 50.2918 174.378 53.0117 173.702C55.8449 173.011 58.3606 173.951 60.7642 175.296C64.3696 177.302 65.9699 180.64 66.6798 184.513C67.3025 187.764 67.0099 191.021 66.7359 194.29C66.437 197.908 65.9699 201.533 66.1941 205.182C66.2218 206.804 66.7672 208.375 67.7508 209.666C68.31 210.405 69.0801 210.957 69.9595 211.249C70.8388 211.542 71.7862 211.561 72.6765 211.304C75.1673 210.681 77.2283 209.641 77.5957 206.988C77.6876 205.89 77.4068 204.793 76.7986 203.874C75.8833 202.224 74.7625 200.673 74.4014 198.762C73.7787 195.417 74.1522 192.329 76.8111 189.9C78.3177 188.644 80.1437 187.831 82.0853 187.552C86.7805 186.63 91.3511 190.118 92.0796 194.857C92.3317 196.748 92.0357 198.672 91.2266 200.399C90.3778 202.089 89.6898 203.855 89.1717 205.674C89.0122 206.395 88.9953 207.139 89.1218 207.866C89.1634 208.335 89.353 208.778 89.663 209.132C89.9731 209.486 90.3876 209.731 90.8467 209.834C92.5881 210.207 94.3808 210.276 96.1459 210.04C97.7649 209.859 98.6366 208.794 99.085 207.262C99.4996 205.505 99.7086 203.706 99.7077 201.9C99.8011 200.487 99.7326 199.036 99.7326 197.373Z" fill="#FF7596"/>
<path d="M109.272 101.221C109.191 105.107 108.886 108.98 108.45 112.847C108.089 116.067 107.828 119.299 107.678 122.537C107.535 125.221 107.678 127.899 107.778 130.571C107.89 134.718 107.996 138.866 108.12 143.026C108.189 145.392 108.12 147.771 108.264 150.137C108.394 152.628 108.699 155.119 108.693 157.648C108.788 160.483 108.144 163.294 106.825 165.806C105.968 167.388 104.733 168.734 103.231 169.725C101.729 170.716 100.005 171.32 98.2133 171.485C95.6311 171.84 93.0013 171.487 90.6039 170.464C88.0779 169.343 86.0013 167.407 84.707 164.965C82.6052 161.287 81.653 157.064 81.9733 152.84C82.185 149.104 82.4984 145.367 82.9136 141.631C83.1626 139.426 83.2249 137.191 83.4739 134.986C83.7666 132.408 84.0157 129.823 84.0966 127.239C84.2119 125.463 84.0927 123.679 83.7418 121.933C83.4735 121.047 82.9275 120.27 82.1841 119.717C81.4408 119.164 80.5395 118.865 79.6132 118.863C78.003 118.766 76.3896 118.993 74.8684 119.529C73.9796 119.84 73.206 120.412 72.65 121.172C72.094 121.931 71.7819 122.842 71.7549 123.783C71.5238 127.38 70.9969 130.952 70.1794 134.463C69.4883 137.452 67.5393 139.52 64.9364 141.014C62.732 142.26 60.2972 142.677 57.8189 142.976C55.7175 143.189 53.5951 143.031 51.5484 142.509C49.8059 142.096 48.2894 141.028 47.314 139.526C45.7915 137.331 44.9727 134.725 44.9665 132.053C44.8295 127.762 45.2529 123.465 45.1034 119.174C44.954 114.884 44.8169 110.711 44.5741 106.489C44.3228 103.316 44.2356 100.131 44.3126 96.9487C44.487 93.318 45.3462 89.868 48.1546 87.2961C50.5359 85.0139 53.5967 83.5708 56.8723 83.1859C58.774 82.9159 60.712 83.0733 62.5452 83.6467C65.2539 84.5621 66.7857 86.6733 67.8194 89.1643C69.0648 92.1286 69.4819 95.2921 69.924 98.4494C70.2292 100.666 70.1172 102.896 70.385 105.107C70.4716 106.213 70.8847 107.269 71.572 108.14C72.2593 109.012 73.1899 109.66 74.2457 110.001C75.9175 110.718 77.768 110.91 79.5511 110.55C82.5836 109.815 83.8352 107.685 83.4118 104.615C82.9883 101.545 82.2472 98.4743 82.2348 95.3232C82.2061 92.9863 82.9773 90.7099 84.4204 88.8716C86.1458 86.4925 88.6819 84.8268 91.5504 84.1886C96.8994 83.0427 101.576 84.3816 105.449 88.199C107.412 90.231 108.637 92.862 108.93 95.672C109.195 97.5091 109.31 99.365 109.272 101.221Z" fill="#FF7596"/>
<path d="M166.361 137.191C162.218 137.226 158.078 136.951 153.976 136.369C152.194 136.094 150.397 135.934 148.596 135.889C145.432 135.889 142.263 136.163 139.498 137.957C136.733 139.75 137.088 142.889 138.632 144.907C139.728 146.352 141.304 146.825 142.991 147.005C146.858 147.404 150.7 147.005 154.549 146.706C158.117 146.439 161.61 145.598 165.172 145.374C167.793 145.206 170.424 145.224 173.043 145.43C175.182 145.521 177.301 145.891 179.344 146.532C181.761 147.37 183.923 148.81 185.627 150.717C187.091 152.38 187.645 154.491 187.807 156.658C187.939 158.398 187.706 160.147 187.121 161.791C186.537 163.435 185.614 164.939 184.413 166.205C182.389 168.447 179.662 169.586 176.748 170.277C173.391 171.049 169.94 171.324 166.504 171.093C159.032 170.664 151.56 170.826 144.056 170.788C141.241 170.815 138.431 171.023 135.643 171.411C132.284 171.906 128.856 171.642 125.612 170.639C123.862 170.072 122.119 169.586 120.63 168.472C118.144 166.549 116.463 163.77 115.916 160.675C115.294 157.611 115.512 154.509 115.848 151.414C116.203 148.139 116.688 144.888 116.938 141.6C117.228 139.024 117.368 136.433 117.355 133.841C117.255 131.35 116.931 128.859 116.813 126.368C116.651 123.079 116.589 119.773 118.787 116.989C119.977 115.583 121.52 114.521 123.258 113.913C126.372 112.704 129.578 112.748 132.785 112.941C138.85 113.302 144.922 113.246 150.987 113.209C154.231 113.209 157.475 113.091 160.707 112.854C163.098 112.686 165.495 112.455 167.874 112.462C172.463 112.462 177.09 112.574 181.412 114.43C185.733 116.285 187.975 119.661 188.523 124.269C188.747 125.942 188.553 127.644 187.96 129.223C187.367 130.803 186.392 132.212 185.123 133.324C183.391 134.841 181.256 135.823 178.977 136.151C174.82 136.942 170.591 137.291 166.361 137.191V137.191Z" fill="#FF7596"/>
<path d="M141.491 262.812C141.491 265.097 141.36 267.383 141.933 269.631C142.506 271.879 143.633 272.906 146.323 273.087C148.689 273.249 150.85 272.365 153.004 271.499C155.601 270.465 157.444 268.572 159.101 266.411C160.657 264.375 162.295 262.394 163.167 259.916C163.955 257.479 164.53 254.979 164.885 252.443C165.446 248.968 165.9 245.48 167.613 242.292C168.363 240.785 169.478 239.49 170.856 238.524C172.233 237.557 173.83 236.949 175.502 236.756C178.28 236.332 180.845 236.532 183.124 238.281C185.957 240.461 187.888 243.195 188.317 246.863C188.735 250.419 188.94 253.987 189.202 257.555C189.357 259.766 189.052 261.946 189.146 264.144C189.258 266.685 189.208 269.232 189.351 271.767C189.563 275.366 190.136 278.953 189.943 282.565C189.831 284.57 190.08 286.638 189.32 288.587C187.303 293.569 183.809 296.857 178.429 297.835C176.834 298.138 175.185 297.969 173.684 297.349C171.623 296.496 169.587 295.605 167.93 294.03C165.857 292.062 164.898 289.527 164.232 286.837C163.798 284.967 163.234 283.13 162.544 281.338C162.216 280.526 161.776 279.763 161.236 279.071C160.246 277.782 158.914 277.77 157.5 278.106C153.907 279.035 150.579 280.788 147.78 283.225C145.289 285.274 143.583 288.002 141.509 290.412C139.255 293.021 136.889 295.556 133.489 296.733C129.535 298.103 123.283 297.704 119.995 294.086C118.54 292.416 117.595 290.362 117.274 288.17C116.705 284.715 116.579 281.201 116.9 277.714C117.019 276.257 116.981 274.787 117.037 273.317C117.174 269.761 117.423 266.206 117.23 262.643C117.031 258.957 116.844 255.27 116.763 251.577C116.645 245.972 119.285 241.837 123.818 238.773C125.086 237.961 126.538 237.483 128.04 237.385C130.955 237.117 133.869 237.036 136.291 239.178C138.084 240.76 138.994 242.84 139.648 245.051C140.343 247.778 140.809 250.559 141.042 253.364C141.397 256.5 141.546 259.656 141.491 262.812V262.812Z" fill="#FF7596"/>
<path d="M132.661 219.325C132.661 216.417 132.574 213.509 132.661 210.607C132.916 203.825 132.661 197.043 132.81 190.261C132.873 187.104 133.103 183.934 134.323 180.964C135.918 177.072 138.452 174.114 142.761 173.111C144.403 172.77 146.11 172.944 147.649 173.609C150.084 174.581 152.301 175.82 153.671 178.174C154.736 179.998 155.022 182.041 155.209 184.096C155.632 188.81 154.947 193.525 155.209 198.239C155.233 199.086 155.382 199.926 155.651 200.73C155.981 201.645 156.404 201.888 157.345 201.614C158.851 201.109 160.2 200.218 161.255 199.03C162.899 197.323 163.341 195.194 163.528 192.908C163.789 189.794 163.528 186.581 164.362 183.498C164.772 181.775 165.557 180.162 166.661 178.777C167.766 177.392 169.162 176.267 170.751 175.484C171.806 175.003 172.943 174.73 174.101 174.68C176.72 174.381 179.368 174.866 181.711 176.075C185.883 178.286 188.461 181.68 189.09 186.382C189.371 188.622 189.4 190.886 189.177 193.132C189.021 194.876 189.177 196.632 188.978 198.376C188.728 200.817 188.504 203.252 188.355 205.699C188.136 208.54 188.094 211.391 188.23 214.237C188.442 218.08 188.959 221.959 187.95 225.777C187.134 228.89 185.596 231.581 182.738 233.2C178.572 235.548 174.55 234.601 170.907 231.998C167.663 229.688 166.199 226.3 165.863 222.345C165.664 220.06 165.813 217.774 165.72 215.495C165.694 214.084 165.42 212.689 164.91 211.373C164.493 210.351 164.219 210.214 163.179 210.607C161.766 211.142 160.857 212.257 159.96 213.396C158.758 214.928 158.434 216.741 158.266 218.621C158.054 221.006 158.017 223.398 157.643 225.771C157.189 228.71 155.564 230.865 153.328 232.621C151.626 233.99 149.649 234.976 147.531 235.51C144.056 236.32 141.08 235.379 138.315 233.175C136.778 232.034 135.439 230.65 134.348 229.077C133.177 227.235 132.531 225.107 132.48 222.925C132.437 221.741 132.48 220.552 132.48 219.362L132.661 219.325Z" fill="#FF7596"/>
<path d="M44.0945 276.169C44.0945 273.143 44.1817 270.116 44.0945 267.09C43.9949 264.194 43.696 261.304 43.4718 258.415C43.3037 256.192 42.955 253.968 43.0048 251.758C43.0858 248.227 43.7646 244.795 46.0063 241.893C46.5844 241.169 47.2084 240.483 47.8744 239.838C49.2816 238.412 51.1995 238.393 52.9804 238.175C56.7789 237.702 60.5898 238.176 64.382 238.362C67.564 238.53 70.7336 238.867 73.9218 238.798C77.11 238.73 80.4726 238.674 83.7355 238.443C86.6186 238.244 89.4829 237.74 92.3722 237.515C95.2615 237.291 98.3315 236.93 101.283 237.802C107.672 239.67 111.059 244.783 110.53 250.967C110.088 256.173 107.224 259.922 102.261 261.896C99.9175 262.805 97.4261 263.271 94.9129 263.272C89.9523 263.292 85.0001 262.86 80.1176 261.983C77.0635 261.388 73.919 261.432 70.883 262.114C69.3636 262.5 67.7695 262.93 67.2838 264.785C67.1295 265.357 67.0377 265.944 67.0098 266.535C66.8977 269.755 67.3212 272.95 67.4831 276.163C67.7321 281.145 67.5703 286.127 65.5528 290.885C64.8228 292.709 63.4613 294.21 61.7169 295.113C60.0001 296.047 58.0995 296.593 56.149 296.712C54.1984 296.832 52.2453 296.522 50.4275 295.805C46.8843 294.472 45.2964 291.489 44.4558 288.008C44.1767 286.741 44.0553 285.444 44.0945 284.147C44.1132 281.488 44.0945 278.828 44.0945 276.169Z" fill="#FF7596"/>
<path d="M172.439 108.507C168.995 108.576 165.689 107.99 162.382 107.449C159.443 106.969 156.51 106.471 153.521 106.253C150.204 106.039 146.878 106.014 143.558 106.178C139.423 106.365 135.301 106.969 131.154 106.801C128.62 106.743 126.106 106.339 123.681 105.599C122.402 105.18 121.219 104.513 120.199 103.634C119.179 102.755 118.344 101.683 117.741 100.48C116.842 99.0036 116.209 97.3805 115.873 95.6848C115.607 94.052 115.692 92.3812 116.121 90.7836C116.551 89.186 117.315 87.698 118.364 86.4184C120.755 83.4106 123.899 82.1277 127.654 82.0093C130.945 81.9572 134.236 82.1236 137.505 82.5076C138.57 82.6197 139.641 82.6757 140.712 82.6944C146.939 82.8314 153.166 82.601 159.356 82.4889C163.055 82.4204 166.76 82.2833 170.452 82.4141C173.566 82.5199 176.797 82.5325 179.83 83.4292C184.6 84.8366 188.286 87.6639 189.382 92.7704C190.335 97.2106 189.55 101.383 186.007 104.64C184.077 106.415 181.698 107.28 179.189 107.841C176.975 108.341 174.708 108.565 172.439 108.507V108.507Z" fill="#FF7596"/>
<path d="M56.1438 146.326C57.8881 146.231 59.6335 146.492 61.2736 147.093C62.9137 147.694 64.4143 148.624 65.6834 149.824C66.9525 151.025 67.9637 152.471 68.6553 154.075C69.347 155.68 69.7045 157.408 69.7061 159.155C69.7384 160.863 69.4305 162.56 68.8005 164.148C68.1705 165.736 67.2311 167.182 66.0367 168.403C64.8423 169.624 63.4169 170.596 61.8435 171.261C60.2702 171.926 58.5803 172.271 56.8723 172.276C55.1419 172.323 53.4201 172.019 51.8101 171.383C50.2002 170.747 48.7352 169.792 47.5034 168.576C46.2716 167.36 45.2982 165.907 44.6418 164.305C43.9854 162.704 43.6595 160.986 43.6836 159.255C43.6498 155.896 44.937 152.658 47.2678 150.24C49.5986 147.822 52.7864 146.416 56.1438 146.326V146.326Z" fill="#FF7596"/>
<path d="M96.9741 294.833C95.2676 294.832 93.5781 294.495 92.0023 293.84C90.4264 293.185 88.9952 292.225 87.7909 291.016C86.5865 289.807 85.6326 288.372 84.9837 286.794C84.3348 285.215 84.0038 283.524 84.0095 281.818C83.9579 278.657 85.0796 275.59 87.158 273.209C89.2363 270.828 92.1237 269.302 95.2617 268.927C104.247 267.887 110.02 274.724 110.032 281.724C110.044 289.01 104.44 294.683 96.9741 294.833Z" fill="#FF7596"/>
</svg>
