<svg width="146" height="137" viewBox="0 0 146 137" fill="none" xmlns="http://www.w3.org/2000/svg">
<mask id="path-1-outside-1_298_4025" maskUnits="userSpaceOnUse" x="-1.00001" y="-1.31134e-07" width="147" height="137" fill="black">
<rect fill="white" x="-1.00001" y="-1.31134e-07" width="147" height="137"/>
<path d="M6.16897 36.3443C6.16897 37.6992 6.06578 38.7026 6.19168 39.6764C6.41201 41.3913 6.64631 43.101 7.18141 44.7775C7.56501 46.0533 8.04918 47.2966 8.6293 48.4959C9.4337 50.092 10.2031 51.7108 11.359 53.1233C12.3854 54.3715 13.3769 55.6425 14.5468 56.7613C14.9385 57.1372 15.3145 57.534 15.7359 57.8714C16.2028 58.2455 16.0716 58.5357 15.6834 58.8294C14.3317 59.8573 12.9887 60.8922 11.7944 62.1125C10.6858 63.247 9.66626 64.4428 8.66603 65.6788C7.073 67.6455 6.12172 69.9478 5.08478 72.1732C4.37306 73.7011 3.93065 75.4196 3.64387 77.1608C3.46901 78.2097 3.64389 79.3565 3.08781 80.3495C3.03039 80.5143 3.01124 80.6901 3.03184 80.8634C2.98637 83.1518 2.91646 85.4576 3.41133 87.6971C3.80128 89.4627 4.21219 91.2231 4.82947 92.9416C5.68178 95.305 6.79622 97.5655 8.15193 99.6808C8.76488 100.605 9.44275 101.485 10.1804 102.314C11.291 103.627 12.5202 104.836 13.8526 105.924C15.1358 106.944 16.4937 107.866 17.9147 108.684C19.5498 109.611 21.263 110.392 23.0348 111.02C24.3376 111.497 25.7609 111.631 27.1092 111.993C29.7968 112.717 32.53 112.38 35.2264 112.25C36.718 112.177 38.2552 111.609 39.759 111.189C43.6376 110.107 47.0299 108.168 50.0376 105.574C52.4403 103.501 54.4897 101.092 55.9953 98.2543C56.3153 97.6494 56.735 97.111 56.964 96.4379C57.1931 95.7649 57.8156 95.8121 58.363 96.0062C58.7479 96.1212 59.1383 96.2169 59.5328 96.2928C60.3897 96.5061 61.1923 96.9501 62.1226 96.8173C62.2817 96.7946 62.3779 96.9257 62.4094 97.0865C62.4741 97.4361 62.1926 97.5463 61.9862 97.6791C60.652 98.534 59.5871 99.693 58.5693 100.868C57.1473 102.495 56.1252 104.431 55.5844 106.523C54.963 108.806 54.833 111.195 55.2032 113.532C55.5529 115.675 56.373 117.57 57.3016 119.463C58.5449 121.979 60.3373 124.089 62.364 125.975C63.7988 127.311 65.383 128.478 67.0854 129.451C68.4843 130.248 69.8639 131.055 71.3905 131.592C73.029 132.167 74.65 132.772 76.355 133.165C78.3292 133.615 80.3279 133.69 82.3144 133.926C83.9214 134.122 85.4707 133.884 86.9833 133.739C89.3074 133.502 91.5721 132.86 93.6754 131.844C97.2375 130.131 100.198 127.648 102.029 124.077C102.77 122.631 103.351 121.072 103.489 119.402C103.536 118.83 103.818 118.32 103.847 117.717C103.917 116.289 103.652 114.92 103.368 113.54C103.316 113.283 103.193 112.997 103.424 112.803C103.655 112.609 103.975 112.677 104.257 112.755C105.458 113.095 106.654 113.401 107.894 113.63C110.959 114.199 114.023 113.92 117.073 113.843C118.646 113.803 120.248 113.297 121.81 112.794C123.645 112.171 125.426 111.401 127.136 110.49C129.06 109.5 130.684 108.1 132.123 106.541C133.644 104.914 134.835 103.007 135.631 100.927C136.115 99.7086 136.432 98.4302 136.574 97.1267C136.644 96.4135 136.843 95.6827 136.85 94.938C136.86 93.5255 136.476 92.1741 136.233 90.7983C135.822 88.4785 134.739 86.4663 133.494 84.5276C132.106 82.3651 130.303 80.5802 128.248 79.0366C128.178 78.9841 128.108 78.9317 128.042 78.8758C127.802 78.6747 127.419 78.5069 127.463 78.1765C127.516 77.7884 127.965 77.6817 128.28 77.631C130.13 77.3338 131.711 76.4073 133.311 75.5332C135.317 74.4118 137.108 72.9426 138.6 71.1943C139.877 69.7275 141.129 68.1052 141.573 66.2871C142.012 64.4987 143.147 62.8991 142.984 60.9272C142.827 59.0514 143.206 57.1214 142.729 55.2823C142.238 53.3856 141.648 51.5028 140.716 49.7458C139.81 48.0326 138.793 46.3876 137.516 44.9506C135.483 42.643 133.166 40.5976 130.457 39.1047C128.178 37.83 125.751 36.8384 123.231 36.152C120.941 35.5401 118.59 35.3933 116.275 34.9895C115.751 34.8968 115.653 34.75 115.773 34.2605C115.971 33.4528 116.581 32.841 116.676 31.9529C116.789 30.8865 117.34 29.8551 117.4 28.8062C117.491 27.1629 117.627 25.4846 117.265 23.8536C116.796 21.74 116.361 19.5775 115.273 17.707C113.946 15.4343 112.486 13.2247 110.552 11.3419C108.781 9.60977 106.792 8.11591 104.634 6.89802C102.693 5.79376 100.633 4.914 98.493 4.27574C97.1815 3.88941 95.8403 3.69885 94.506 3.44712C93.1223 3.17972 91.7183 3.03058 90.3093 3.00133C88.067 2.97827 85.8319 3.25759 83.6643 3.83171C81.9489 4.27225 80.2528 4.73203 78.6737 5.54319C75.3355 7.2564 72.5219 9.56398 70.455 12.7474C68.5437 15.6896 67.6361 18.9132 67.5574 22.3816C67.498 25.0668 68.082 27.6471 69.1032 30.119C70.0033 32.2937 71.2473 34.3095 72.7877 36.0891C72.8996 36.2185 73.092 36.3129 73.0255 36.5174C72.9416 36.7709 72.702 36.7341 72.5009 36.7237C71.6266 36.6747 70.7663 36.7971 69.8954 36.5978C68.9774 36.3863 68.0488 36.6537 67.1273 36.7307C66.4645 36.7849 66.1812 36.5978 66.2179 35.8706C66.2722 34.7762 66.4208 33.6259 66.1585 32.5927C65.7791 31.1015 65.6847 29.5719 65.2755 28.0772C64.8112 26.3436 64.2131 24.6486 63.4866 23.0075C62.934 21.7837 62.1786 20.6614 61.4738 19.5111C60.3862 17.7385 58.9103 16.3329 57.5166 14.826C55.2084 12.3331 52.3143 10.7335 49.3574 9.27201C48.0826 8.64093 46.612 8.27906 45.2183 7.83502C43.2948 7.21966 41.3206 7.10605 39.3621 6.81061C37.4385 6.52041 35.5482 6.69873 33.6439 6.89977C32.3217 7.03055 31.01 7.25188 29.7181 7.56229C28.4556 7.87522 27.2194 8.3018 25.9883 8.72661C24.0529 9.41349 22.2075 10.3315 20.4922 11.4607C18.9431 12.4523 17.4697 13.5573 16.0839 14.7666C14.8761 15.8297 13.753 16.9853 12.7247 18.2227C11.2197 20.0276 9.94662 22.0138 8.93533 24.135C7.96656 26.1717 7.32832 28.3307 6.54841 30.4285C6.52201 30.5116 6.50788 30.5982 6.50645 30.6855C6.41552 32.6941 5.89617 34.6783 6.16897 36.3443ZM95.7966 63.8467C96.1708 64.1683 96.5206 64.3711 96.6307 64.7208C97.1553 66.4252 98.3968 67.6507 99.4635 68.9758C100.578 70.3462 101.879 71.5532 103.33 72.5613C103.568 72.7361 103.912 72.9319 103.798 73.32C103.685 73.7081 103.335 73.6871 103.017 73.7396C101.304 74.0154 99.6417 74.5457 98.0856 75.313C96.6867 76.0122 95.2545 76.6608 93.9902 77.6066C93.8521 77.7097 93.672 77.8093 93.5059 77.701C93.2785 77.5489 93.4429 77.3513 93.4708 77.1538C93.5632 76.5902 93.7308 76.0417 93.9692 75.5227C94.7946 73.6994 95.1041 71.7414 95.3682 69.8272C95.585 68.28 96.0029 66.7067 95.7983 65.1071C95.7741 64.6873 95.7735 64.2665 95.7966 63.8467ZM86.4465 95.2439C86.4605 95.7002 86.3241 96.0866 85.761 95.8575C83.7774 95.0352 81.6778 94.5268 79.5376 94.3506C79.4052 94.3515 79.2759 94.3108 79.1679 94.2343C79.06 94.1577 78.9789 94.0492 78.936 93.9241C78.8469 93.6146 79.1318 93.466 79.3539 93.3419C79.8313 93.0745 80.3489 92.8734 80.8001 92.571C82.4963 91.4347 84.1558 90.2546 85.6142 88.8124C85.7576 88.6708 85.8974 88.3684 86.1737 88.4872C86.4867 88.6218 86.3818 88.9523 86.3486 89.1865C86.0606 91.1981 86.0937 93.2427 86.4465 95.2439ZM93.7909 53.5901C93.6349 53.5268 93.4937 53.432 93.3761 53.3117C93.2584 53.1914 93.1669 53.0481 93.1071 52.8908C92.3814 50.8909 91.1521 49.1882 89.9875 47.4453C89.6675 46.9662 89.2531 46.5519 88.9051 46.0904C88.7915 45.9401 88.6079 45.7408 88.7653 45.5485C88.8509 45.4488 89.087 45.4873 89.2478 45.4383C89.7847 45.274 90.1309 45.8614 90.6468 45.788C92.2206 45.5537 93.714 46.2373 95.2755 46.1376C95.7756 46.1061 95.905 46.3771 95.7057 46.8002C95.0222 48.2711 94.5015 49.8122 94.1528 51.3962C93.9867 52.1129 94.006 52.8576 93.7892 53.5901L93.7909 53.5901Z"/>
</mask>
<path d="M6.16897 36.3443C6.16897 37.6992 6.06578 38.7026 6.19168 39.6764C6.41201 41.3913 6.64631 43.101 7.18141 44.7775C7.56501 46.0533 8.04918 47.2966 8.6293 48.4959C9.4337 50.092 10.2031 51.7108 11.359 53.1233C12.3854 54.3715 13.3769 55.6425 14.5468 56.7613C14.9385 57.1372 15.3145 57.534 15.7359 57.8714C16.2028 58.2455 16.0716 58.5357 15.6834 58.8294C14.3317 59.8573 12.9887 60.8922 11.7944 62.1125C10.6858 63.247 9.66626 64.4428 8.66603 65.6788C7.073 67.6455 6.12172 69.9478 5.08478 72.1732C4.37306 73.7011 3.93065 75.4196 3.64387 77.1608C3.46901 78.2097 3.64389 79.3565 3.08781 80.3495C3.03039 80.5143 3.01124 80.6901 3.03184 80.8634C2.98637 83.1518 2.91646 85.4576 3.41133 87.6971C3.80128 89.4627 4.21219 91.2231 4.82947 92.9416C5.68178 95.305 6.79622 97.5655 8.15193 99.6808C8.76488 100.605 9.44275 101.485 10.1804 102.314C11.291 103.627 12.5202 104.836 13.8526 105.924C15.1358 106.944 16.4937 107.866 17.9147 108.684C19.5498 109.611 21.263 110.392 23.0348 111.02C24.3376 111.497 25.7609 111.631 27.1092 111.993C29.7968 112.717 32.53 112.38 35.2264 112.25C36.718 112.177 38.2552 111.609 39.759 111.189C43.6376 110.107 47.0299 108.168 50.0376 105.574C52.4403 103.501 54.4897 101.092 55.9953 98.2543C56.3153 97.6494 56.735 97.111 56.964 96.4379C57.1931 95.7649 57.8156 95.8121 58.363 96.0062C58.7479 96.1212 59.1383 96.2169 59.5328 96.2928C60.3897 96.5061 61.1923 96.9501 62.1226 96.8173C62.2817 96.7946 62.3779 96.9257 62.4094 97.0865C62.4741 97.4361 62.1926 97.5463 61.9862 97.6791C60.652 98.534 59.5871 99.693 58.5693 100.868C57.1473 102.495 56.1252 104.431 55.5844 106.523C54.963 108.806 54.833 111.195 55.2032 113.532C55.5529 115.675 56.373 117.57 57.3016 119.463C58.5449 121.979 60.3373 124.089 62.364 125.975C63.7988 127.311 65.383 128.478 67.0854 129.451C68.4843 130.248 69.8639 131.055 71.3905 131.592C73.029 132.167 74.65 132.772 76.355 133.165C78.3292 133.615 80.3279 133.69 82.3144 133.926C83.9214 134.122 85.4707 133.884 86.9833 133.739C89.3074 133.502 91.5721 132.86 93.6754 131.844C97.2375 130.131 100.198 127.648 102.029 124.077C102.77 122.631 103.351 121.072 103.489 119.402C103.536 118.83 103.818 118.32 103.847 117.717C103.917 116.289 103.652 114.92 103.368 113.54C103.316 113.283 103.193 112.997 103.424 112.803C103.655 112.609 103.975 112.677 104.257 112.755C105.458 113.095 106.654 113.401 107.894 113.63C110.959 114.199 114.023 113.92 117.073 113.843C118.646 113.803 120.248 113.297 121.81 112.794C123.645 112.171 125.426 111.401 127.136 110.49C129.06 109.5 130.684 108.1 132.123 106.541C133.644 104.914 134.835 103.007 135.631 100.927C136.115 99.7086 136.432 98.4302 136.574 97.1267C136.644 96.4135 136.843 95.6827 136.85 94.938C136.86 93.5255 136.476 92.1741 136.233 90.7983C135.822 88.4785 134.739 86.4663 133.494 84.5276C132.106 82.3651 130.303 80.5802 128.248 79.0366C128.178 78.9841 128.108 78.9317 128.042 78.8758C127.802 78.6747 127.419 78.5069 127.463 78.1765C127.516 77.7884 127.965 77.6817 128.28 77.631C130.13 77.3338 131.711 76.4073 133.311 75.5332C135.317 74.4118 137.108 72.9426 138.6 71.1943C139.877 69.7275 141.129 68.1052 141.573 66.2871C142.012 64.4987 143.147 62.8991 142.984 60.9272C142.827 59.0514 143.206 57.1214 142.729 55.2823C142.238 53.3856 141.648 51.5028 140.716 49.7458C139.81 48.0326 138.793 46.3876 137.516 44.9506C135.483 42.643 133.166 40.5976 130.457 39.1047C128.178 37.83 125.751 36.8384 123.231 36.152C120.941 35.5401 118.59 35.3933 116.275 34.9895C115.751 34.8968 115.653 34.75 115.773 34.2605C115.971 33.4528 116.581 32.841 116.676 31.9529C116.789 30.8865 117.34 29.8551 117.4 28.8062C117.491 27.1629 117.627 25.4846 117.265 23.8536C116.796 21.74 116.361 19.5775 115.273 17.707C113.946 15.4343 112.486 13.2247 110.552 11.3419C108.781 9.60977 106.792 8.11591 104.634 6.89802C102.693 5.79376 100.633 4.914 98.493 4.27574C97.1815 3.88941 95.8403 3.69885 94.506 3.44712C93.1223 3.17972 91.7183 3.03058 90.3093 3.00133C88.067 2.97827 85.8319 3.25759 83.6643 3.83171C81.9489 4.27225 80.2528 4.73203 78.6737 5.54319C75.3355 7.2564 72.5219 9.56398 70.455 12.7474C68.5437 15.6896 67.6361 18.9132 67.5574 22.3816C67.498 25.0668 68.082 27.6471 69.1032 30.119C70.0033 32.2937 71.2473 34.3095 72.7877 36.0891C72.8996 36.2185 73.092 36.3129 73.0255 36.5174C72.9416 36.7709 72.702 36.7341 72.5009 36.7237C71.6266 36.6747 70.7663 36.7971 69.8954 36.5978C68.9774 36.3863 68.0488 36.6537 67.1273 36.7307C66.4645 36.7849 66.1812 36.5978 66.2179 35.8706C66.2722 34.7762 66.4208 33.6259 66.1585 32.5927C65.7791 31.1015 65.6847 29.5719 65.2755 28.0772C64.8112 26.3436 64.2131 24.6486 63.4866 23.0075C62.934 21.7837 62.1786 20.6614 61.4738 19.5111C60.3862 17.7385 58.9103 16.3329 57.5166 14.826C55.2084 12.3331 52.3143 10.7335 49.3574 9.27201C48.0826 8.64093 46.612 8.27906 45.2183 7.83502C43.2948 7.21966 41.3206 7.10605 39.3621 6.81061C37.4385 6.52041 35.5482 6.69873 33.6439 6.89977C32.3217 7.03055 31.01 7.25188 29.7181 7.56229C28.4556 7.87522 27.2194 8.3018 25.9883 8.72661C24.0529 9.41349 22.2075 10.3315 20.4922 11.4607C18.9431 12.4523 17.4697 13.5573 16.0839 14.7666C14.8761 15.8297 13.753 16.9853 12.7247 18.2227C11.2197 20.0276 9.94662 22.0138 8.93533 24.135C7.96656 26.1717 7.32832 28.3307 6.54841 30.4285C6.52201 30.5116 6.50788 30.5982 6.50645 30.6855C6.41552 32.6941 5.89617 34.6783 6.16897 36.3443ZM95.7966 63.8467C96.1708 64.1683 96.5206 64.3711 96.6307 64.7208C97.1553 66.4252 98.3968 67.6507 99.4635 68.9758C100.578 70.3462 101.879 71.5532 103.33 72.5613C103.568 72.7361 103.912 72.9319 103.798 73.32C103.685 73.7081 103.335 73.6871 103.017 73.7396C101.304 74.0154 99.6417 74.5457 98.0856 75.313C96.6867 76.0122 95.2545 76.6608 93.9902 77.6066C93.8521 77.7097 93.672 77.8093 93.5059 77.701C93.2785 77.5489 93.4429 77.3513 93.4708 77.1538C93.5632 76.5902 93.7308 76.0417 93.9692 75.5227C94.7946 73.6994 95.1041 71.7414 95.3682 69.8272C95.585 68.28 96.0029 66.7067 95.7983 65.1071C95.7741 64.6873 95.7735 64.2665 95.7966 63.8467ZM86.4465 95.2439C86.4605 95.7002 86.3241 96.0866 85.761 95.8575C83.7774 95.0352 81.6778 94.5268 79.5376 94.3506C79.4052 94.3515 79.2759 94.3108 79.1679 94.2343C79.06 94.1577 78.9789 94.0492 78.936 93.9241C78.8469 93.6146 79.1318 93.466 79.3539 93.3419C79.8313 93.0745 80.3489 92.8734 80.8001 92.571C82.4963 91.4347 84.1558 90.2546 85.6142 88.8124C85.7576 88.6708 85.8974 88.3684 86.1737 88.4872C86.4867 88.6218 86.3818 88.9523 86.3486 89.1865C86.0606 91.1981 86.0937 93.2427 86.4465 95.2439ZM93.7909 53.5901C93.6349 53.5268 93.4937 53.432 93.3761 53.3117C93.2584 53.1914 93.1669 53.0481 93.1071 52.8908C92.3814 50.8909 91.1521 49.1882 89.9875 47.4453C89.6675 46.9662 89.2531 46.5519 88.9051 46.0904C88.7915 45.9401 88.6079 45.7408 88.7653 45.5485C88.8509 45.4488 89.087 45.4873 89.2478 45.4383C89.7847 45.274 90.1309 45.8614 90.6468 45.788C92.2206 45.5537 93.714 46.2373 95.2755 46.1376C95.7756 46.1061 95.905 46.3771 95.7057 46.8002C95.0222 48.2711 94.5015 49.8122 94.1528 51.3962C93.9867 52.1129 94.006 52.8576 93.7892 53.5901L93.7909 53.5901Z" fill="#FFDCE9"/>
<path d="M6.16897 36.3443C6.16897 37.6992 6.06578 38.7026 6.19168 39.6764C6.41201 41.3913 6.64631 43.101 7.18141 44.7775C7.56501 46.0533 8.04918 47.2966 8.6293 48.4959C9.4337 50.092 10.2031 51.7108 11.359 53.1233C12.3854 54.3715 13.3769 55.6425 14.5468 56.7613C14.9385 57.1372 15.3145 57.534 15.7359 57.8714C16.2028 58.2455 16.0716 58.5357 15.6834 58.8294C14.3317 59.8573 12.9887 60.8922 11.7944 62.1125C10.6858 63.247 9.66626 64.4428 8.66603 65.6788C7.073 67.6455 6.12172 69.9478 5.08478 72.1732C4.37306 73.7011 3.93065 75.4196 3.64387 77.1608C3.46901 78.2097 3.64389 79.3565 3.08781 80.3495C3.03039 80.5143 3.01124 80.6901 3.03184 80.8634C2.98637 83.1518 2.91646 85.4576 3.41133 87.6971C3.80128 89.4627 4.21219 91.2231 4.82947 92.9416C5.68178 95.305 6.79622 97.5655 8.15193 99.6808C8.76488 100.605 9.44275 101.485 10.1804 102.314C11.291 103.627 12.5202 104.836 13.8526 105.924C15.1358 106.944 16.4937 107.866 17.9147 108.684C19.5498 109.611 21.263 110.392 23.0348 111.02C24.3376 111.497 25.7609 111.631 27.1092 111.993C29.7968 112.717 32.53 112.38 35.2264 112.25C36.718 112.177 38.2552 111.609 39.759 111.189C43.6376 110.107 47.0299 108.168 50.0376 105.574C52.4403 103.501 54.4897 101.092 55.9953 98.2543C56.3153 97.6494 56.735 97.111 56.964 96.4379C57.1931 95.7649 57.8156 95.8121 58.363 96.0062C58.7479 96.1212 59.1383 96.2169 59.5328 96.2928C60.3897 96.5061 61.1923 96.9501 62.1226 96.8173C62.2817 96.7946 62.3779 96.9257 62.4094 97.0865C62.4741 97.4361 62.1926 97.5463 61.9862 97.6791C60.652 98.534 59.5871 99.693 58.5693 100.868C57.1473 102.495 56.1252 104.431 55.5844 106.523C54.963 108.806 54.833 111.195 55.2032 113.532C55.5529 115.675 56.373 117.57 57.3016 119.463C58.5449 121.979 60.3373 124.089 62.364 125.975C63.7988 127.311 65.383 128.478 67.0854 129.451C68.4843 130.248 69.8639 131.055 71.3905 131.592C73.029 132.167 74.65 132.772 76.355 133.165C78.3292 133.615 80.3279 133.69 82.3144 133.926C83.9214 134.122 85.4707 133.884 86.9833 133.739C89.3074 133.502 91.5721 132.86 93.6754 131.844C97.2375 130.131 100.198 127.648 102.029 124.077C102.77 122.631 103.351 121.072 103.489 119.402C103.536 118.83 103.818 118.32 103.847 117.717C103.917 116.289 103.652 114.92 103.368 113.54C103.316 113.283 103.193 112.997 103.424 112.803C103.655 112.609 103.975 112.677 104.257 112.755C105.458 113.095 106.654 113.401 107.894 113.63C110.959 114.199 114.023 113.92 117.073 113.843C118.646 113.803 120.248 113.297 121.81 112.794C123.645 112.171 125.426 111.401 127.136 110.49C129.06 109.5 130.684 108.1 132.123 106.541C133.644 104.914 134.835 103.007 135.631 100.927C136.115 99.7086 136.432 98.4302 136.574 97.1267C136.644 96.4135 136.843 95.6827 136.85 94.938C136.86 93.5255 136.476 92.1741 136.233 90.7983C135.822 88.4785 134.739 86.4663 133.494 84.5276C132.106 82.3651 130.303 80.5802 128.248 79.0366C128.178 78.9841 128.108 78.9317 128.042 78.8758C127.802 78.6747 127.419 78.5069 127.463 78.1765C127.516 77.7884 127.965 77.6817 128.28 77.631C130.13 77.3338 131.711 76.4073 133.311 75.5332C135.317 74.4118 137.108 72.9426 138.6 71.1943C139.877 69.7275 141.129 68.1052 141.573 66.2871C142.012 64.4987 143.147 62.8991 142.984 60.9272C142.827 59.0514 143.206 57.1214 142.729 55.2823C142.238 53.3856 141.648 51.5028 140.716 49.7458C139.81 48.0326 138.793 46.3876 137.516 44.9506C135.483 42.643 133.166 40.5976 130.457 39.1047C128.178 37.83 125.751 36.8384 123.231 36.152C120.941 35.5401 118.59 35.3933 116.275 34.9895C115.751 34.8968 115.653 34.75 115.773 34.2605C115.971 33.4528 116.581 32.841 116.676 31.9529C116.789 30.8865 117.34 29.8551 117.4 28.8062C117.491 27.1629 117.627 25.4846 117.265 23.8536C116.796 21.74 116.361 19.5775 115.273 17.707C113.946 15.4343 112.486 13.2247 110.552 11.3419C108.781 9.60977 106.792 8.11591 104.634 6.89802C102.693 5.79376 100.633 4.914 98.493 4.27574C97.1815 3.88941 95.8403 3.69885 94.506 3.44712C93.1223 3.17972 91.7183 3.03058 90.3093 3.00133C88.067 2.97827 85.8319 3.25759 83.6643 3.83171C81.9489 4.27225 80.2528 4.73203 78.6737 5.54319C75.3355 7.2564 72.5219 9.56398 70.455 12.7474C68.5437 15.6896 67.6361 18.9132 67.5574 22.3816C67.498 25.0668 68.082 27.6471 69.1032 30.119C70.0033 32.2937 71.2473 34.3095 72.7877 36.0891C72.8996 36.2185 73.092 36.3129 73.0255 36.5174C72.9416 36.7709 72.702 36.7341 72.5009 36.7237C71.6266 36.6747 70.7663 36.7971 69.8954 36.5978C68.9774 36.3863 68.0488 36.6537 67.1273 36.7307C66.4645 36.7849 66.1812 36.5978 66.2179 35.8706C66.2722 34.7762 66.4208 33.6259 66.1585 32.5927C65.7791 31.1015 65.6847 29.5719 65.2755 28.0772C64.8112 26.3436 64.2131 24.6486 63.4866 23.0075C62.934 21.7837 62.1786 20.6614 61.4738 19.5111C60.3862 17.7385 58.9103 16.3329 57.5166 14.826C55.2084 12.3331 52.3143 10.7335 49.3574 9.27201C48.0826 8.64093 46.612 8.27906 45.2183 7.83502C43.2948 7.21966 41.3206 7.10605 39.3621 6.81061C37.4385 6.52041 35.5482 6.69873 33.6439 6.89977C32.3217 7.03055 31.01 7.25188 29.7181 7.56229C28.4556 7.87522 27.2194 8.3018 25.9883 8.72661C24.0529 9.41349 22.2075 10.3315 20.4922 11.4607C18.9431 12.4523 17.4697 13.5573 16.0839 14.7666C14.8761 15.8297 13.753 16.9853 12.7247 18.2227C11.2197 20.0276 9.94662 22.0138 8.93533 24.135C7.96656 26.1717 7.32832 28.3307 6.54841 30.4285C6.52201 30.5116 6.50788 30.5982 6.50645 30.6855C6.41552 32.6941 5.89617 34.6783 6.16897 36.3443ZM95.7966 63.8467C96.1708 64.1683 96.5206 64.3711 96.6307 64.7208C97.1553 66.4252 98.3968 67.6507 99.4635 68.9758C100.578 70.3462 101.879 71.5532 103.33 72.5613C103.568 72.7361 103.912 72.9319 103.798 73.32C103.685 73.7081 103.335 73.6871 103.017 73.7396C101.304 74.0154 99.6417 74.5457 98.0856 75.313C96.6867 76.0122 95.2545 76.6608 93.9902 77.6066C93.8521 77.7097 93.672 77.8093 93.5059 77.701C93.2785 77.5489 93.4429 77.3513 93.4708 77.1538C93.5632 76.5902 93.7308 76.0417 93.9692 75.5227C94.7946 73.6994 95.1041 71.7414 95.3682 69.8272C95.585 68.28 96.0029 66.7067 95.7983 65.1071C95.7741 64.6873 95.7735 64.2665 95.7966 63.8467ZM86.4465 95.2439C86.4605 95.7002 86.3241 96.0866 85.761 95.8575C83.7774 95.0352 81.6778 94.5268 79.5376 94.3506C79.4052 94.3515 79.2759 94.3108 79.1679 94.2343C79.06 94.1577 78.9789 94.0492 78.936 93.9241C78.8469 93.6146 79.1318 93.466 79.3539 93.3419C79.8313 93.0745 80.3489 92.8734 80.8001 92.571C82.4963 91.4347 84.1558 90.2546 85.6142 88.8124C85.7576 88.6708 85.8974 88.3684 86.1737 88.4872C86.4867 88.6218 86.3818 88.9523 86.3486 89.1865C86.0606 91.1981 86.0937 93.2427 86.4465 95.2439ZM93.7909 53.5901C93.6349 53.5268 93.4937 53.432 93.3761 53.3117C93.2584 53.1914 93.1669 53.0481 93.1071 52.8908C92.3814 50.8909 91.1521 49.1882 89.9875 47.4453C89.6675 46.9662 89.2531 46.5519 88.9051 46.0904C88.7915 45.9401 88.6079 45.7408 88.7653 45.5485C88.8509 45.4488 89.087 45.4873 89.2478 45.4383C89.7847 45.274 90.1309 45.8614 90.6468 45.788C92.2206 45.5537 93.714 46.2373 95.2755 46.1376C95.7756 46.1061 95.905 46.3771 95.7057 46.8002C95.0222 48.2711 94.5015 49.8122 94.1528 51.3962C93.9867 52.1129 94.006 52.8576 93.7892 53.5901L93.7909 53.5901Z" stroke="#FF7596" stroke-width="6" mask="url(#path-1-outside-1_298_4025)"/>
</svg>
