<svg width="146" height="137" viewBox="0 0 146 137" fill="none" xmlns="http://www.w3.org/2000/svg">
<mask id="path-1-outside-1_298_4024" maskUnits="userSpaceOnUse" x="-1.00001" y="-6.29444e-06" width="147" height="137" fill="black">
<rect fill="white" x="-1.00001" y="-6.29444e-06" width="147" height="137"/>
<path d="M6.16897 100.656C6.16897 99.3008 6.06578 98.2974 6.19168 97.3236C6.41201 95.6087 6.64632 93.899 7.18141 92.2225C7.56502 90.9467 8.04917 89.7034 8.62931 88.5041C9.43369 86.908 10.2031 85.2892 11.359 83.8767C12.3855 82.6285 13.3769 81.3575 14.5468 80.2387C14.9385 79.8628 15.3145 79.466 15.7359 79.1286C16.2028 78.7545 16.0716 78.4643 15.6834 78.1706C14.3317 77.1427 12.9887 76.1078 11.7944 74.8875C10.6858 73.753 9.66626 72.5572 8.66602 71.3212C7.07299 69.3545 6.12172 67.0522 5.08477 64.8268C4.37306 63.2989 3.93065 61.5804 3.64387 59.8392C3.46901 58.7903 3.64388 57.6435 3.08781 56.6505C3.03039 56.4857 3.01124 56.3099 3.03184 56.1366C2.98638 53.8482 2.91646 51.5424 3.41133 49.3029C3.80128 47.5373 4.21219 45.7769 4.82947 44.0584C5.68178 41.695 6.79621 39.4345 8.15193 37.3192C8.76488 36.3947 9.44275 35.5149 10.1804 34.6864C11.291 33.3729 12.5202 32.1645 13.8526 31.0764C15.1358 30.0563 16.4937 29.1336 17.9147 28.3161C19.5498 27.3893 21.263 26.6077 23.0348 25.9805C24.3376 25.5032 25.7609 25.3686 27.1092 25.0068C29.7968 24.283 32.53 24.6204 35.2264 24.7498C36.718 24.8232 38.2552 25.3914 39.759 25.8109C43.6376 26.893 47.0299 28.8318 50.0376 31.4261C52.4403 33.4994 54.4897 35.9084 55.9953 38.7457C56.3153 39.3506 56.735 39.889 56.964 40.5621C57.1931 41.2351 57.8156 41.1879 58.363 40.9938C58.7479 40.8788 59.1383 40.7831 59.5328 40.7072C60.3897 40.4939 61.1923 40.0499 62.1226 40.1827C62.2817 40.2054 62.3779 40.0743 62.4094 39.9135C62.4741 39.5639 62.1926 39.4537 61.9862 39.3209C60.652 38.466 59.5871 37.307 58.5693 36.1322C57.1473 34.5052 56.1252 32.5687 55.5844 30.4768C54.963 28.1939 54.833 25.8052 55.2032 23.4684C55.5529 21.3251 56.373 19.4301 57.3016 17.5368C58.5449 15.0212 60.3373 12.9111 62.364 11.0248C63.7988 9.68862 65.383 8.52244 67.0854 7.54947C68.4843 6.7523 69.8639 5.94464 71.3905 5.40795C73.029 4.8328 74.65 4.22793 76.355 3.83459C78.3292 3.38531 80.3279 3.31014 82.3144 3.07413C83.9214 2.87834 85.4707 3.11608 86.9833 3.26118C89.3074 3.49848 91.5721 4.13979 93.6754 5.1562C97.2375 6.86941 100.198 9.35184 102.029 12.9234C102.77 14.3691 103.351 15.9285 103.489 17.598C103.536 18.1696 103.818 18.6801 103.847 19.2832C103.917 20.7115 103.652 22.0803 103.368 23.4596C103.316 23.7166 103.193 24.0033 103.424 24.1974C103.655 24.3914 103.975 24.3232 104.257 24.2446C105.458 23.9054 106.654 23.5995 107.894 23.3705C110.959 22.8006 114.023 23.0803 117.073 23.1572C118.646 23.1974 120.248 23.7026 121.81 24.2061C123.645 24.8289 125.426 25.5994 127.136 26.5102C129.06 27.4997 130.684 28.9 132.123 30.4593C133.644 32.0864 134.835 33.9927 135.631 36.0727C136.115 37.2914 136.432 38.5698 136.574 39.8733C136.644 40.5865 136.843 41.3173 136.85 42.062C136.86 43.4745 136.476 44.8259 136.233 46.2017C135.822 48.5215 134.739 50.5337 133.494 52.4724C132.106 54.6349 130.303 56.4198 128.248 57.9634C128.178 58.0159 128.108 58.0683 128.042 58.1242C127.802 58.3253 127.419 58.4931 127.463 58.8235C127.516 59.2116 127.965 59.3183 128.28 59.369C130.13 59.6662 131.711 60.5927 133.311 61.4668C135.317 62.5882 137.108 64.0574 138.6 65.8057C139.877 67.2725 141.129 68.8948 141.573 70.7129C142.012 72.5013 143.147 74.1009 142.984 76.0728C142.827 77.9486 143.206 79.8786 142.729 81.7177C142.238 83.6144 141.648 85.4972 140.716 87.2542C139.81 88.9674 138.793 90.6124 137.516 92.0494C135.483 94.357 133.166 96.4024 130.457 97.8953C128.178 99.17 125.751 100.162 123.231 100.848C120.941 101.46 118.59 101.607 116.275 102.011C115.751 102.103 115.653 102.25 115.773 102.739C115.971 103.547 116.581 104.159 116.676 105.047C116.789 106.114 117.34 107.145 117.4 108.194C117.491 109.837 117.627 111.515 117.265 113.146C116.796 115.26 116.361 117.422 115.273 119.293C113.946 121.566 112.486 123.775 110.552 125.658C108.781 127.39 106.792 128.884 104.634 130.102C102.693 131.206 100.633 132.086 98.493 132.724C97.1815 133.111 95.8403 133.301 94.506 133.553C93.1223 133.82 91.7183 133.969 90.3093 133.999C88.067 134.022 85.8319 133.742 83.6643 133.168C81.9489 132.728 80.2528 132.268 78.6737 131.457C75.3355 129.744 72.5219 127.436 70.455 124.253C68.5437 121.31 67.6361 118.087 67.5574 114.618C67.498 111.933 68.082 109.353 69.1032 106.881C70.0033 104.706 71.2473 102.691 72.7877 100.911C72.8996 100.782 73.092 100.687 73.0255 100.483C72.9416 100.229 72.702 100.266 72.5009 100.276C71.6266 100.325 70.7663 100.203 69.8954 100.402C68.9774 100.614 68.0488 100.346 67.1273 100.269C66.4645 100.215 66.1812 100.402 66.2179 101.129C66.2722 102.224 66.4208 103.374 66.1585 104.407C65.7791 105.898 65.6847 107.428 65.2755 108.923C64.8112 110.656 64.2131 112.351 63.4866 113.993C62.934 115.216 62.1786 116.339 61.4738 117.489C60.3862 119.262 58.9103 120.667 57.5166 122.174C55.2084 124.667 52.3143 126.267 49.3574 127.728C48.0826 128.359 46.612 128.721 45.2183 129.165C43.2948 129.78 41.3206 129.894 39.3621 130.189C37.4385 130.48 35.5482 130.301 33.6439 130.1C32.3217 129.969 31.01 129.748 29.7181 129.438C28.4556 129.125 27.2194 128.698 25.9883 128.273C24.0529 127.587 22.2075 126.669 20.4922 125.539C18.9431 124.548 17.4697 123.443 16.0839 122.233C14.8761 121.17 13.753 120.015 12.7247 118.777C11.2197 116.972 9.94661 114.986 8.93532 112.865C7.96656 110.828 7.32832 108.669 6.54842 106.572C6.52202 106.488 6.50788 106.402 6.50645 106.315C6.41552 104.306 5.89618 102.322 6.16897 100.656ZM95.7966 73.1533C96.1708 72.8317 96.5206 72.6289 96.6307 72.2792C97.1553 70.5748 98.3968 69.3493 99.4635 68.0242C100.578 66.6538 101.879 65.4468 103.33 64.4387C103.568 64.2639 103.912 64.0681 103.798 63.68C103.685 63.2919 103.335 63.3129 103.017 63.2604C101.304 62.9846 99.6417 62.4543 98.0856 61.687C96.6867 60.9878 95.2545 60.3392 93.9902 59.3934C93.8521 59.2903 93.672 59.1907 93.5059 59.299C93.2785 59.4511 93.4429 59.6487 93.4708 59.8462C93.5632 60.4098 93.7308 60.9583 93.9692 61.4773C94.7946 63.3006 95.1041 65.2586 95.3682 67.1728C95.585 68.72 96.0029 70.2933 95.7983 71.8929C95.7741 72.3127 95.7735 72.7335 95.7966 73.1533V73.1533ZM86.4465 41.7561C86.4605 41.2998 86.3241 40.9135 85.761 41.1425C83.7774 41.9648 81.6778 42.4732 79.5376 42.6494C79.4052 42.6485 79.2759 42.6892 79.1679 42.7657C79.06 42.8423 78.9789 42.9508 78.936 43.0759C78.8469 43.3854 79.1318 43.534 79.3539 43.6581C79.8313 43.9255 80.3489 44.1266 80.8001 44.429C82.4963 45.5653 84.1558 46.7454 85.6142 48.1876C85.7576 48.3292 85.8974 48.6316 86.1737 48.5128C86.4867 48.3782 86.3818 48.0478 86.3486 47.8135C86.0606 45.8019 86.0937 43.7573 86.4465 41.7561V41.7561ZM93.7909 83.4099C93.6349 83.4732 93.4937 83.568 93.3761 83.6883C93.2584 83.8086 93.1669 83.9519 93.1071 84.1092C92.3814 86.1091 91.1521 87.8118 89.9875 89.5547C89.6675 90.0337 89.2531 90.4481 88.9051 90.9096C88.7915 91.0599 88.6079 91.2592 88.7653 91.4515C88.8509 91.5512 89.087 91.5127 89.2478 91.5617C89.7847 91.726 90.1309 91.1386 90.6468 91.212C92.2206 91.4463 93.714 90.7627 95.2755 90.8624C95.7756 90.8938 95.905 90.6229 95.7057 90.1998C95.0222 88.7289 94.5015 87.1878 94.1528 85.6038C93.9867 84.8871 94.006 84.1424 93.7892 83.4099L93.7909 83.4099Z"/>
</mask>
<path d="M6.16897 100.656C6.16897 99.3008 6.06578 98.2974 6.19168 97.3236C6.41201 95.6087 6.64632 93.899 7.18141 92.2225C7.56502 90.9467 8.04917 89.7034 8.62931 88.5041C9.43369 86.908 10.2031 85.2892 11.359 83.8767C12.3855 82.6285 13.3769 81.3575 14.5468 80.2387C14.9385 79.8628 15.3145 79.466 15.7359 79.1286C16.2028 78.7545 16.0716 78.4643 15.6834 78.1706C14.3317 77.1427 12.9887 76.1078 11.7944 74.8875C10.6858 73.753 9.66626 72.5572 8.66602 71.3212C7.07299 69.3545 6.12172 67.0522 5.08477 64.8268C4.37306 63.2989 3.93065 61.5804 3.64387 59.8392C3.46901 58.7903 3.64388 57.6435 3.08781 56.6505C3.03039 56.4857 3.01124 56.3099 3.03184 56.1366C2.98638 53.8482 2.91646 51.5424 3.41133 49.3029C3.80128 47.5373 4.21219 45.7769 4.82947 44.0584C5.68178 41.695 6.79621 39.4345 8.15193 37.3192C8.76488 36.3947 9.44275 35.5149 10.1804 34.6864C11.291 33.3729 12.5202 32.1645 13.8526 31.0764C15.1358 30.0563 16.4937 29.1336 17.9147 28.3161C19.5498 27.3893 21.263 26.6077 23.0348 25.9805C24.3376 25.5032 25.7609 25.3686 27.1092 25.0068C29.7968 24.283 32.53 24.6204 35.2264 24.7498C36.718 24.8232 38.2552 25.3914 39.759 25.8109C43.6376 26.893 47.0299 28.8318 50.0376 31.4261C52.4403 33.4994 54.4897 35.9084 55.9953 38.7457C56.3153 39.3506 56.735 39.889 56.964 40.5621C57.1931 41.2351 57.8156 41.1879 58.363 40.9938C58.7479 40.8788 59.1383 40.7831 59.5328 40.7072C60.3897 40.4939 61.1923 40.0499 62.1226 40.1827C62.2817 40.2054 62.3779 40.0743 62.4094 39.9135C62.4741 39.5639 62.1926 39.4537 61.9862 39.3209C60.652 38.466 59.5871 37.307 58.5693 36.1322C57.1473 34.5052 56.1252 32.5687 55.5844 30.4768C54.963 28.1939 54.833 25.8052 55.2032 23.4684C55.5529 21.3251 56.373 19.4301 57.3016 17.5368C58.5449 15.0212 60.3373 12.9111 62.364 11.0248C63.7988 9.68862 65.383 8.52244 67.0854 7.54947C68.4843 6.7523 69.8639 5.94464 71.3905 5.40795C73.029 4.8328 74.65 4.22793 76.355 3.83459C78.3292 3.38531 80.3279 3.31014 82.3144 3.07413C83.9214 2.87834 85.4707 3.11608 86.9833 3.26118C89.3074 3.49848 91.5721 4.13979 93.6754 5.1562C97.2375 6.86941 100.198 9.35184 102.029 12.9234C102.77 14.3691 103.351 15.9285 103.489 17.598C103.536 18.1696 103.818 18.6801 103.847 19.2832C103.917 20.7115 103.652 22.0803 103.368 23.4596C103.316 23.7166 103.193 24.0033 103.424 24.1974C103.655 24.3914 103.975 24.3232 104.257 24.2446C105.458 23.9054 106.654 23.5995 107.894 23.3705C110.959 22.8006 114.023 23.0803 117.073 23.1572C118.646 23.1974 120.248 23.7026 121.81 24.2061C123.645 24.8289 125.426 25.5994 127.136 26.5102C129.06 27.4997 130.684 28.9 132.123 30.4593C133.644 32.0864 134.835 33.9927 135.631 36.0727C136.115 37.2914 136.432 38.5698 136.574 39.8733C136.644 40.5865 136.843 41.3173 136.85 42.062C136.86 43.4745 136.476 44.8259 136.233 46.2017C135.822 48.5215 134.739 50.5337 133.494 52.4724C132.106 54.6349 130.303 56.4198 128.248 57.9634C128.178 58.0159 128.108 58.0683 128.042 58.1242C127.802 58.3253 127.419 58.4931 127.463 58.8235C127.516 59.2116 127.965 59.3183 128.28 59.369C130.13 59.6662 131.711 60.5927 133.311 61.4668C135.317 62.5882 137.108 64.0574 138.6 65.8057C139.877 67.2725 141.129 68.8948 141.573 70.7129C142.012 72.5013 143.147 74.1009 142.984 76.0728C142.827 77.9486 143.206 79.8786 142.729 81.7177C142.238 83.6144 141.648 85.4972 140.716 87.2542C139.81 88.9674 138.793 90.6124 137.516 92.0494C135.483 94.357 133.166 96.4024 130.457 97.8953C128.178 99.17 125.751 100.162 123.231 100.848C120.941 101.46 118.59 101.607 116.275 102.011C115.751 102.103 115.653 102.25 115.773 102.739C115.971 103.547 116.581 104.159 116.676 105.047C116.789 106.114 117.34 107.145 117.4 108.194C117.491 109.837 117.627 111.515 117.265 113.146C116.796 115.26 116.361 117.422 115.273 119.293C113.946 121.566 112.486 123.775 110.552 125.658C108.781 127.39 106.792 128.884 104.634 130.102C102.693 131.206 100.633 132.086 98.493 132.724C97.1815 133.111 95.8403 133.301 94.506 133.553C93.1223 133.82 91.7183 133.969 90.3093 133.999C88.067 134.022 85.8319 133.742 83.6643 133.168C81.9489 132.728 80.2528 132.268 78.6737 131.457C75.3355 129.744 72.5219 127.436 70.455 124.253C68.5437 121.31 67.6361 118.087 67.5574 114.618C67.498 111.933 68.082 109.353 69.1032 106.881C70.0033 104.706 71.2473 102.691 72.7877 100.911C72.8996 100.782 73.092 100.687 73.0255 100.483C72.9416 100.229 72.702 100.266 72.5009 100.276C71.6266 100.325 70.7663 100.203 69.8954 100.402C68.9774 100.614 68.0488 100.346 67.1273 100.269C66.4645 100.215 66.1812 100.402 66.2179 101.129C66.2722 102.224 66.4208 103.374 66.1585 104.407C65.7791 105.898 65.6847 107.428 65.2755 108.923C64.8112 110.656 64.2131 112.351 63.4866 113.993C62.934 115.216 62.1786 116.339 61.4738 117.489C60.3862 119.262 58.9103 120.667 57.5166 122.174C55.2084 124.667 52.3143 126.267 49.3574 127.728C48.0826 128.359 46.612 128.721 45.2183 129.165C43.2948 129.78 41.3206 129.894 39.3621 130.189C37.4385 130.48 35.5482 130.301 33.6439 130.1C32.3217 129.969 31.01 129.748 29.7181 129.438C28.4556 129.125 27.2194 128.698 25.9883 128.273C24.0529 127.587 22.2075 126.669 20.4922 125.539C18.9431 124.548 17.4697 123.443 16.0839 122.233C14.8761 121.17 13.753 120.015 12.7247 118.777C11.2197 116.972 9.94661 114.986 8.93532 112.865C7.96656 110.828 7.32832 108.669 6.54842 106.572C6.52202 106.488 6.50788 106.402 6.50645 106.315C6.41552 104.306 5.89618 102.322 6.16897 100.656ZM95.7966 73.1533C96.1708 72.8317 96.5206 72.6289 96.6307 72.2792C97.1553 70.5748 98.3968 69.3493 99.4635 68.0242C100.578 66.6538 101.879 65.4468 103.33 64.4387C103.568 64.2639 103.912 64.0681 103.798 63.68C103.685 63.2919 103.335 63.3129 103.017 63.2604C101.304 62.9846 99.6417 62.4543 98.0856 61.687C96.6867 60.9878 95.2545 60.3392 93.9902 59.3934C93.8521 59.2903 93.672 59.1907 93.5059 59.299C93.2785 59.4511 93.4429 59.6487 93.4708 59.8462C93.5632 60.4098 93.7308 60.9583 93.9692 61.4773C94.7946 63.3006 95.1041 65.2586 95.3682 67.1728C95.585 68.72 96.0029 70.2933 95.7983 71.8929C95.7741 72.3127 95.7735 72.7335 95.7966 73.1533V73.1533ZM86.4465 41.7561C86.4605 41.2998 86.3241 40.9135 85.761 41.1425C83.7774 41.9648 81.6778 42.4732 79.5376 42.6494C79.4052 42.6485 79.2759 42.6892 79.1679 42.7657C79.06 42.8423 78.9789 42.9508 78.936 43.0759C78.8469 43.3854 79.1318 43.534 79.3539 43.6581C79.8313 43.9255 80.3489 44.1266 80.8001 44.429C82.4963 45.5653 84.1558 46.7454 85.6142 48.1876C85.7576 48.3292 85.8974 48.6316 86.1737 48.5128C86.4867 48.3782 86.3818 48.0478 86.3486 47.8135C86.0606 45.8019 86.0937 43.7573 86.4465 41.7561V41.7561ZM93.7909 83.4099C93.6349 83.4732 93.4937 83.568 93.3761 83.6883C93.2584 83.8086 93.1669 83.9519 93.1071 84.1092C92.3814 86.1091 91.1521 87.8118 89.9875 89.5547C89.6675 90.0337 89.2531 90.4481 88.9051 90.9096C88.7915 91.0599 88.6079 91.2592 88.7653 91.4515C88.8509 91.5512 89.087 91.5127 89.2478 91.5617C89.7847 91.726 90.1309 91.1386 90.6468 91.212C92.2206 91.4463 93.714 90.7627 95.2755 90.8624C95.7756 90.8938 95.905 90.6229 95.7057 90.1998C95.0222 88.7289 94.5015 87.1878 94.1528 85.6038C93.9867 84.8871 94.006 84.1424 93.7892 83.4099L93.7909 83.4099Z" fill="#FFF3E8"/>
<path d="M6.16897 100.656C6.16897 99.3008 6.06578 98.2974 6.19168 97.3236C6.41201 95.6087 6.64632 93.899 7.18141 92.2225C7.56502 90.9467 8.04917 89.7034 8.62931 88.5041C9.43369 86.908 10.2031 85.2892 11.359 83.8767C12.3855 82.6285 13.3769 81.3575 14.5468 80.2387C14.9385 79.8628 15.3145 79.466 15.7359 79.1286C16.2028 78.7545 16.0716 78.4643 15.6834 78.1706C14.3317 77.1427 12.9887 76.1078 11.7944 74.8875C10.6858 73.753 9.66626 72.5572 8.66602 71.3212C7.07299 69.3545 6.12172 67.0522 5.08477 64.8268C4.37306 63.2989 3.93065 61.5804 3.64387 59.8392C3.46901 58.7903 3.64388 57.6435 3.08781 56.6505C3.03039 56.4857 3.01124 56.3099 3.03184 56.1366C2.98638 53.8482 2.91646 51.5424 3.41133 49.3029C3.80128 47.5373 4.21219 45.7769 4.82947 44.0584C5.68178 41.695 6.79621 39.4345 8.15193 37.3192C8.76488 36.3947 9.44275 35.5149 10.1804 34.6864C11.291 33.3729 12.5202 32.1645 13.8526 31.0764C15.1358 30.0563 16.4937 29.1336 17.9147 28.3161C19.5498 27.3893 21.263 26.6077 23.0348 25.9805C24.3376 25.5032 25.7609 25.3686 27.1092 25.0068C29.7968 24.283 32.53 24.6204 35.2264 24.7498C36.718 24.8232 38.2552 25.3914 39.759 25.8109C43.6376 26.893 47.0299 28.8318 50.0376 31.4261C52.4403 33.4994 54.4897 35.9084 55.9953 38.7457C56.3153 39.3506 56.735 39.889 56.964 40.5621C57.1931 41.2351 57.8156 41.1879 58.363 40.9938C58.7479 40.8788 59.1383 40.7831 59.5328 40.7072C60.3897 40.4939 61.1923 40.0499 62.1226 40.1827C62.2817 40.2054 62.3779 40.0743 62.4094 39.9135C62.4741 39.5639 62.1926 39.4537 61.9862 39.3209C60.652 38.466 59.5871 37.307 58.5693 36.1322C57.1473 34.5052 56.1252 32.5687 55.5844 30.4768C54.963 28.1939 54.833 25.8052 55.2032 23.4684C55.5529 21.3251 56.373 19.4301 57.3016 17.5368C58.5449 15.0212 60.3373 12.9111 62.364 11.0248C63.7988 9.68862 65.383 8.52244 67.0854 7.54947C68.4843 6.7523 69.8639 5.94464 71.3905 5.40795C73.029 4.8328 74.65 4.22793 76.355 3.83459C78.3292 3.38531 80.3279 3.31014 82.3144 3.07413C83.9214 2.87834 85.4707 3.11608 86.9833 3.26118C89.3074 3.49848 91.5721 4.13979 93.6754 5.1562C97.2375 6.86941 100.198 9.35184 102.029 12.9234C102.77 14.3691 103.351 15.9285 103.489 17.598C103.536 18.1696 103.818 18.6801 103.847 19.2832C103.917 20.7115 103.652 22.0803 103.368 23.4596C103.316 23.7166 103.193 24.0033 103.424 24.1974C103.655 24.3914 103.975 24.3232 104.257 24.2446C105.458 23.9054 106.654 23.5995 107.894 23.3705C110.959 22.8006 114.023 23.0803 117.073 23.1572C118.646 23.1974 120.248 23.7026 121.81 24.2061C123.645 24.8289 125.426 25.5994 127.136 26.5102C129.06 27.4997 130.684 28.9 132.123 30.4593C133.644 32.0864 134.835 33.9927 135.631 36.0727C136.115 37.2914 136.432 38.5698 136.574 39.8733C136.644 40.5865 136.843 41.3173 136.85 42.062C136.86 43.4745 136.476 44.8259 136.233 46.2017C135.822 48.5215 134.739 50.5337 133.494 52.4724C132.106 54.6349 130.303 56.4198 128.248 57.9634C128.178 58.0159 128.108 58.0683 128.042 58.1242C127.802 58.3253 127.419 58.4931 127.463 58.8235C127.516 59.2116 127.965 59.3183 128.28 59.369C130.13 59.6662 131.711 60.5927 133.311 61.4668C135.317 62.5882 137.108 64.0574 138.6 65.8057C139.877 67.2725 141.129 68.8948 141.573 70.7129C142.012 72.5013 143.147 74.1009 142.984 76.0728C142.827 77.9486 143.206 79.8786 142.729 81.7177C142.238 83.6144 141.648 85.4972 140.716 87.2542C139.81 88.9674 138.793 90.6124 137.516 92.0494C135.483 94.357 133.166 96.4024 130.457 97.8953C128.178 99.17 125.751 100.162 123.231 100.848C120.941 101.46 118.59 101.607 116.275 102.011C115.751 102.103 115.653 102.25 115.773 102.739C115.971 103.547 116.581 104.159 116.676 105.047C116.789 106.114 117.34 107.145 117.4 108.194C117.491 109.837 117.627 111.515 117.265 113.146C116.796 115.26 116.361 117.422 115.273 119.293C113.946 121.566 112.486 123.775 110.552 125.658C108.781 127.39 106.792 128.884 104.634 130.102C102.693 131.206 100.633 132.086 98.493 132.724C97.1815 133.111 95.8403 133.301 94.506 133.553C93.1223 133.82 91.7183 133.969 90.3093 133.999C88.067 134.022 85.8319 133.742 83.6643 133.168C81.9489 132.728 80.2528 132.268 78.6737 131.457C75.3355 129.744 72.5219 127.436 70.455 124.253C68.5437 121.31 67.6361 118.087 67.5574 114.618C67.498 111.933 68.082 109.353 69.1032 106.881C70.0033 104.706 71.2473 102.691 72.7877 100.911C72.8996 100.782 73.092 100.687 73.0255 100.483C72.9416 100.229 72.702 100.266 72.5009 100.276C71.6266 100.325 70.7663 100.203 69.8954 100.402C68.9774 100.614 68.0488 100.346 67.1273 100.269C66.4645 100.215 66.1812 100.402 66.2179 101.129C66.2722 102.224 66.4208 103.374 66.1585 104.407C65.7791 105.898 65.6847 107.428 65.2755 108.923C64.8112 110.656 64.2131 112.351 63.4866 113.993C62.934 115.216 62.1786 116.339 61.4738 117.489C60.3862 119.262 58.9103 120.667 57.5166 122.174C55.2084 124.667 52.3143 126.267 49.3574 127.728C48.0826 128.359 46.612 128.721 45.2183 129.165C43.2948 129.78 41.3206 129.894 39.3621 130.189C37.4385 130.48 35.5482 130.301 33.6439 130.1C32.3217 129.969 31.01 129.748 29.7181 129.438C28.4556 129.125 27.2194 128.698 25.9883 128.273C24.0529 127.587 22.2075 126.669 20.4922 125.539C18.9431 124.548 17.4697 123.443 16.0839 122.233C14.8761 121.17 13.753 120.015 12.7247 118.777C11.2197 116.972 9.94661 114.986 8.93532 112.865C7.96656 110.828 7.32832 108.669 6.54842 106.572C6.52202 106.488 6.50788 106.402 6.50645 106.315C6.41552 104.306 5.89618 102.322 6.16897 100.656ZM95.7966 73.1533C96.1708 72.8317 96.5206 72.6289 96.6307 72.2792C97.1553 70.5748 98.3968 69.3493 99.4635 68.0242C100.578 66.6538 101.879 65.4468 103.33 64.4387C103.568 64.2639 103.912 64.0681 103.798 63.68C103.685 63.2919 103.335 63.3129 103.017 63.2604C101.304 62.9846 99.6417 62.4543 98.0856 61.687C96.6867 60.9878 95.2545 60.3392 93.9902 59.3934C93.8521 59.2903 93.672 59.1907 93.5059 59.299C93.2785 59.4511 93.4429 59.6487 93.4708 59.8462C93.5632 60.4098 93.7308 60.9583 93.9692 61.4773C94.7946 63.3006 95.1041 65.2586 95.3682 67.1728C95.585 68.72 96.0029 70.2933 95.7983 71.8929C95.7741 72.3127 95.7735 72.7335 95.7966 73.1533V73.1533ZM86.4465 41.7561C86.4605 41.2998 86.3241 40.9135 85.761 41.1425C83.7774 41.9648 81.6778 42.4732 79.5376 42.6494C79.4052 42.6485 79.2759 42.6892 79.1679 42.7657C79.06 42.8423 78.9789 42.9508 78.936 43.0759C78.8469 43.3854 79.1318 43.534 79.3539 43.6581C79.8313 43.9255 80.3489 44.1266 80.8001 44.429C82.4963 45.5653 84.1558 46.7454 85.6142 48.1876C85.7576 48.3292 85.8974 48.6316 86.1737 48.5128C86.4867 48.3782 86.3818 48.0478 86.3486 47.8135C86.0606 45.8019 86.0937 43.7573 86.4465 41.7561V41.7561ZM93.7909 83.4099C93.6349 83.4732 93.4937 83.568 93.3761 83.6883C93.2584 83.8086 93.1669 83.9519 93.1071 84.1092C92.3814 86.1091 91.1521 87.8118 89.9875 89.5547C89.6675 90.0337 89.2531 90.4481 88.9051 90.9096C88.7915 91.0599 88.6079 91.2592 88.7653 91.4515C88.8509 91.5512 89.087 91.5127 89.2478 91.5617C89.7847 91.726 90.1309 91.1386 90.6468 91.212C92.2206 91.4463 93.714 90.7627 95.2755 90.8624C95.7756 90.8938 95.905 90.6229 95.7057 90.1998C95.0222 88.7289 94.5015 87.1878 94.1528 85.6038C93.9867 84.8871 94.006 84.1424 93.7892 83.4099L93.7909 83.4099Z" stroke="#FF7596" stroke-width="6" mask="url(#path-1-outside-1_298_4024)"/>
</svg>
