<svg width="110" height="73" viewBox="0 0 110 73" fill="none" xmlns="http://www.w3.org/2000/svg">
<path fill-rule="evenodd" clip-rule="evenodd" d="M88.7769 20.219C81.8021 21.5851 75.1888 24.3907 69.3591 28.4566C67.994 28.1383 66.6412 27.8214 65.2973 27.5065C61.9888 26.7315 58.7342 25.969 55.4818 25.2286C54.8705 25.0585 54.2244 25.0585 53.6132 25.2286C52.1104 25.7906 51.1827 25.111 50.0023 24.2398C49.6501 23.9736 49.298 23.7071 48.9458 23.4405C44.8596 20.3479 40.7637 17.248 36.4168 14.5689C33.372 12.7116 30.0696 11.3141 26.6164 10.4218C18.6063 8.35258 11.0404 14.142 10.5003 22.4189C10.3796 24.2009 10.4248 25.9903 10.6353 27.7639C11.1859 32.5709 11.0082 37.4335 10.1083 42.1874C9.60347 44.979 9.25017 47.7958 9.04985 50.6255C8.48361 58.5582 12.7696 64.5306 20.4662 66.5127C22.2902 67.0071 24.1735 67.2489 26.0632 67.2315C34.5569 67.0006 41.3388 63.1236 46.8967 56.9377C47.9892 55.7203 48.9361 54.3775 49.9013 53.0084C50.3522 52.3689 50.8072 51.7237 51.2829 51.0829C55.9435 52.0587 60.6782 52.6816 65.4695 51.7799C69.2285 57.6965 74.0362 62.8768 79.656 67.066C82.0336 68.7864 84.5666 70.2813 87.2219 71.5311C89.3063 72.5771 91.674 72.918 93.9689 72.5025C99.8752 71.444 104.022 68.1463 105.829 62.4832C106.838 59.3166 107.253 55.9414 107.661 52.6123C107.687 52.4058 107.712 52.1994 107.737 51.9933C108.056 49.2797 108.285 46.5566 108.513 43.8338C108.749 41.0143 108.986 38.1952 109.323 35.3874C110.076 29.1274 107.824 24.5316 102.28 21.5737C97.9631 19.2649 93.3808 19.3172 88.7769 20.219ZM49.9716 27.045C49.9716 27.0451 49.9717 27.0451 49.9718 27.0452C46.7834 30.247 47.0622 34.1197 47.4106 37.8792C47.7773 41.109 48.3593 44.3107 49.1529 47.4629C49.3147 48.0074 49.3595 48.58 49.2845 49.1431C49.2094 49.7061 49.0161 50.247 48.7173 50.7301C43.8825 58.7891 36.9308 63.7639 27.566 65.0359C23.7656 65.518 19.9181 64.6233 16.7203 62.5137C15.5617 61.7836 14.5751 60.9352 13.7757 59.9768C14.5747 60.9325 15.5599 61.7792 16.7158 62.509C19.9136 64.6186 23.7611 65.5134 27.5615 65.0313C36.9263 63.7593 43.878 58.7845 48.7128 50.7255C49.0116 50.2423 49.2049 49.7015 49.28 49.1384C49.355 48.5754 49.3102 48.0028 49.1484 47.4583C48.3548 44.3061 47.7728 41.1044 47.4061 37.8746C47.062 34.1195 46.7833 30.2469 49.9716 27.045ZM67.4601 50.473C67.4601 50.473 67.4601 50.473 67.4601 50.4729C67.46 50.473 67.46 50.473 67.46 50.473H67.4601ZM103.456 62.6095C101.344 67.7081 96.9343 70.4803 92.0736 70.3265C96.9308 70.4767 101.337 67.7048 103.447 62.6092C104.336 60.4781 104.922 58.2333 105.189 55.9398C105.714 51.1853 106.136 46.4214 106.557 41.6568L106.558 41.6542C106.783 39.1076 107.008 36.5607 107.249 34.0149C107.702 29.2492 105.642 25.7772 101.509 23.7429C99.4285 22.7157 96.9516 21.9386 94.6616 21.9307C96.954 21.9153 99.4258 22.7146 101.517 23.7431C105.651 25.7775 107.694 29.2495 107.258 34.0152C107.017 36.5619 106.791 39.1096 106.566 41.6571C106.145 46.4217 105.723 51.1855 105.198 55.9401C104.931 58.2336 104.344 60.4784 103.456 62.6095ZM68.711 38.234C68.7194 38.308 68.7278 38.3814 68.7362 38.4542C68.6844 38.9891 68.6397 39.5004 68.5979 39.9931C68.6396 39.5003 68.6843 38.989 68.7361 38.454C68.7277 38.3814 68.7193 38.308 68.711 38.234ZM67.2624 30.453C66.8709 30.0623 66.3595 29.813 65.809 29.7459C64.0076 29.3865 62.218 28.9613 60.4287 28.5361L60.4286 28.5361C58.9645 28.1882 57.5006 27.8403 56.0304 27.5286C53.539 27.0015 51.7139 27.8205 50.5292 30.0814C49.9586 31.1661 49.3618 32.486 49.4664 33.6361C49.8409 37.9967 50.4769 42.3398 51.1477 46.6699C51.291 47.5238 51.6992 48.3463 52.3685 48.8448C51.6839 48.3476 51.2646 47.5183 51.1348 46.6569C50.464 42.3356 49.8499 37.9794 49.4535 33.6231C49.3489 32.4731 49.9457 31.1531 50.5163 30.0684C51.701 27.8075 53.5261 26.9886 56.0175 27.5157C57.4504 27.8215 58.8859 28.1622 60.3242 28.5035C62.1433 28.9353 63.967 29.3681 65.7961 29.733C66.3527 29.8008 66.8692 30.0549 67.2624 30.453Z" fill="#DEFFFF"/>
<path d="M61.3249 19.5865C67.1546 15.5206 73.7679 12.715 80.7427 11.3488C85.3467 10.4471 89.9289 10.3948 94.2454 12.7036C99.7902 15.6615 102.042 20.2573 101.289 26.5172C100.627 32.0366 100.352 37.5995 99.7031 43.1232C99.2675 46.6518 98.8668 50.2501 97.7953 53.6131C95.9877 59.2762 91.8411 62.5739 85.9347 63.6324C83.6399 64.0479 81.2722 63.707 79.1877 62.661C76.5324 61.4112 73.9994 59.9163 71.6218 58.1959C66.002 54.0067 61.1943 48.8263 57.4353 42.9098C52.644 43.8115 47.9093 43.1886 43.2487 42.2128C41.7547 44.2254 40.4654 46.2815 38.8625 48.0676C33.3046 54.2534 26.5227 58.1305 18.0291 58.3614C16.1393 58.3788 14.2561 58.1369 12.432 57.6426C4.73544 55.6605 0.449427 49.6881 1.01567 41.7554C1.21599 38.9257 1.56929 36.1088 2.07408 33.3173C2.97402 28.5634 3.15174 23.7008 2.60116 18.8938C2.39066 17.1202 2.34543 15.3308 2.4661 13.5488C3.00621 5.27192 10.5721 -0.517541 18.5823 1.55167C22.0354 2.44397 25.3378 3.84144 28.3826 5.69882C33.1042 8.60879 37.5297 12.0153 41.9681 15.3696C43.1485 16.2409 44.0763 16.9205 45.579 16.3585C46.1902 16.1884 46.8363 16.1884 47.4476 16.3585C52.0211 17.3997 56.5989 18.4844 61.3249 19.5865ZM41.9376 18.1751C34.938 12.2637 27.9383 6.7922 19.2879 3.9258C19.0875 3.86046 18.8915 3.78206 18.6868 3.72543C13.6908 2.37064 9.53981 3.9389 6.62147 8.20802C4.46975 11.3663 4.16485 14.8731 4.71367 18.4931C5.51077 23.7641 5.03165 28.9481 4.18228 34.1755C3.62482 37.4867 3.33351 40.8372 3.31114 44.1949C3.31114 48.2462 5.23635 51.4698 8.68608 53.6435C11.8839 55.7532 15.7314 56.6479 19.5318 56.1658C28.8966 54.8938 35.8483 49.919 40.6832 41.86C40.9819 41.3768 41.1752 40.836 41.2503 40.2729C41.3253 39.7099 41.2805 39.1373 41.1187 38.5928C40.3251 35.4406 39.7431 32.2389 39.3764 29.0091C39.028 25.2496 38.7492 21.3769 41.9376 18.1751ZM59.4345 41.6029C63.4331 48.6077 72.0313 56.8498 78.4952 60.0254C85.2814 63.358 92.5206 60.7442 95.4215 53.7394C96.3101 51.6083 96.8965 49.3635 97.1638 47.07C97.9696 39.7733 98.5314 32.4548 99.224 25.1451C99.6596 20.3793 97.6167 16.9074 93.4831 14.873C91.3837 13.8406 88.901 13.039 86.6011 13.0608C77.6066 13.161 69.64 16.4718 62.4313 21.7254C62.2832 21.8343 62.2352 22.0783 62.1394 22.2569C62.4976 25.9074 62.6344 29.5762 62.5489 33.2433C62.5315 36.3754 61.8607 39.2941 59.4258 41.6029H59.4345ZM60.7021 29.5841C60.4886 27.737 60.2665 25.45 59.9398 23.176C59.9044 22.5967 59.6671 22.048 59.2692 21.6255C58.8714 21.2029 58.3381 20.9331 57.762 20.8629C54.4865 20.2094 51.2284 19.3382 47.9833 18.6455C45.4919 18.1184 43.6668 18.9374 42.4821 21.1983C41.9115 22.283 41.3148 23.603 41.4193 24.753C41.8157 29.1092 42.4298 33.4654 43.1006 37.7868C43.2923 39.0588 44.1155 40.2612 45.4919 40.4267C48.493 40.7927 51.5376 41.237 54.5344 41.0933C57.7663 40.9408 59.5696 38.9151 60.0792 35.6697C60.3841 33.8096 60.4756 31.9234 60.7021 29.5841Z" fill="#FF7596" stroke="#FF7596"/>
</svg>
