<svg width="101" height="63" viewBox="0 0 101 63" fill="none" xmlns="http://www.w3.org/2000/svg">
<path fill-rule="evenodd" clip-rule="evenodd" d="M79.7769 10.219C72.8021 11.5851 66.1888 14.3907 60.3591 18.4566C58.9939 18.1383 57.6411 17.8213 56.2971 17.5065C52.9887 16.7314 49.7341 15.969 46.4818 15.2286C45.8705 15.0585 45.2244 15.0585 44.6132 15.2286C43.1105 15.7906 42.1827 15.111 41.0023 14.2398C40.6501 13.9736 40.298 13.7071 39.9458 13.4405C35.8596 10.3479 31.7637 7.24799 27.4168 4.56894C24.372 2.71156 21.0696 1.3141 17.6164 0.421796C9.60628 -1.64742 2.0404 4.14204 1.50029 12.4189C1.37962 14.2009 1.42485 15.9903 1.63535 17.764C2.18593 22.5709 2.00821 27.4335 1.10827 32.1875C0.603478 34.979 0.250178 37.7958 0.0498601 40.6255C-0.516383 48.5582 3.76963 54.5306 11.4662 56.5127C13.2903 57.0071 15.1735 57.2489 17.0633 57.2315C25.5569 57.0006 32.3388 53.1236 37.8967 46.9377C38.9892 45.7203 39.9361 44.3775 40.9013 43.0085C41.3522 42.3689 41.8072 41.7237 42.2829 41.0829C46.9435 42.0587 51.6782 42.6816 56.4695 41.7799C60.2285 47.6965 65.0362 52.8768 70.656 57.066C73.0336 58.7864 75.5666 60.2813 78.2219 61.5311C80.3064 62.5772 82.674 62.9181 84.9689 62.5025C90.8752 61.444 95.0219 58.1463 96.8295 52.4832C97.8384 49.3166 98.2526 45.9414 98.6612 42.6123C98.6865 42.4058 98.7119 42.1994 98.7373 41.9933C99.0561 39.2797 99.2846 36.5566 99.513 33.8339C99.7495 31.0144 99.986 28.1952 100.323 25.3874C101.076 19.1275 98.8244 14.5316 93.2796 11.5738C88.9631 9.26495 84.3809 9.31723 79.7769 10.219ZM40.9716 17.045C40.9717 17.0451 40.9717 17.0452 40.9718 17.0452C37.7834 20.247 38.0622 24.1197 38.4106 27.8792C38.7773 31.109 39.3593 34.3107 40.1529 37.4629C40.3147 38.0074 40.3595 38.58 40.2845 39.1431C40.2094 39.7061 40.0161 40.247 39.7174 40.7301C34.8825 48.7891 27.9308 53.7639 18.566 55.0359C14.7656 55.518 10.9181 54.6233 7.72027 52.5137C6.56103 51.7832 5.57394 50.9342 4.7742 49.975C5.57345 50.9315 6.55918 51.7788 7.71578 52.5091C10.9136 54.6187 14.7611 55.5134 18.5615 55.0313C27.9263 53.7593 34.878 48.7845 39.7129 40.7255C40.0116 40.2423 40.2049 39.7015 40.28 39.1385C40.355 38.5754 40.3102 38.0028 40.1484 37.4583C39.3548 34.3061 38.7728 31.1044 38.4061 27.8746C38.062 24.1195 37.7833 20.2469 40.9716 17.045ZM58.4601 40.473C58.4601 40.473 58.4601 40.473 58.4601 40.4729C58.4601 40.473 58.46 40.473 58.46 40.473H58.4601ZM94.4557 52.6095C92.3431 57.7107 87.9297 60.4832 83.0661 60.3263C87.9263 60.4796 92.3356 57.7074 94.4469 52.6092C95.3355 50.4781 95.922 48.2333 96.1892 45.9398C96.7142 41.1855 97.1357 36.422 97.5573 31.6577L97.5573 31.6571C97.7827 29.1095 98.0081 26.5617 98.2494 24.0149C98.7024 19.2492 96.6422 15.7772 92.5086 13.7429C90.4285 12.7157 87.9516 11.9386 85.6615 11.9307C87.9539 11.9152 90.4258 12.7146 92.5173 13.7432C96.6509 15.7775 98.6938 19.2495 98.2582 24.0152C98.0169 26.5619 97.7915 29.1096 97.5661 31.6571C97.1445 36.4217 96.723 41.1855 96.1979 45.9401C95.9307 48.2336 95.3443 50.4784 94.4557 52.6095ZM59.711 28.2339C59.7194 28.308 59.7279 28.3814 59.7363 28.4542C59.6851 28.983 59.6408 29.4886 59.5993 29.976C59.6406 29.4884 59.6849 28.9828 59.7361 28.454C59.7277 28.3813 59.7193 28.308 59.711 28.2339ZM58.2624 20.453C57.8709 20.0623 57.3595 19.813 56.809 19.7459C55.0076 19.3866 53.218 18.9613 51.4287 18.5361C49.9646 18.1882 48.5006 17.8403 47.0305 17.5286C44.539 17.0015 42.7139 17.8205 41.5292 20.0814C40.9586 21.1661 40.3618 22.486 40.4664 23.6361C40.841 27.9967 41.4769 32.3398 42.1477 36.6699C42.291 37.5238 42.6993 38.3463 43.3686 38.8449C42.6839 38.3477 42.2646 37.5183 42.1348 36.657C41.464 32.3356 40.8499 27.9794 40.4535 23.6231C40.349 22.4731 40.9457 21.1531 41.5163 20.0684C42.701 17.8075 44.5261 16.9886 47.0175 17.5157C48.4504 17.8215 49.8859 18.1622 51.3242 18.5035C53.1433 18.9353 54.967 19.3681 56.7962 19.733C57.3527 19.8008 57.8693 20.0549 58.2624 20.453Z" fill="#DEFFFF"/>
</svg>
