<svg width="102" height="65" viewBox="0 0 102 65" fill="none" xmlns="http://www.w3.org/2000/svg">
<path d="M61.3249 19.5865C67.1546 15.5206 73.7679 12.715 80.7427 11.3488C85.3467 10.4471 89.9289 10.3948 94.2454 12.7036C99.7902 15.6615 102.042 20.2573 101.289 26.5172C100.627 32.0366 100.352 37.5995 99.7031 43.1232C99.2675 46.6518 98.8668 50.2501 97.7953 53.6131C95.9877 59.2762 91.8411 62.5739 85.9347 63.6324C83.6399 64.0479 81.2722 63.707 79.1877 62.661C76.5324 61.4112 73.9994 59.9163 71.6218 58.1958C66.002 54.0067 61.1943 48.8263 57.4353 42.9098C52.644 43.8115 47.9093 43.1886 43.2487 42.2128C41.7547 44.2254 40.4654 46.2815 38.8625 48.0676C33.3046 54.2535 26.5227 58.1305 18.0291 58.3614C16.1393 58.3788 14.2561 58.1369 12.432 57.6426C4.73544 55.6605 0.449427 49.6881 1.01567 41.7554C1.21599 38.9257 1.56929 36.1088 2.07408 33.3173C2.97402 28.5634 3.15174 23.7008 2.60116 18.8938C2.39066 17.1202 2.34543 15.3308 2.4661 13.5488C3.00621 5.27192 10.5721 -0.517541 18.5823 1.55167C22.0354 2.44397 25.3378 3.84144 28.3826 5.69882C33.1042 8.60879 37.5297 12.0153 41.9681 15.3696C43.1485 16.2409 44.0763 16.9205 45.579 16.3585C46.1902 16.1884 46.8363 16.1884 47.4476 16.3585C52.0211 17.3997 56.599 18.4844 61.3249 19.5865ZM41.9376 18.1751C34.938 12.2637 27.9383 6.79221 19.2879 3.9258C19.0875 3.86046 18.8915 3.78206 18.6868 3.72543C13.6908 2.37064 9.5398 3.9389 6.62147 8.20802C4.46975 11.3663 4.16485 14.8731 4.71367 18.4931C5.51077 23.7641 5.03165 28.9481 4.18228 34.1755C3.62482 37.4867 3.33351 40.8372 3.31114 44.1949C3.31114 48.2462 5.23635 51.4698 8.68608 53.6435C11.8839 55.7532 15.7314 56.6479 19.5318 56.1658C28.8966 54.8938 35.8483 49.919 40.6832 41.86C40.9819 41.3768 41.1752 40.836 41.2503 40.2729C41.3253 39.7099 41.2805 39.1373 41.1187 38.5928C40.3251 35.4406 39.7431 32.2389 39.3764 29.0091C39.028 25.2496 38.7492 21.3769 41.9376 18.1751ZM59.4345 41.6029C63.4331 48.6077 72.0313 56.8498 78.4952 60.0254C85.2814 63.358 92.5206 60.7442 95.4215 53.7394C96.3101 51.6083 96.8965 49.3635 97.1638 47.07C97.9696 39.7733 98.5314 32.4548 99.224 25.1451C99.6596 20.3793 97.6167 16.9074 93.4831 14.873C91.3837 13.8406 88.901 13.039 86.6011 13.0608C77.6066 13.161 69.64 16.4718 62.4313 21.7254C62.2832 21.8343 62.2352 22.0783 62.1394 22.2569C62.4976 25.9074 62.6344 29.5762 62.5489 33.2433C62.5315 36.3754 61.8607 39.2941 59.4258 41.6029H59.4345ZM60.7021 29.5841C60.4886 27.737 60.2665 25.45 59.9398 23.176C59.9044 22.5967 59.6671 22.048 59.2692 21.6255C58.8714 21.2029 58.3381 20.9331 57.762 20.8629C54.4865 20.2094 51.2284 19.3382 47.9833 18.6455C45.4919 18.1184 43.6668 18.9374 42.4821 21.1983C41.9115 22.283 41.3148 23.603 41.4193 24.753C41.8157 29.1092 42.4298 33.4654 43.1006 37.7868C43.2923 39.0588 44.1155 40.2612 45.4919 40.4267C48.493 40.7927 51.5376 41.237 54.5344 41.0933C57.7663 40.9408 59.5696 38.9151 60.0792 35.6697C60.3841 33.8096 60.4756 31.9234 60.7021 29.5841V29.5841Z" fill="#FF7596" stroke="#FF7596"/>
</svg>
