<svg width="3096" height="394" viewBox="0 0 3096 394" fill="none" xmlns="http://www.w3.org/2000/svg">
<path d="M2 303.5C5.02 257.02 8.99667 209.323 13.93 160.41C20.99 91.0198 21.62 78.7498 23.1 78.7798C30.05 78.9198 25.65 348.99 35.02 349.36C44.76 349.73 63.18 59.2698 67.12 59.5198C70.79 59.7598 56.96 310.36 63.46 310.83C68.52 311.2 80.71 159.1 89.14 159.5C99.53 159.99 92.44 392.01 101.06 392.5C109.97 392.97 126.57 24.4298 139.58 24.6998C152.31 24.9598 153.31 377.7 164.35 377.82C172.57 377.89 179.02 182.32 187.28 182.46C194.79 182.58 195.42 344.7 201.95 344.8C210.81 344.94 222.05 46.5898 225.8 46.7098C229.55 46.8298 221.8 329.71 230.39 330.13C237.39 330.48 249.73 140.83 261.57 141.18C273.57 141.54 271.78 336.55 288.17 337.46C305.31 338.46 327 126.39 340.45 127.46C353.53 128.46 344.14 329.75 358.79 331.07C376.05 332.63 408.79 55.3298 434 56.8298C458.52 58.2898 453.46 321.04 494.54 325.57C527.08 329.16 556.23 167.14 605.54 168.73C648.72 170.12 664.45 295.73 698.18 294.39C741.98 292.63 757.82 78.9998 783.48 79.7598C810.39 80.5598 819.6 316.52 834.84 316.4C852.43 316.25 861.55 1.8398 876.11 1.7998C891.46 1.7998 896.17 350.8 932.98 353.09C965.7 355.09 996.89 81.4898 1045.79 82.5098C1089.56 83.4298 1100.08 303.33 1164.11 309.06C1198.88 312.17 1265 157 1282 123C1299 89 1336.44 42.4198 1385.5 58.2998C1462.07 83.0798 1483.54 301.94 1577.77 318.22C1672 334.5 1743.5 257.5 1771 238.5C1798.5 219.5 1851.62 160.42 1945.56 165.95C2039.5 171.48 2067.23 262.29 2154.69 265.95C2240.69 269.52 2254.21 173.56 2344.55 171.48C2445.55 169.15 2483.16 287.76 2572.01 272.37C2631.18 262.13 2626.5 207.45 2691.25 190.74C2775.46 169.01 2822.53 251.41 2932.47 254.95C2994.84 256.95 3049.97 232.69 3094.81 202.67" stroke="#FF7596" stroke-opacity="0.98" stroke-width="3" stroke-miterlimit="10"/>
</svg>
