<svg width="3760" height="363" viewBox="0 0 3760 363" fill="none" xmlns="http://www.w3.org/2000/svg">
<path fill-rule="evenodd" clip-rule="evenodd" d="M720.519 24.8129C738.627 30.1541 756.809 35.5173 776.416 35.9572C781.074 36.0181 785.545 35.993 789.83 35.8818C817.191 35.3195 842.685 29.4276 868.451 23.473L868.453 23.4725C875.812 21.7717 883.194 20.0658 890.647 18.4775C897.887 16.961 905.393 16.5302 912.911 16.0986L913.986 16.0368C917.817 15.8124 921.869 15.6377 926.192 15.5185C930.516 15.3994 935.105 15.3358 940 15.3358V15.4472C979.167 15.4472 998.747 19.5164 1018.33 23.5864C1021.7 24.286 1025.06 24.9855 1028.53 25.6645C1033.26 26.5899 1038.17 27.4796 1043.51 28.274C1047.83 28.7545 1052.19 29.1934 1056.59 29.5906C1060.99 29.9878 1065.4 30.3248 1069.85 30.6015C1075.83 31.0529 1081.8 31.3064 1087.78 31.362C1093.75 31.4198 1099.71 31.2707 1105.66 30.9151C1114.34 30.5259 1122.68 29.3542 1130.8 27.6841C1134.86 26.8481 1138.87 25.8889 1142.84 24.8305C1152.78 22.2733 1162.1 18.9122 1171.43 15.549C1179.8 12.5316 1188.17 9.51245 1197 7.07068C1215.64 2.10597 1235.27 -0.0447375 1255.04 0.120091C1259.98 0.159808 1264.94 0.34647 1269.9 0.703929C1285.98 1.69687 1301.15 4.87428 1315.74 9.44182C1321.59 11.305 1327.42 13.251 1333.27 15.1997L1333.27 15.2005C1357.79 23.3769 1382.45 31.601 1409.19 33.9616C1414.78 34.459 1420.41 34.6793 1426.04 34.6208C1450.51 34.4807 1472.68 27.8091 1494.81 21.1489C1497.45 20.3539 1500.09 19.559 1502.74 18.7755C1519.88 13.6122 1537.27 10.8816 1554.75 9.94032C1560.59 9.62655 1566.42 9.51334 1572.26 9.57292C1595.22 9.44185 1617.68 13.4136 1639.27 18.9741C1646.39 20.7581 1653.45 22.8395 1660.52 24.9242C1678.63 30.2654 1696.81 35.6286 1716.42 36.0686C1721.07 36.1295 1725.55 36.1043 1729.83 35.9931C1757.19 35.4309 1782.69 29.539 1808.45 23.5843L1808.46 23.5827C1815.82 21.8823 1823.2 20.1768 1830.65 18.5888C1837.89 17.0724 1845.39 16.6415 1852.91 16.21L1853.99 16.1481C1857.82 15.9237 1861.87 15.749 1866.19 15.6299C1870.52 15.5107 1875.1 15.4472 1880 15.4472C1919.17 15.4472 1938.75 19.5164 1958.33 23.5864C1961.7 24.286 1965.06 24.9855 1968.53 25.6645C1973.26 26.5899 1978.17 27.4796 1983.51 28.274C1987.83 28.7545 1992.19 29.1934 1996.59 29.5906C2000.99 29.9878 2005.4 30.3248 2009.85 30.6015C2015.83 31.0529 2021.8 31.3064 2027.78 31.362C2033.75 31.4198 2039.71 31.2707 2045.66 30.9151C2054.34 30.5259 2062.68 29.3542 2070.8 27.6841C2074.86 26.8481 2078.87 25.8889 2082.84 24.8305C2092.78 22.2733 2102.1 18.9122 2111.43 15.549L2111.43 15.5477L2111.43 15.5474C2119.8 12.5305 2128.17 9.51202 2137 7.07068C2155.64 2.10597 2175.27 -0.0447375 2195.04 0.120091C2199.98 0.159808 2204.94 0.34647 2209.9 0.703929C2225.98 1.69687 2241.15 4.87428 2255.74 9.44182C2261.59 11.304 2267.42 13.2488 2273.26 15.1964L2273.26 15.197L2273.27 15.2005C2297.79 23.3769 2322.45 31.601 2349.19 33.9616C2354.78 34.459 2360.41 34.6793 2366.04 34.6208C2390.51 34.4807 2412.68 27.8091 2434.81 21.1489C2437.45 20.3539 2440.09 19.559 2442.74 18.7755C2459.88 13.6122 2477.27 10.8816 2494.75 9.94032C2500.59 9.62655 2506.42 9.51334 2512.26 9.57292C2535.22 9.44185 2557.68 13.4136 2579.27 18.9741C2586.39 20.7578 2593.45 22.8389 2600.52 24.9233L2600.52 24.9242C2618.63 30.2654 2636.81 35.6286 2656.42 36.0686C2661.07 36.1295 2665.55 36.1043 2669.83 35.9931C2697.19 35.4309 2722.69 29.539 2748.45 23.5843L2748.46 23.5827C2755.82 21.8823 2763.2 20.1768 2770.65 18.5888C2777.89 17.0724 2785.39 16.6415 2792.91 16.21L2793.99 16.1481C2797.82 15.9237 2801.87 15.749 2806.19 15.6299C2810.52 15.5107 2815.1 15.4472 2820 15.4472C2859.17 15.4472 2878.75 19.5164 2898.33 23.5864L2898.34 23.5877C2901.7 24.2868 2905.07 24.9859 2908.53 25.6645C2913.26 26.5899 2918.17 27.4796 2923.51 28.274C2927.83 28.7545 2932.19 29.1934 2936.59 29.5906C2940.99 29.9878 2945.41 30.3248 2949.85 30.6015C2955.83 31.0529 2961.8 31.3064 2967.78 31.362C2973.75 31.4198 2979.71 31.2707 2985.66 30.9151C2994.34 30.5259 3002.68 29.3542 3010.8 27.6841C3014.86 26.8481 3018.87 25.8889 3022.84 24.8305C3032.78 22.2733 3042.1 18.9122 3051.43 15.549L3051.43 15.5477L3051.43 15.5474C3059.8 12.5305 3068.17 9.51202 3077 7.07068C3095.64 2.10597 3115.27 -0.0447375 3135.04 0.120091C3139.98 0.159808 3144.94 0.34647 3149.9 0.703929C3165.98 1.69687 3181.15 4.87428 3195.74 9.44182C3201.59 11.304 3207.42 13.2488 3213.26 15.1964L3213.26 15.197L3213.27 15.2005C3237.79 23.3769 3262.45 31.601 3289.19 33.9616C3294.78 34.459 3300.41 34.6793 3306.04 34.6208C3330.51 34.4807 3352.68 27.8091 3374.81 21.1489C3377.45 20.3539 3380.09 19.559 3382.74 18.7755C3399.88 13.6122 3417.27 10.8816 3434.75 9.94032C3440.59 9.62655 3446.42 9.51334 3452.26 9.57292C3475.22 9.44185 3497.68 13.4136 3519.27 18.9741C3526.39 20.7578 3533.45 22.8389 3540.52 24.9233L3540.52 24.9242C3558.63 30.2654 3576.81 35.6286 3596.42 36.0686C3601.07 36.1295 3605.55 36.1043 3609.83 35.9931C3637.19 35.4309 3662.69 29.539 3688.45 23.5843L3688.46 23.5827C3695.82 21.8823 3703.2 20.1768 3710.65 18.5888C3717.89 17.0724 3725.39 16.6415 3732.91 16.21L3733.99 16.1481C3737.82 15.9237 3741.87 15.749 3746.19 15.6299C3750.52 15.5107 3755.1 15.4472 3760 15.4472V111V115.933V222.333V363H0V222.222V115.822V115.821V111V15.3358C39.1666 15.3358 58.7469 19.405 78.3313 23.4751L78.3317 23.4751C81.6977 24.1747 85.0639 24.8742 88.5297 25.5532C93.2558 26.4786 98.1658 27.3683 103.513 28.1626C107.833 28.6432 112.191 29.0821 116.589 29.4793C120.986 29.8764 125.405 30.2134 129.845 30.4901C135.826 30.9416 141.803 31.195 147.778 31.2506C153.746 31.3085 159.713 31.1594 165.659 30.8038C174.338 30.4146 182.675 29.2429 190.803 27.5728C194.864 26.7367 198.872 25.7776 202.84 24.7191C212.781 22.162 222.102 18.8009 231.429 15.4377C239.798 12.4203 248.171 9.40112 257 6.95935C275.639 1.99465 295.27 -0.156066 315.038 0.00876269C319.977 0.0484804 324.937 0.235142 329.896 0.592601C345.979 1.58554 361.15 4.76296 375.736 9.33049C381.59 11.1939 387.426 13.1401 393.27 15.0891L393.27 15.0892C417.788 23.2656 442.448 31.4897 469.193 33.8502C474.777 34.3477 480.407 34.568 486.038 34.5095C510.513 34.3694 532.681 27.6978 554.811 21.0376C557.452 20.2426 560.094 19.4477 562.738 18.6641C579.877 13.5008 597.274 10.7703 614.754 9.82899C620.589 9.51523 626.424 9.40201 632.258 9.46159C655.218 9.33052 677.681 13.3023 699.27 18.8627C706.395 20.6467 713.451 22.7281 720.519 24.8129Z" fill="#E9FFE3"/>
</svg>
