<svg width="3760" height="363" viewBox="0 0 3760 363" fill="none" xmlns="http://www.w3.org/2000/svg">
<path fill-rule="evenodd" clip-rule="evenodd" d="M720.519 24.813L720.522 24.8137C738.629 30.1545 756.81 35.5173 776.416 35.9573C781.074 36.0181 785.545 35.9929 789.83 35.8818C817.191 35.3196 842.685 29.4277 868.451 23.4729L868.459 23.4707C875.816 21.7705 883.196 20.0654 890.647 18.4775C897.886 16.9614 905.389 16.5303 912.905 16.0986H912.911L913.986 16.0369C917.817 15.8125 921.869 15.6377 926.192 15.5185C930.516 15.3994 935.105 15.3359 940 15.3359V15.4473C979.167 15.4473 998.747 19.5163 1018.33 23.5864L1018.38 23.5974L1018.41 23.6033L1018.43 23.6069C1021.76 24.2995 1025.1 24.9922 1028.53 25.6645C1033.26 26.5898 1038.17 27.4797 1043.51 28.2739C1047.83 28.7546 1052.19 29.1933 1056.59 29.5906C1060.99 29.9878 1065.4 30.3247 1069.85 30.6015C1075.83 31.053 1081.8 31.3064 1087.78 31.362C1093.75 31.4199 1099.71 31.2707 1105.66 30.9153C1114.34 30.5259 1122.68 29.3542 1130.8 27.6841C1134.86 26.8481 1138.87 25.8889 1142.84 24.8306C1152.78 22.2739 1162.1 18.914 1171.42 15.552L1171.43 15.5505L1171.43 15.5491C1179.8 12.5315 1188.17 9.51244 1197 7.07079C1215.64 2.10594 1235.27 -0.0446925 1255.04 0.120102C1259.98 0.159897 1264.94 0.346421 1269.9 0.703843C1285.98 1.69676 1301.15 4.87425 1315.74 9.44188C1321.59 11.3054 1327.43 13.2515 1333.27 15.2004C1357.79 23.3769 1382.45 31.6011 1409.19 33.9617C1414.78 34.459 1420.41 34.6794 1426.04 34.6208C1450.51 34.4807 1472.68 27.8091 1494.81 21.1489C1497.45 20.354 1500.09 19.5591 1502.74 18.7754C1519.88 13.6123 1537.27 10.8816 1554.75 9.94041C1560.59 9.62645 1566.42 9.51341 1572.26 9.57298C1595.22 9.44188 1617.68 13.4136 1639.27 18.9741C1646.39 20.7563 1653.44 22.8357 1660.5 24.9184L1660.51 24.9214L1660.52 24.9243L1660.52 24.925C1678.63 30.2659 1696.81 35.6286 1716.42 36.0686C1721.07 36.1294 1725.55 36.1042 1729.83 35.9931C1757.19 35.4309 1782.69 29.539 1808.45 23.5842L1808.45 23.5835L1808.46 23.5827L1808.46 23.582L1808.46 23.5813C1815.82 21.8813 1823.2 20.1763 1830.65 18.5889C1837.89 17.0727 1845.39 16.6416 1852.91 16.2099H1852.91L1853.99 16.1482C1857.82 15.9238 1861.87 15.749 1866.19 15.6299C1870.52 15.5107 1875.1 15.4473 1880 15.4473C1919.17 15.4473 1938.75 19.5163 1958.33 23.5864L1958.38 23.5974L1958.41 23.6025L1958.42 23.6055C1961.76 24.2986 1965.1 24.9919 1968.53 25.6645C1973.26 26.5898 1978.17 27.4797 1983.51 28.2739C1987.83 28.7546 1992.19 29.1933 1996.59 29.5906C2000.99 29.9878 2005.4 30.3247 2009.85 30.6015C2015.83 31.053 2021.8 31.3064 2027.78 31.362C2033.75 31.4199 2039.71 31.2707 2045.66 30.9153C2054.34 30.5259 2062.68 29.3542 2070.8 27.6841C2074.86 26.8481 2078.87 25.8889 2082.84 24.8306C2092.78 22.2739 2102.1 18.914 2111.42 15.552L2111.43 15.5505L2111.43 15.5491C2119.8 12.5315 2128.17 9.51244 2137 7.07079C2155.64 2.10594 2175.27 -0.0446925 2195.04 0.120102C2199.98 0.159897 2204.94 0.346421 2209.9 0.703843C2225.98 1.69676 2241.15 4.87425 2255.74 9.44188C2261.59 11.3054 2267.43 13.2515 2273.27 15.2004C2297.79 23.3769 2322.45 31.6011 2349.19 33.9617C2354.78 34.459 2360.41 34.6794 2366.04 34.6208C2390.51 34.4807 2412.68 27.8091 2434.81 21.1489L2434.92 21.1174L2435.02 21.0874C2437.59 20.313 2440.16 19.5388 2442.74 18.7754C2459.88 13.6123 2477.27 10.8816 2494.75 9.94041C2500.59 9.62645 2506.42 9.51341 2512.26 9.57298C2535.22 9.44188 2557.68 13.4136 2579.27 18.9741C2586.39 20.7563 2593.44 22.8357 2600.5 24.9184L2600.51 24.9214L2600.52 24.9243L2600.52 24.925C2618.63 30.2659 2636.81 35.6286 2656.42 36.0686C2661.07 36.1294 2665.55 36.1042 2669.83 35.9931C2697.19 35.4309 2722.69 29.539 2748.45 23.5842L2748.45 23.5835L2748.46 23.5827L2748.46 23.582C2755.82 21.8818 2763.2 20.1765 2770.65 18.5889C2777.89 17.0727 2785.39 16.6416 2792.91 16.2099H2792.91L2793.99 16.1482C2797.82 15.9238 2801.87 15.749 2806.19 15.6299C2810.52 15.5107 2815.1 15.4473 2820 15.4473C2859.17 15.4473 2878.75 19.5163 2898.33 23.5864L2898.39 23.5981C2901.73 24.2937 2905.08 24.9892 2908.53 25.6645C2913.26 26.5898 2918.17 27.4797 2923.51 28.2739C2927.83 28.7546 2932.19 29.1933 2936.59 29.5906C2940.99 29.9878 2945.4 30.3247 2949.85 30.6015C2955.83 31.053 2961.8 31.3064 2967.78 31.362C2973.75 31.4199 2979.71 31.2707 2985.66 30.9153C2994.34 30.5259 3002.68 29.3542 3010.8 27.6841C3014.86 26.8481 3018.87 25.8889 3022.84 24.8306C3032.78 22.2739 3042.1 18.914 3051.42 15.552L3051.43 15.5505L3051.43 15.5491C3059.8 12.5315 3068.17 9.51244 3077 7.07079C3095.64 2.10594 3115.27 -0.0446925 3135.04 0.120102C3139.98 0.159897 3144.94 0.346421 3149.9 0.703843C3165.98 1.69676 3181.15 4.87425 3195.74 9.44188C3201.59 11.3054 3207.43 13.2515 3213.27 15.2004C3237.79 23.3769 3262.45 31.6011 3289.19 33.9617C3294.78 34.459 3300.41 34.6794 3306.04 34.6208C3330.51 34.4807 3352.68 27.8091 3374.81 21.1489C3377.45 20.354 3380.09 19.5591 3382.74 18.7754C3399.88 13.6123 3417.27 10.8816 3434.75 9.94041C3440.59 9.62645 3446.42 9.51341 3452.26 9.57298C3475.22 9.44188 3497.68 13.4136 3519.27 18.9741C3526.39 20.7571 3533.44 22.8371 3540.51 24.9206L3540.52 24.9243L3540.52 24.925C3558.63 30.2659 3576.81 35.6286 3596.42 36.0686C3601.07 36.1294 3605.55 36.1042 3609.83 35.9931C3637.19 35.4309 3662.69 29.539 3688.45 23.5842L3688.46 23.582C3695.82 21.8818 3703.2 20.1767 3710.65 18.5889C3717.89 17.0727 3725.39 16.6416 3732.91 16.2099H3732.91L3733.99 16.1482C3737.82 15.9238 3741.87 15.749 3746.19 15.6299C3750.52 15.5107 3755.1 15.4473 3760 15.4473V111V115.933V222.333V363H0V222.222V115.822V111V15.3359C39.1665 15.3359 58.7469 19.405 78.3313 23.4751C79.6588 23.751 80.9865 24.0271 82.3202 24.3017C82.9825 24.4382 83.6464 24.5742 84.3125 24.7097C85.7061 24.9934 87.1095 25.2749 88.5297 25.5532C93.2557 26.4785 98.1658 27.3684 103.513 28.1626C107.833 28.6433 112.191 29.082 116.589 29.4792C120.986 29.8765 125.405 30.2134 129.845 30.4902C135.826 30.9416 141.803 31.1951 147.778 31.2507C153.745 31.3086 159.713 31.1594 165.658 30.8039C174.338 30.4145 182.675 29.2429 190.803 27.5727C194.864 26.7368 198.872 25.7776 202.84 24.7192C212.779 22.1626 222.097 18.8027 231.422 15.4407L231.425 15.4392L231.429 15.4377C239.798 12.4202 248.171 9.40111 257 6.95946C275.639 1.99461 295.27 -0.156021 315.038 0.0087743C319.977 0.0485692 324.937 0.235093 329.896 0.592515C345.979 1.58543 361.15 4.76292 375.736 9.33055C381.59 11.1941 387.426 13.1401 393.27 15.0891C417.788 23.2656 442.448 31.4897 469.193 33.8503C474.777 34.3476 480.407 34.5681 486.038 34.5095C510.513 34.3694 532.681 27.6977 554.811 21.0376C557.452 20.2427 560.094 19.4477 562.738 18.664C579.877 13.501 597.274 10.7702 614.754 9.82909C620.589 9.51512 626.424 9.40208 632.258 9.46166C655.218 9.33055 677.681 13.3022 699.27 18.8628C706.391 20.6457 713.443 22.7258 720.507 24.8093L720.519 24.813Z" fill="#FFDCE9"/>
</svg>
